<svg width="648" height="150" viewBox="0 0 648 150" fill="none" xmlns="http://www.w3.org/2000/svg">
<g clip-path="url(#clip0_15_384)">
<path d="M0 0H647.461V150H0V0Z" fill="white"/>
<path d="M441.747 30.6136C455.815 37.0294 469.239 45.8086 483.889 50.775C487.954 52.1541 484.843 36.3975 487.527 35.0804C489.013 34.0393 491.467 35.2779 492.937 36.0174C498.988 39.0563 505.295 43.0576 511.102 46.3855C514.159 48.1377 525.926 55.1171 528.667 52.894C531.44 50.6459 528.44 37.0165 531.822 34.0836C533.994 32.9614 544.639 38.1494 547.155 39.1158L576.841 50.662C581.002 52.3117 585.462 54.3541 589.692 55.9256C593.426 57.313 608.61 60.2886 610.311 63.276C610.567 66.3392 606.246 66.0646 603.95 66.0329C593.815 65.8937 583.727 65.193 573.635 64.3089C570.114 64.0006 566.133 64.2143 562.536 64.0699L533.406 62.7978C529.97 62.6703 526.524 62.0769 523.138 61.9693C506.91 61.5687 490.676 61.6253 474.452 62.1386C471.271 62.2272 467.882 62.7699 464.781 62.8269C458.629 62.6779 452.066 63.1839 445.952 62.887C434.697 62.3412 423.474 61.7893 412.203 61.5924C406.345 61.4902 400.794 60.9086 394.973 61.8741C395.046 63.5095 394.313 64.9355 394.417 65.7987C394.8 68.9911 395.106 71.1307 395.195 74.4237C401.527 75.4171 411.685 75.4848 418.099 75.376C430.119 75.1722 442.057 76.1143 453.975 76.3272C473.19 76.6706 492.33 76.2953 511.523 78.0139C514.428 78.2744 519.474 77.5589 522.781 77.5459L566.582 77.5772C580.214 77.6753 594.084 79.2082 607.76 79.2367C609.341 79.2402 611.038 79.9883 611.604 81.5614C611.155 84.1943 606.615 85.1073 604.459 85.7889C600.738 86.9639 596.913 87.0737 593.173 88.2883C588.266 89.8813 583.417 91.6158 578.539 93.2829C571.916 95.5111 565.277 97.6965 558.625 99.8386C549.416 102.861 540.994 107.23 531.361 109.159C529.208 104.442 529.322 89.1133 528.395 87.9427C525.955 87.1589 516.572 93.232 513.736 94.6389C508.801 97.1244 503.844 99.588 498.931 102.104C496.866 103.161 488.634 109.229 487.025 108.453C484.521 104.512 488.473 90.1073 486.541 88.195C482.665 87.8238 461.948 100.733 457.032 102.018C453.763 102.872 442.142 110.659 439.142 109.039C438.585 105.926 438.348 102.336 438.456 99.1769C438.608 94.6472 437.937 90.2813 437.773 85.7266C434.912 87.0522 431.817 87.8997 428.861 88.9969C424.558 90.5946 419.933 92.663 415.883 94.8158C411.264 97.269 393.671 109.921 390.601 110.087C389.833 110.129 389.081 109.922 388.512 109.378C385.793 106.785 388.347 93.3152 388.205 89.2446C388.151 87.7734 388.088 85.3908 386.89 84.3469C384.61 82.3598 377.023 83.0054 374.026 83.1557C373.643 91.2785 374.212 99.4374 373.45 107.405C373.292 109.064 367.602 111.475 366.369 107.236C364.137 99.5627 366.764 91.1408 364.564 83.4266C363.707 80.4329 357.523 82.7133 355.623 83.4978C355.538 87.9038 355.746 108.513 354.659 110.712C353.078 111.95 348.994 111.68 346.866 111.679C346.379 110.242 345.624 108.248 345.415 106.707C344.865 102.616 348.997 89.8915 345.592 87.301C342.683 86.7953 340.085 103.347 333.477 106.867C319.086 114.535 297.703 115.502 287.071 101.143C285.862 99.5092 283.125 94.2127 281.437 93.9111C278.247 95.6931 280.387 106.853 277.332 109.974C275.735 112.21 270.855 109.84 270.89 107.404C271.007 101.897 270.797 95.307 271.463 89.9234C271.909 86.319 264.205 85.9734 262.542 86.3829C255.633 88.0845 260.716 106.53 257.99 111.064C256.423 113.67 251.982 109.946 250.608 108.789C250.446 103.57 250.55 98.2212 250.668 92.9968C250.841 85.3886 243.45 87.1418 238.425 88.0671C238.454 92.9402 237.74 97.7902 237.702 102.674C237.689 104.383 238.215 114.045 238.027 114.589C236.616 116.085 234.848 114.991 233.173 114.105C223.796 109.141 215.249 103.489 205.548 99.0889C201.499 97.2529 196.849 94.3082 192.657 92.2225C190.916 98.0813 194.169 110.442 192.533 113.568C189.312 115.921 177.87 111.039 174.575 109.149C172.428 108.068 167.768 105.023 165.505 103.668C160.428 100.656 155.273 97.776 150.047 95.0323C147.177 93.5279 143.788 91.6927 140.692 90.9063C140.465 95.451 140.674 108.984 140.07 112.128C136.536 114.025 131.886 111.685 128.887 110.084C123.608 107.267 99.0367 91.9089 94.5007 91.9513C91.2937 94.4896 96.3527 110.376 92.3525 111.418C90.5186 111.895 82.2359 106.932 79.5127 105.738C68.6272 100.968 57.443 96.1633 46.3553 91.8203C41.9397 90.0997 15.6045 82.0943 14.5689 78.2506C15.4884 73.0924 38.0986 77.6807 42.6283 77.8067L88.6261 78.9206C95.5089 79.069 100.683 78.5405 107.723 79.6598C112.172 80.3668 117.667 80.369 122.376 80.9272C133.984 82.3029 145.979 82.0516 157.656 82.5832C159.12 82.6399 160.515 84.2171 161.91 84.3272C162.434 84.3684 163.984 83.0573 164.693 83.1054C169.637 83.2076 174.821 83.1772 179.737 83.2813C196.514 83.637 214.173 85.7839 230.917 85.3798C231.013 84.6775 231.939 81.9272 231.917 81.6905C231.778 79.6456 230.848 75.8845 229.873 74.1684C229.194 72.9741 222.147 72.8851 220.615 72.706C213.165 71.8355 205.757 71.9579 198.301 71.6336C189.039 71.2304 179.774 70.7586 170.52 70.2225C164.191 70.1013 158.205 70.6855 151.657 70.0162C146.886 69.5285 140.771 70.1608 135.747 69.9329C115.464 69.0127 95.2221 68.0155 74.9112 67.6595C71.4848 67.3013 66.934 68.6968 63.6426 68.3874C49.3608 67.044 35.3487 67.1332 21.0464 67.1699C18.7296 67.176 12.4603 67.851 13.2817 64.094C13.7503 63.0769 15.0718 62.4117 16.0496 61.9231C18.11 60.894 20.538 60.3291 22.7403 59.6734C30.069 57.4921 37.4479 56.1234 44.8147 54.1991C51.5318 52.444 57.9204 49.7896 64.4937 47.6256C70.348 45.6984 76.3357 44.2896 82.0554 41.9624C84.9582 40.781 93.7849 36.4158 96.5082 37.4035C102.023 39.4035 94.8418 54.7035 96.8575 58.7218C97.162 59.3291 97.5616 59.6703 98.1996 59.888C101.973 61.1772 130.548 44.2294 136.155 41.4222C137.081 40.9589 138.172 40.3949 139.224 40.7712C141.016 41.4127 141.925 43.2459 142.721 44.843C142.431 48.6374 140.585 58.2215 142.66 61.3269C143.161 62.0766 144.311 61.6934 145.036 61.5032C153.588 59.2582 186.476 40.5063 191.928 41.669C193.49 42.0022 194.17 43.118 194.984 44.3896C195.071 47.3301 194.244 58.0446 196.121 59.5513C200.078 59.3943 224.759 48.0076 230.217 46.1529C232.147 45.4968 236.464 43.0405 238.849 42.663C239.76 42.5187 239.702 42.6244 240.362 43.144C243.18 48.4848 237.867 68.9836 240.52 71.3522C242.853 72.6307 247.635 72.15 250.281 71.8563C250.592 66.8453 251.025 61.8377 251.316 56.8196C251.527 53.1794 251.02 46.9364 251.73 43.6073C253.011 42.0911 260.316 41.1911 260.965 44.4462C262.774 53.5146 258.764 62.5737 262.081 71.5095C264.625 72.4779 270.383 74.3601 271.601 70.5972C272.455 68.2601 271.929 65.3874 272.262 62.9991C273.067 57.2225 272.685 51.6693 272.62 45.8563C272.575 41.8449 273.944 39.206 278.431 40.2548C282.327 41.1652 282.03 45.4997 282.002 48.6516C282.109 51.1067 281.396 59.8646 282.435 61.5307C284.272 61.0525 289.286 52.2092 291.645 50.3399C307.42 37.838 329.725 39.6076 340.885 57.1193C342.472 59.6105 343.262 64.0633 345.241 66.1139L345.759 65.9677C348.02 63.8399 344.255 44.0117 346.604 40.0883C347.647 38.3465 350.944 38.0874 352.56 38.6889C355.617 39.8304 354.697 46.0067 354.871 48.4317C355.253 53.7275 354.921 59.206 357.115 64.0753C359.287 63.9858 363.372 63.9079 364.971 62.5111C365.518 60.8864 364.848 58.5693 365.107 57.063C366.239 50.4522 364.349 43.2522 364.671 36.9282C382.113 33.0301 371.576 50.7481 374.19 59.5956C374.848 61.813 388.379 60.1516 388.888 59.3212C390.826 56.1715 389.985 33.9959 392.15 32.263C394.521 32.6785 397.111 34.1468 399.162 35.0367C404.755 37.4614 431.27 51.6209 435.993 49.626C436.957 48.6813 437.659 37.481 438.295 34.0807C439.575 32.5633 440.248 31.9212 441.747 30.6136Z" fill="#23231C"/>
<path d="M310.593 56.0279C322.969 54.6712 334.094 63.6307 335.418 76.0218C336.743 88.4127 327.764 99.5256 315.383 100.822C303.044 102.113 291.988 93.1639 290.668 80.8158C289.348 68.468 298.261 57.3798 310.593 56.0279Z" fill="white"/>
<path d="M314.477 67.4371C316.516 67.2003 318.805 67.9842 320.537 69.0219C322.358 70.1187 323.667 71.8943 324.183 73.9586C325.675 80.1684 320.468 84.1434 315.069 85.4665C302.485 85.0076 300.781 71.8785 314.477 67.4371Z" fill="#23231C"/>
</g>
<defs>
<clipPath id="clip0_15_384">
<rect width="647.461" height="150" fill="white"/>
</clipPath>
</defs>
</svg>
