<svg width="582" height="505" viewBox="0 0 582 505" fill="none" xmlns="http://www.w3.org/2000/svg">
<g clip-path="url(#clip0_15_234)">
<path d="M0 0H582V505H0V0Z" fill="white"/>
<path d="M214.96 47.6024C218.761 51.7197 218.262 53.6101 219.161 58.7135C221.656 72.8814 230.288 83.4903 240.103 93.4608C242.985 96.6127 245.44 100.121 248.288 103.297C258.158 114.305 263.552 128.614 268.858 142.195C270.231 145.707 268.883 152.788 269.628 156.594C270.167 159.345 273.332 160.828 274.939 158.183C276.978 151.858 274.77 143.089 273.131 137.326C270.22 126.898 264.62 118.945 259.63 109.306C249.923 90.5604 233.477 70.8469 242.183 48.3001C243.714 44.3351 252.547 34.8702 256.775 33.7744C262.324 32.3364 272.249 31.4603 277.776 33.7298C280.268 34.9404 280.913 37.5086 281.747 39.9313C280.493 43.0628 279.212 46.6333 279.33 50.0575C279.752 62.2073 297.732 84.0834 302.748 96.6942C306.815 106.924 310.154 121.318 308.045 132.234C306.823 138.567 303.763 145.404 301.188 151.331C300.307 153.357 298.289 157.877 299.15 160.058C306.53 161.91 309.241 151.287 311.163 146.426C316.337 133.325 317.167 124.046 314.101 110.362C311.038 96.678 307.457 83.1041 310.614 69.0335C313.067 58.1071 317.92 55.2786 326.943 49.4121C333.033 45.2965 345.554 43.7713 352.519 45.4099C354.685 45.9191 362.377 48.8949 363.071 50.8782C365.043 56.5256 360.914 65.023 359.496 69.9787C358.902 72.1448 358.484 74.3566 358.257 76.5911C357.453 84.2028 357.913 90.7741 358.257 98.3616C358.615 102.811 357.919 108.187 358.294 112.537C359.612 127.789 355.799 141.025 348.518 154.298C345.028 160.663 340.126 165.967 338.08 173.23C338.981 173.739 340.515 174.529 341.553 174.608C344.011 174.861 345.233 170.675 346.654 169.655C353.073 165.045 354.776 158.967 357.714 151.852C360.613 144.831 363.716 137.365 365.174 129.751C368.456 112.638 366.765 94.1724 381.449 81.5764C387.581 76.0316 393.793 71.2695 402.575 71.831C410.182 72.3175 420.799 75.8579 425.843 81.8188C428.1 84.4853 432.519 89.502 432.098 93.0817C431.547 97.7946 425.539 100.106 422.28 103.036L422.03 103.263C420.342 105.376 419.213 106.972 417.815 109.308C415.059 114.818 413.263 120.403 411.799 126.319C410.904 129.945 409.367 134.179 408.832 137.661C406.749 151.267 403.191 162.39 394.799 173.533C392.105 177.108 389.59 181.907 386.51 185.358C383.111 189.821 378.854 192.178 374.361 195.384C372.824 196.481 368.712 198.965 369.377 201.203C370.082 201.696 371.13 201.848 371.937 201.64C382.728 198.855 392.114 186.773 398.534 178.223C401.375 174.439 402.359 169.623 404.496 165.825C409.671 156.543 414.948 147.526 423.345 140.72C425.309 139.129 427.941 136.579 430.168 135.536C435.659 132.968 443.462 129.852 449.26 128.6C456.881 126.955 464.81 127.841 471.133 132.448C477.729 136.765 484.89 147.744 480.141 155.53C477.544 159.787 472.702 160.551 468.973 163.116C460.454 168.977 452.479 178.817 446.486 187.238C443.389 191.591 441.638 196.803 439.089 201.432C434.261 210.574 427.298 216.24 419.313 222.361C411.433 228.401 405.894 230.193 396.544 232.845C394.549 233.411 391.227 234.252 389.397 235.09C388.047 235.708 387.9 236.998 388.064 238.363C389.207 239.673 394.853 238.229 396.425 238.038C410.145 236.37 420.845 228.559 430.18 218.878C434.454 214.445 438.813 209.974 442.564 204.963C449.277 197.559 456.518 192.095 466.049 188.945C480.124 184.293 494.143 186.455 504.51 197.635C509.367 202.565 511.683 209.924 511.032 216.634C510.307 224.104 506.778 233.686 497.607 231.706C486.652 229.341 474.887 232.897 466.092 239.943C453.125 250.334 442.32 265.334 426.963 272.825C420.182 276.253 414.223 279.039 406.422 279.613C402.407 280.185 389.795 277.636 387.559 278.861C386.902 279.636 386.805 279.682 386.618 280.642C386.882 281.471 387.198 282.115 388.042 282.436C400.02 286.98 413.629 284.784 424.761 278.915C427.156 277.652 430.456 276.894 432.843 275.426C435.849 274.193 439.737 270.904 442.562 269.793C447.992 267.658 455.952 263.181 461.553 262.213C472.849 260.469 484.967 258.057 495.595 263.459C503.888 267.674 510.137 272.539 513.237 281.647C517.071 292.911 510.472 312.836 497.792 315.558C491.381 313.265 491.21 309.84 487.371 305.853C477.47 295.566 457.831 303.384 447.361 308.502C426.861 318.522 410.171 331.896 386.104 323.251C382.446 321.938 376.305 318.261 372.747 318.647C371.718 319.335 371.71 321.449 372.386 322.197C376.998 327.315 385.484 329.179 392.012 330.384C399.838 331.072 410.247 330.373 418.034 328.722C423.183 327.63 427.855 325.954 432.874 324.57C436.77 323.532 440.649 323.385 444.605 322.904C457.768 321.31 468.243 324.035 478.414 332.658C485.171 338.387 491.003 343.92 489.497 353.94C488.366 361.451 482.273 376.982 472.77 376.201C469.385 375.911 465.06 372.447 461.874 371.202C456.134 368.843 450.095 368.46 444.011 367.959C432.246 366.993 422.703 370.952 411.62 372.154C396.649 373.487 380.014 372.558 366.171 366.286C362.244 364.507 354.884 357.731 352.451 354.489C348.936 349.808 343.244 338.25 341.445 352.431C343.096 353.278 344.247 353.815 345.162 355.484C349.075 362.622 356.836 367.172 363.915 370.886C370.329 374.251 379.533 375.655 386.564 377.249C398.002 379.978 410.6 383.379 420.558 389.876C425.855 393.332 433.096 402.207 435.139 408.382C439.242 420.847 427.352 448.45 410.995 440.038C409.401 439.216 407.255 436.235 406.28 434.743C401.813 427.9 396.465 422.549 389.349 418.431C383.77 415.203 377.18 414.435 371.102 412.514C363.068 409.698 354.707 406.026 347.404 401.65C343.087 398.95 338.91 394.789 335.059 391.618C328.58 386.289 323.627 380.597 319.64 373.188C317.687 369.557 316.025 365.495 313.7 362.139C313.086 361.326 309.554 361.679 308.446 361.781C308.21 364.299 308.244 366.359 308.915 368.809C310.552 374.803 317.446 385.067 321.527 390.004C324.266 393.32 327.588 396.205 330.669 399.203C332.985 401.459 335.176 403.849 337.571 406.023C342.863 410.823 348.484 415.546 352.371 421.631C356.208 427.636 358.578 434.937 361.622 441.405C363.526 446.509 362.647 451.286 360.402 456.154C359.479 458.152 358.248 460.187 356.776 461.823C354.474 466.118 347.611 471.787 342.78 472.858C339.899 473.575 333.88 472.137 331.618 470.144C325.747 464.969 325.795 455.273 320.58 448.899C315.01 442.09 309.833 436.619 303.368 430.731C299.258 426.465 295.146 421.725 290.599 417.911C286.05 414.1 284.139 410.963 281.153 406.111C277.054 399.453 275.063 393.65 273.963 385.923C273.514 382.763 273 379.56 273.201 376.337C273.643 372.458 274.402 370.747 273.848 366.666C272.216 366.504 270.619 366.533 268.981 366.53C268.475 369.596 268.484 373.012 268.469 376.127C268.397 385.579 270.049 394.966 273.342 403.824C277.422 414.893 283.267 426.905 283.89 438.975C284.194 444.86 283.534 459.283 280.787 464.358C273.861 477.161 258.614 484.791 244.313 479.844C240.571 478.531 239.213 471.244 239.646 467.882C240.03 462.764 242.691 457.291 242.826 452.204C243.288 434.794 233.476 418.349 228.094 402.667C222.482 386.315 223.127 369.073 233.578 354.89C233.912 354.435 233.804 354.199 233.631 353.778C229.853 351.272 227.419 355.762 225.615 358.817C218.167 371.429 216.327 388.762 217.148 403.173C217.574 410.653 221.189 418.499 219.839 426.479C219.257 439.79 210.845 457.814 196.537 460.724C190.008 462.054 176.43 458.49 170.886 454.602C163.964 449.49 164.981 446.952 169.76 441.228C184.588 423.478 179.37 404.284 176.744 384.13C176.253 380.398 176.157 376.627 176.458 372.873C177.133 365.092 181.084 348.416 185.601 341.746C188.877 336.906 193.735 333.019 197.162 328.503L197.451 328.116C196.682 327.38 195.543 326.133 194.544 325.931C190.709 325.152 187.453 331.294 185.911 334.033C184.194 337.085 181.658 340.703 180.103 343.752C178.361 347.171 176.065 353.105 175.052 356.851C172.069 367.885 170.698 379.986 166.402 390.646C163.607 397.583 159.544 404.267 153.326 408.652C144.335 414.995 135.941 417.911 124.918 416.103C116.709 414.756 110.151 409.348 105.603 402.642C103.066 398.902 102.645 396.776 103.489 392.382C105.312 391.43 107.591 390.643 109.536 389.603C119.795 384.115 125.788 373.569 130.5 363.378C131.762 360.65 133.044 355.512 134.074 352.545L140.342 334.457C143.905 323.927 157.277 305.504 167.146 299.453C170.162 297.359 173.793 296.964 177.064 295.563C178.584 294.912 177.901 290.928 177.061 289.731C175.663 288.964 174.4 289.487 172.98 289.615C166.547 290.194 164.191 293.613 159.368 296.793C154.135 299.882 150.333 302.423 146.224 307.004C138.517 315.595 133.853 324.294 125.88 332.894C114.579 345.085 97.0704 361.011 79.235 352.983C77.4222 352.167 75.2613 351.567 73.5664 350.408C68.8528 346.407 55.8143 333.237 61.4931 326.485C66.8715 320.091 80.6641 317.65 87.695 311.673C97.7092 303.162 105.982 293.582 114.63 283.745C117.351 280.65 119.589 277.159 122.465 274.203C131.684 266.267 144.523 257.21 156.269 253.742C160.078 252.815 164.426 252.196 168.355 252.3C171.3 252.378 179.146 253.827 177.662 248.22C174.535 244.626 151.661 248.635 147.233 250.377C130.219 257.073 115.753 267.606 98.4347 273.701C82.3217 279.372 65.394 285.716 53.8577 268.19C48.2057 259.603 46.4085 243.244 54.9078 235.792C57.8496 234.213 64.5617 234.739 67.6083 234.938C89.416 236.363 104.98 226.963 123.521 217.201C135.508 210.889 156.162 207.22 169.828 210.267C175.032 211.428 180.112 216.009 186.343 217.885C189.254 213.399 187.631 213.317 183.992 210.58C178.551 206.31 172.005 206.58 165.635 205.39C150.861 202.627 138.496 206.511 124.964 211.733C112.473 216.555 95.4807 216.793 83.0569 211.764C74.6753 207.81 69.796 204.46 65.9601 195.835C61.0864 184.878 65.5705 172.995 75.8973 167.258C76.7692 166.774 82.4377 169.762 84.0268 170.157C90.0361 171.652 96.3969 173.104 102.639 172.894C119.336 172.305 134.163 162.733 150.777 161.459C158.214 160.889 167.715 162.584 175.205 163.452C182.321 164.277 190.038 167.975 196.224 171.512C199.931 173.631 204.174 175.801 206.822 179.243C207.544 180.187 208.549 183.467 209.449 183.846C212.203 185.002 212.996 182.223 213.632 180.365C210.312 173.227 207.135 170.851 200.503 167.149C191.828 162.308 183.013 159.012 173.179 157.405C169.266 156.114 162.558 157.254 158.966 156.39C153.267 155.019 140.856 155.44 136.275 153.274C117.419 144.361 103.898 121.873 119.195 103.36C123.301 98.3917 125.456 94.1954 132.526 97.8446C140.256 112.798 157.692 115.221 173.065 117.421C183.12 118.859 191.571 119.147 201.112 123.591C213.907 129.55 225.01 138.659 233.168 150.179C236.174 154.479 239.132 162.376 241.013 167.353C242.943 167.008 246.095 166.894 245.69 164.414C243.248 149.463 230.185 136.936 219.646 127.069C216.441 124.068 214.951 121.58 212.082 119.287C203.915 112.762 195.136 107.584 188.872 99.0638C182.285 88.4727 175.852 73.3955 182.45 61.4321C189.473 48.6979 201.203 45.1163 214.96 47.6024Z" fill="#23241A"/>
<path d="M361.621 441.405C363.525 446.509 362.647 451.286 360.402 456.154C359.479 458.152 358.248 460.187 356.776 461.824C356.805 461.713 356.833 461.605 356.859 461.494C357.35 459.343 359.342 457.734 359.521 455.589C359.919 450.791 361.238 446.185 361.621 441.405Z" fill="#3B3B31"/>
<path d="M417.216 102.562C418.818 102.554 420.648 102.477 422.03 103.263C420.342 105.376 419.213 106.972 417.815 109.308C417.119 107.126 417.233 104.847 417.216 102.562Z" fill="#3B3B31"/>
<path d="M276.742 183.428C288.141 183.145 303.367 184.701 314.109 188.373C320.157 190.438 331.081 196.28 336.295 199.944C340.138 202.644 343.428 205.782 346.668 209.159C349.106 211.701 351.53 214.233 353.61 217.086C359.558 225.25 363.363 235.897 365.083 245.82C368.555 265.847 365.728 284.679 353.789 301.429C350.933 305.436 347.839 309.892 344.471 313.47C342.084 316.01 339.168 317.863 336.486 320.063C334.403 321.773 332.644 323.842 330.447 325.431C327.332 327.679 323.752 329.404 320.288 331.044C311.06 335.406 302.379 338.217 292.316 339.922C289.838 340.254 287.362 340.555 284.867 340.709C277.004 341.195 267.853 341.05 260.269 338.87C255.978 337.637 251.859 335.736 247.79 333.92C240.225 330.549 234.337 327.108 228.148 321.586C219.784 314.126 210.837 302.921 206.939 292.3C204.864 286.645 203.333 277.367 202.992 271.337C201.946 252.831 203.582 237.478 212.82 221.152C215.249 216.86 217.908 212.582 221.226 208.918C223.521 206.383 226.275 204.257 228.802 201.959C232.379 198.705 235.899 195.146 240.01 192.561C249.296 186.721 265.867 183.934 276.742 183.428Z" fill="white"/>
<path d="M282.078 204.171C290.648 203.933 300.568 204.926 308.204 209.023C317.159 213.829 328.691 222.411 334.337 230.975C336.688 234.541 338.543 239.122 339.984 243.149C341.476 247.32 342.28 251.826 343.57 256.086C342.255 259.998 342.982 263.92 342.635 267.943C342.311 271.71 340.354 278.728 338.899 282.2C337.165 286.341 332.479 294.364 329.739 297.936C327.983 300.226 325.795 301.997 323.641 303.887C321.785 305.512 319.949 307.217 317.9 308.596C316.025 309.86 313.84 310.761 311.782 311.696C303.18 315.601 297.783 316.428 288.653 317.675C286.001 318.059 283.256 318.105 280.579 318.241C268.352 318.866 255.171 313.623 246.175 305.419C241.14 300.826 236.029 295.31 233.46 288.924C232.377 286.23 231.666 283.308 230.8 280.532C229.09 275.053 227.906 270.224 227.65 264.452C227.179 253.89 229.673 240.6 234.915 231.251C236.543 228.347 238.684 225.763 240.937 223.325C251.21 212.213 267.014 204.82 282.078 204.171Z" fill="#23241A"/>
<path d="M280.317 231.989C287.041 231.679 294.998 231.563 300.924 235.125C308.244 239.525 311.353 244.55 313.351 252.765C315.027 259.668 314.701 267.251 310.904 273.409C305.743 281.784 298.15 286.156 288.798 288.308C288.488 288.379 288.178 288.441 287.868 288.498C280.289 289.922 271.404 288.887 264.99 284.269C260.24 280.847 256.946 272.23 255.969 266.667C254.679 259.32 256.517 250.052 260.883 243.947C265.913 236.912 271.837 233.418 280.317 231.989Z" fill="white"/>
<path d="M296.453 364.37C297.062 364.151 297.38 364.188 298.022 364.271C299.233 364.427 300.401 363.745 301.5 364.046C301.81 364.635 301.799 364.683 301.586 365.345C301.293 366.249 300.762 366.8 300.628 367.789C300.486 368.232 300.367 368.679 300.267 369.133C298.883 375.223 300.25 378.693 302.401 384.386C307.099 396.804 315.36 406.552 324.641 415.842C329.592 420.796 334.605 425.624 338.398 431.563C342.905 438.625 346.892 448.43 345.048 456.91L341.627 457.373C337.841 448.376 333.147 438.236 326.324 431.1C323.078 427.707 318.895 425.11 315.206 422.211C308.454 416.905 301.404 409.988 296.667 402.809C290.207 393.019 285.316 379.256 287.729 367.539C290.443 365.896 293.416 365.155 296.453 364.37Z" fill="white"/>
<path d="M296.453 364.37C297.062 364.151 297.38 364.188 298.022 364.271C299.233 364.427 300.401 363.745 301.5 364.046C301.81 364.635 301.799 364.683 301.586 365.345C301.293 366.249 300.762 366.8 300.628 367.789C300.494 367.218 300.361 366.601 300.034 366.107C299.201 364.836 297.849 364.603 296.453 364.37Z" fill="#3B3B31"/>
<path d="M479.317 274.355C485.47 273.43 490.744 275.183 496.465 277.151C497.439 279.328 498.241 281.675 498.798 283.994C499.289 286.043 499.923 289.393 498.644 291.229C497.96 292.218 496.337 292.71 495.217 292.903C490.852 293.656 487.544 290.243 484.239 288.015C480.269 285.338 476.237 284.795 471.517 284.909C457.438 285.244 451.141 290.436 439.35 296.674C435.602 298.658 431.592 300.306 427.69 301.971C420.702 304.955 413.334 306.515 405.905 307.982C400.602 308.854 388.729 308.667 384.038 305.745C382.742 304.935 381.832 303.767 381.554 302.244C381.315 300.931 381.659 299.706 382.469 298.658C386.425 293.542 390.599 298.675 395.001 299.601C397.749 300.178 401.063 299.786 403.842 299.487C416.082 298.174 428.185 293.15 439.001 287.424C443.576 285.002 447.864 282.198 452.684 280.244C461.386 276.718 470.039 275.286 479.317 274.355Z" fill="white"/>
<path d="M158.409 175.764C161.552 175.691 164.695 175.697 167.836 175.785C170.327 175.869 172.789 176.038 175.221 176.611C179.925 177.719 189.91 181.873 193.906 184.521C196.532 186.261 198.777 188.422 200.917 190.719C200.808 192.293 200.661 193.869 199.812 195.241C199.293 196.079 198.569 196.713 197.588 196.926C194.462 197.604 189.288 192.14 186.644 190.509C178.591 185.539 169.43 183.957 160.104 185.331C156.889 185.805 153.717 186.669 150.523 187.274C146.998 187.942 143.39 188.191 139.886 188.954C136.016 189.797 132.258 191.129 128.393 192.027C124.934 192.715 121.431 193.238 117.959 193.861C106.629 195.893 95.4801 197.521 84.8885 191.681C83.1584 190.727 81.4379 189.419 80.9335 187.41C80.6729 186.373 80.6283 185.106 81.166 184.158C83.7091 183.203 88.5771 185.767 91.197 186.429C93.0001 186.885 94.9299 187.178 96.789 187.146C110.382 186.91 119.016 183.163 131.711 179.768C140.631 177.383 149.185 176.032 158.409 175.764Z" fill="white"/>
<path d="M128.496 115.464L128.89 115.41C129.626 115.311 130.739 115.064 131.397 115.494C132.545 116.243 133.117 118.231 133.866 119.36C136.316 123.052 142.678 125.84 146.623 127.465C158.157 132.217 169.024 133.235 180.939 136.09C189.405 138.119 196.828 141.108 204.546 145.091C208.476 147.119 212.491 149.095 216.006 151.807C219.789 154.726 226.873 161.875 228.905 166.194C229.67 167.822 229.897 169.424 230.115 171.186C229.187 171.959 228.16 172.536 227.123 173.148C226.699 173.304 226.151 173.544 225.686 173.515C221.949 173.289 212.851 163.14 209.918 160.467C207.498 158.261 204.992 156.166 202.199 154.444C195.698 150.437 189.399 147.744 181.998 145.865C176.401 144.444 170.65 143.79 164.968 142.807C152.224 140.602 138.729 136.61 129.8 126.676C127.88 124.541 126.243 121.93 126.485 118.936C126.608 117.407 127.365 116.426 128.496 115.464Z" fill="white"/>
<path d="M480.463 207.003C484.009 206.81 487.809 207.42 491.125 208.689C492.827 209.341 494.871 210.347 495.587 212.132C496.129 213.48 495.697 214.64 495.115 215.885C493.12 217.374 485.001 214.132 481.881 214.237C477.877 214.373 473.625 215.929 470.05 217.64C464.776 220.164 457.347 225.536 452.994 229.576C450.07 232.289 447.438 235.308 444.554 238.063C436.375 245.876 425.61 255.083 414.57 258.185C411.205 259.13 407.636 259.335 404.172 259.685C400.509 260.095 391.583 261.549 388.53 259.627C387.968 259.272 387.786 258.939 387.704 258.283C387.488 256.62 387.846 253.506 389.076 252.326C389.829 251.604 391.483 251.364 392.5 251.165C401.321 249.435 409.685 249.535 418.256 245.711C421.191 244.4 423.885 242.33 426.531 240.511C434.096 235.308 438.717 230.176 445.335 224.09C455.333 214.9 466.796 208.46 480.463 207.003Z" fill="white"/>
<path d="M329.742 352.488C330.768 352.417 331.649 352.312 332.635 352.69C334.587 354.577 335.292 357.902 336.852 360.193C341.97 367.698 348.97 374.109 356.305 379.452C360.749 382.689 366.487 384.706 371.534 386.841C385.234 392.63 403.564 399.177 414.044 410.022C415.888 411.929 417.304 414.131 418.773 416.331C419.799 417.868 421.058 419.474 421.768 421.173C421.734 422.188 421.438 423.049 420.853 423.887C420.333 424.635 419.617 425.385 418.659 425.456C418.17 425.493 417.883 425.038 417.545 424.723C413.925 420.997 410.719 416.74 406.763 413.367C404.405 411.355 401.731 409.956 399.008 408.507C396.158 406.99 393.31 405.438 390.315 404.222C383.123 401.3 375.561 399.325 368.385 396.287C352.971 389.762 339.194 380.856 329.052 367.294C327.46 365.166 325.335 362.793 324.397 360.295C323.871 358.9 323.806 357.345 324.508 356.001C325.542 354.017 327.725 353.119 329.742 352.488Z" fill="white"/>
<path d="M362.647 330.765C365.026 331.038 370.093 336.906 373.1 338.475C380.008 342.084 390.307 343.892 398.008 344.753C406.266 345.674 414.163 344.722 422.393 344.224C426.667 343.966 430.961 344.113 435.233 343.855C443.545 343.355 450.965 341.993 459.203 344.497C462.511 345.5 472.503 349.985 474.063 353.142C474.378 353.773 474.503 354.537 474.228 355.211C473.892 356.029 473.239 356.62 472.437 356.984C470.872 357.695 469.689 357.001 468.226 356.399C463.773 354.412 458.714 351.846 453.858 351.15C447.739 350.275 440.842 351.542 434.732 352.244C420.583 353.867 399.079 356.345 385.422 352.946C377.112 350.877 360.763 345.512 356.455 337.79C356.009 336.986 355.728 336.159 356.052 335.252C356.836 333.047 360.621 331.552 362.647 330.765Z" fill="white"/>
<path d="M251.308 360.434C251.895 360.488 252.49 360.542 253.069 360.659C254.216 360.883 255.401 361.324 256.049 362.358C257.916 365.336 254.429 374.749 253.729 378.392C253.296 380.643 253.16 382.913 253.211 385.198C253.362 391.936 255.714 404.31 257.786 410.837C258.808 414.057 260.252 417.166 261.458 420.321C262.918 424.143 264.146 428.042 265.356 431.95C266.232 434.772 267.17 437.588 267.387 440.558C267.586 443.28 267.251 446.034 266.729 448.705C265.215 456.447 263.343 463.233 256.503 467.823C255.635 468.181 254.838 468.453 253.907 468.235C253.747 468.056 253.534 467.911 253.427 467.695C253.19 467.209 256.986 455.27 257.263 453.551C257.807 450.169 257.736 446.628 257.402 443.232C256.678 436.113 254.972 429.131 252.333 422.483C250.847 418.69 249.107 414.978 247.735 411.147C245.906 406.038 244.61 400.658 243.567 395.335C242.794 391.393 242.138 387.284 242.017 383.263C241.872 378.412 243.233 367.07 246.046 363.145C247.491 361.13 249.008 360.769 251.308 360.434Z" fill="white"/>
<path d="M457.765 142.767C458.91 142.699 459.936 142.686 461.062 142.962C462.451 143.302 464.759 144.31 465.435 145.663C465.62 146.032 465.699 146.462 465.526 146.845C464.657 148.773 454.662 151.162 452.275 152.419C449.342 153.963 446.637 156.258 444.318 158.603C439.657 163.314 436.179 169.024 432.701 174.621C430.396 178.329 428.054 182.031 425.86 185.807C424.249 188.576 422.828 191.438 421.069 194.121C416.298 201.394 409.372 208.84 402.123 213.662C397.565 216.696 392.034 219.295 386.993 221.446C386.024 221.75 385.035 222.08 384.026 222.218C383.066 222.349 382.108 222.273 381.338 221.624C379.656 220.204 379.849 216.323 379.707 214.271C382.719 211.952 386.507 211.003 389.787 209.151C394.35 206.576 398.619 202.929 402.742 199.689C412.853 191.74 419.444 179.928 425.829 168.971C427.938 165.35 429.958 161.5 432.459 158.132C434.184 155.807 436.247 153.853 438.384 151.914C444.477 146.382 449.513 143.986 457.765 142.767Z" fill="white"/>
<path d="M341.143 58.4948C341.388 58.5073 341.632 58.5138 341.874 58.5405C342.763 58.6385 342.996 58.9014 343.505 59.569C342.687 64.1916 339.504 67.6842 339.058 73.5831C338.529 80.5653 339.475 87.6685 340.027 94.6177C341.718 115.828 343.084 131.753 333.201 151.393C331.626 154.52 329.995 157.739 328.046 160.651C326.346 163.184 323.237 166.912 320.083 167.518C317.815 165.906 316.576 164.077 315.388 161.608C319.549 159.051 322.203 153.447 323.936 149.052C328.441 137.646 330.836 124.585 330.765 112.336C330.683 98.722 328.495 85.4359 332.661 72.1593C334.175 67.3384 336.386 60.9851 341.143 58.4948Z" fill="white"/>
<path d="M200.188 60.0421C201.184 60.1447 202.147 60.2428 202.988 60.8373C205.116 62.3409 206.084 72.8624 207.459 76.4823C208.698 79.7428 210.646 82.5173 212.623 85.3637C216.697 91.2271 221.523 97.1595 226.505 102.274C229.022 104.858 231.842 107.161 234.285 109.811C242.897 119.152 251.67 131.424 256.252 143.363C257.328 146.166 257.938 149.174 258.737 152.065C259.338 154.237 260.265 156.392 260.653 158.61C260.878 159.894 260.898 161.332 260.078 162.424C259.244 163.535 258.086 163.524 256.825 163.659L253.558 163.295C252.293 160.314 251.654 157.161 250.814 154.043C248.81 146.601 246.472 139.153 242.315 132.608C229.407 112.288 200.197 95.3151 196.362 71.0134C195.978 68.5819 196.469 62.7354 198.052 60.8381C198.674 60.093 199.292 60.1586 200.188 60.0421Z" fill="white"/>
<path d="M410.245 85.8372C411.205 85.9048 411.864 85.9653 412.558 86.6994C413.123 90.1022 406.383 93.5847 404.217 95.9204C402.373 97.9108 400.932 100.262 399.65 102.641C393.95 113.212 392.577 125.904 390.136 137.508C387.985 147.754 384.518 158.663 379.195 167.759C376.243 172.806 368.598 182.335 364.034 185.794C362.358 187.064 360.837 187.817 358.802 188.341C357.609 187.445 357.046 186.199 356.697 184.768C356.461 183.794 356.376 182.892 356.773 181.951C358.166 178.659 365.435 171.315 368.064 167.314C374.62 157.373 379.261 146.294 381.744 134.647C382.548 130.895 382.853 127.048 383.486 123.265C384.728 115.881 387.192 106.704 391.048 100.308C395.416 93.0575 401.932 87.9231 410.245 85.8372Z" fill="white"/>
<path d="M168.517 266.959C169.953 266.862 171.669 266.623 173.019 267.214C174.347 267.796 175.441 268.942 175.904 270.319C176.257 271.367 176.189 272.114 175.714 273.094C174.321 274.315 164.864 276.055 161.96 277.069C157.057 278.783 152.002 281.009 147.807 284.081C144.558 286.46 142.228 289.768 139.455 292.641C136.552 295.651 133.076 298.095 130.302 301.238C126.147 305.95 122.527 311.142 118.409 315.894C111.119 324.3 99.1483 334.281 87.8803 335.909C85.7677 336.088 83.4892 336.42 81.4254 335.787C80.7127 335.568 80.3205 335.267 79.9522 334.61C79.8545 333.934 80.2032 333.053 80.7408 332.607C82.0634 331.507 87.4986 330.18 89.4532 329.316C91.7312 328.31 93.812 326.829 95.8225 325.371C100.777 321.782 106.324 317.457 110.348 312.85C115.441 307.018 119.766 299.53 124.43 293.235C132.962 281.721 154.431 269.023 168.517 266.959Z" fill="white"/>
<path d="M211.668 339.632L212.687 339.683C213.037 340.027 213.244 340.308 213.365 340.783C214.599 345.622 209.179 352.21 207.462 356.657C206.094 360.204 205.118 364.092 204.447 367.82C203.358 373.862 202.716 380.182 202.809 386.326C202.945 395.369 204.621 404.378 204.258 413.443C204.066 418.255 203.083 423.012 202.132 427.721C201.395 431.367 200.731 435.243 198.883 438.52C197.432 441.095 195.201 443.371 192.308 444.204C191.315 444.178 190.138 444.255 189.33 443.616C188.946 441.064 192.072 433.339 192.787 430.176C193.491 427.053 194.013 423.887 194.349 420.702C195.017 415.026 195.349 409.317 195.344 403.605C195.2 387.651 193.267 374.649 197.891 358.99C198.925 355.486 200.02 352.088 201.997 348.981C204.271 345.409 207.328 340.592 211.668 339.632Z" fill="white"/>
<path d="M176.888 311.02C176.826 309.34 175.867 308.027 175.782 306.402C177.422 305.433 184.09 308.101 186.277 308.365L186.752 308.419C186.692 310.306 186.493 312.06 186.01 313.893C176.136 317.675 168.306 328.145 164.129 337.512C159.633 347.592 158.485 358.007 155.257 368.366C154.188 371.799 152.665 374.956 151.082 378.167C147.286 385.869 142.48 394.13 134.028 397.424C132.441 398.043 130.18 398.95 128.493 398.455C127.983 397.967 127.765 397.847 127.74 397.094C127.648 394.286 133.715 390.18 135.443 388.08C137.263 385.866 138.906 383.334 140.203 380.779C142.604 376.053 143.657 370.457 145.285 365.41C146.629 361.244 148.605 357.285 150.041 353.139C153.313 343.698 157.096 331.103 163.346 323.223C166.419 319.346 170.7 315.7 174.606 312.674C175.349 312.1 176.11 311.548 176.888 311.02Z" fill="white"/>
<path d="M176.888 311.02C176.826 309.34 175.867 308.027 175.782 306.402C177.422 305.433 184.09 308.101 186.277 308.365L186.752 308.419C182.83 308.505 180.286 308.931 176.888 311.02Z" fill="#3B3B31"/>
<path d="M159.195 225.484C165.966 225.284 174.522 225.137 180.109 229.457C180.02 230.684 180.045 231.929 179.455 233.034C177.729 234.751 168.39 232.499 165.607 232.388C162.721 232.273 159.649 232.618 156.78 232.938C149.182 233.787 141.41 235.63 134.396 238.739C131.489 240.027 128.74 241.679 125.82 242.931C122.415 244.392 118.78 245.301 115.374 246.772C105.402 251.079 99.46 254.536 88.7573 257.407C81.53 258.971 74.7228 259.215 67.512 257.519C67.5793 255.852 67.7837 254.25 68.0465 252.604C72.7759 252.74 77.6205 252.959 82.2956 252.114C93.0032 250.177 102.707 244.885 112.288 240.02C127.393 232.352 142.071 226.675 159.195 225.484Z" fill="white"/>
<path d="M262.519 49.043C263.403 49.5727 263.93 50.425 264.535 51.2377C265.553 58.3961 264.252 65.0276 266.379 72.3361C269.305 82.3892 275.533 90.5399 280.895 99.3207C285.257 106.465 288.925 114.905 290.614 123.094C292.702 133.235 293.046 143.191 291.739 153.438C291.469 155.547 291.466 158.008 290.275 159.818C289.448 160.307 289.005 160.212 288.059 160.217C287.519 160.115 286.979 160.005 286.445 159.887C285.581 159.08 285.467 158.113 285.433 156.965C285.365 154.699 285.91 152.279 286.152 150.021C286.641 145.418 286.572 140.773 285.942 136.188C285.154 130.279 283.85 124.041 281.536 118.535C279.157 112.871 275.541 107.602 272.386 102.333C266.805 93.0118 260.697 81.0782 258.507 70.4093C256.946 62.811 258.228 55.4772 262.519 49.043Z" fill="white"/>
<path d="M115.953 176.222C117.981 176.14 120.006 176.563 121.943 177.145C123.009 177.465 124.133 177.849 124.692 178.875C124.5 179.793 124.113 179.961 123.43 180.58C121.834 180.837 119.883 179.875 118.378 179.34C117.373 178.983 115.44 178.347 114.962 177.34C115.197 176.642 115.328 176.637 115.953 176.222Z" fill="#13120D"/>
<path d="M275.366 60.4076L275.564 60.4872C275.861 60.7662 275.936 60.9279 276.02 61.3326C276.376 63.0392 276.851 65.8674 275.926 67.3474C275.217 66.2411 274.393 65.0756 274.201 63.7474C274 62.3614 274.567 61.4793 275.366 60.4076Z" fill="#3B3B31"/>
<path d="M370.326 299.405C370.914 299.709 371.576 300.243 371.806 300.891C372.238 302.11 371.491 303.466 371.002 304.563C370.184 304.034 369.311 303.517 369.138 302.463C368.95 301.306 369.715 300.297 370.326 299.405Z" fill="#3B3B31"/>
<path d="M431.635 306.666C433.263 306.55 436.67 306.254 437.978 307.254L437.389 307.888C436.199 308.343 434.931 308.417 433.664 308.326C432.735 308.26 432.161 308.101 431.538 307.425L431.635 306.666Z" fill="#3B3B31"/>
<path d="M141.865 115.694C142.268 115.643 142.679 115.596 143.086 115.611C144.081 115.645 145.378 115.832 146.011 116.687C146.303 117.081 146.111 117.298 146.01 117.737C145.656 117.834 145.302 117.929 144.942 118.003C143.959 118.203 143.287 118.139 142.442 117.606C141.922 116.881 141.87 116.586 141.865 115.694Z" fill="#3B3B31"/>
</g>
<defs>
<clipPath id="clip0_15_234">
<rect width="582" height="505" fill="white"/>
</clipPath>
</defs>
</svg>
