<svg width="256" height="282" viewBox="0 0 256 282" fill="none" xmlns="http://www.w3.org/2000/svg">
<g clip-path="url(#clip0_15_196)">
<path d="M0 0H256V138.5V282H0V0Z" fill="white"/>
<path d="M33.058 75.4632C35.683 74.9012 56.4713 91.7382 60.2463 93.8712C61.4738 94.5647 63.6008 95.646 64.8608 96.352L76.402 102.875C79.0985 104.381 81.4035 106.157 84.0293 107.618C84.117 111.01 83.667 112.966 83.4875 116.073C83.304 119.253 84.4778 120.195 82.806 123.921C81.8945 125.952 81.7758 129.552 81.8098 131.799C79.1908 131.759 78.0678 133.197 76.5053 132.705C74.621 130.924 73.9223 132.42 71.6308 132.733C70.9625 132.824 70.0043 132.819 69.3125 132.813L39.224 132.914C33.1393 132.944 25.2295 133.111 19.1944 132.721C18.8906 132.339 18.6129 131.937 18.3632 131.517C16.6883 128.692 15.9375 114.447 16.3469 111.041C16.6975 108.124 18.5888 98.1902 19.2333 95.523C20.3586 90.8665 29.093 77.8302 33.058 75.4632Z" fill="#2D2D26"/>
<path d="M29.6725 93.8329C40.1702 93.4384 49.7687 103.679 42.6355 113.577C41.4227 115.26 38.6532 117.312 36.6917 118.088C35.204 118.145 34.5372 118.368 33.1002 118.646C22.8299 120.631 21.5687 109.34 21.8665 102.693C21.9971 102.479 22.1297 102.266 22.2642 102.055C23.5672 100.007 26.1232 96.1132 27.9205 94.3974C28.1382 94.1899 29.2955 93.9169 29.6725 93.8329Z" fill="white"/>
<path d="M31.9553 101.218C34.586 101.492 35.5978 102.424 36.8305 104.639L36.8898 108.652C35.6628 108.831 34.3925 108.919 33.3285 109.537C32.5638 108.759 28.1248 108.849 28.7235 105.27C29.0838 103.118 30.3138 102.388 31.9553 101.218Z" fill="#2D2D26"/>
<path d="M199.292 96.632L199.555 96.5565C201.274 97.0868 202.99 96.979 204.1 98.4815C205.369 100.311 205.927 103.126 206.56 105.228C209.519 114.948 211.269 124.334 210.807 134.523C210.574 139.673 211.089 143.979 209.335 149.035C208.796 150.59 209.052 153.263 207.691 154.371C207.129 154.576 206.104 154.909 205.513 154.799C197.791 153.534 190.539 150.633 183.16 148.236C176.153 145.96 168.413 144.317 161.229 142.392C154.191 140.924 147.184 139.309 140.213 137.549C140.152 137.435 140.09 137.321 140.029 137.207L139.939 137.019C139.437 135.99 138.594 130.535 138.473 129.271C139.236 128.504 139.318 128.483 139.15 127.463C137.327 125.512 138.349 124.676 139.438 122.47C141.177 121.609 143.683 120.877 145.68 119.972L165.758 110.834C173.373 107.412 180.522 103.142 188.356 100.153C191.046 99.1265 193.895 98.126 196.634 97.2258C197.402 96.9735 198.055 97.0543 199.118 96.6923L199.292 96.632Z" fill="#2D2D26"/>
<path d="M192.639 117.756C193.036 117.759 193.431 117.81 193.816 117.908C197.612 118.835 201.205 122.175 203.183 125.486C202.475 127.275 202.701 127.608 202.519 129.371C202.121 133.234 198.571 136.981 195.21 138.653C193.884 139.313 192.838 139.257 191.436 139.255C188.281 139.162 184.741 137.381 182.964 134.734C180.348 130.835 180.59 127.604 181.375 123.279C184.514 120.571 188.774 119.239 192.639 117.756Z" fill="white"/>
<path d="M194.281 124.487C194.736 124.585 196.015 125.251 196.506 125.492C197.7 128.275 199.267 130.818 195.367 131.995C190.99 130.952 188.83 126.275 194.281 124.487Z" fill="#2D2D26"/>
<path d="M121.373 156.298C121.909 156.314 123.672 157.243 124.266 157.528C127.752 164.748 132.946 171.068 137.186 177.813C142.422 186.141 146.926 194.659 151.594 203.299C153.926 207.617 156.604 211.402 157.959 216.175C157.717 216.956 157.273 218.229 156.823 218.86C154.41 222.247 140.815 227.105 137.316 227.708C132.408 228.066 128.618 229.011 123.688 229.233C117.604 229.507 112.52 228.171 106.73 228.026C106.299 227.711 105.894 227.362 105.52 226.982C104.226 225.678 103.386 224.196 103.239 222.351C102.912 217.183 104.461 212.167 105.015 207.012C105.494 202.563 104.476 197.859 106.209 193.786C106.342 193.474 105.346 192.556 105.392 192.369C106.53 187.802 107.459 183.18 108.152 178.524C108.75 173.327 108.521 167.655 108.546 162.391C112.004 156.842 116.049 158.466 121.139 156.396L121.373 156.298Z" fill="#2D2D26"/>
<path d="M125.436 203.017C128.551 202.71 132.846 204.237 135.742 205.425C144.069 208.84 145.253 220.244 135.576 222.963C132.804 223.326 129.395 223.224 126.558 223.213C124.269 220.653 120.427 219.176 119.315 215.905C117.248 209.826 119.821 205.331 125.436 203.017Z" fill="white"/>
<path d="M128.186 208.854C129.001 208.792 130.833 208.598 131.48 209.079C135.275 211.901 134.868 215.882 130.297 217.094C128.347 217.411 126.257 216.801 125.492 214.814C125.145 213.902 125.18 212.889 125.59 212.003C125.904 211.316 127.375 209.16 128.186 208.854Z" fill="#2D2D26"/>
<path d="M139.719 141.996C139.84 141.995 139.961 141.995 140.082 142.003C142.928 142.17 148.515 144.495 151.534 145.443C155.287 146.622 159.142 147.509 162.872 148.726C169.154 150.777 197.192 160.428 199.858 163.589C200.709 164.598 200.758 166.306 200.632 167.548C199.997 173.802 193.789 188.072 190.133 193.142C188.683 195.154 186.757 196.96 184.847 198.529C179.217 203.427 177.422 205.67 170.131 207.245C161.987 204.188 149.636 182.139 144.97 174.12C144.132 172.68 142.039 170.237 141.392 168.877C138.798 163.428 134.963 159.288 132.306 153.869C133.378 151.789 134.256 150.8 135.883 149.193C135.949 148.724 136.025 148.257 136.111 147.791C136.592 145.216 137.575 143.465 139.719 141.996Z" fill="#2D2D26"/>
<path d="M174.074 171.111C174.509 171.095 174.945 171.08 175.381 171.068C180.591 170.926 184.307 172.806 188.037 176.345C188.244 179.164 190.606 180.935 190.08 183.405C189.399 186.601 184.096 192.223 181.587 193.937C178.266 194.799 174.043 192.577 170.001 191.944C168.814 190.649 166.691 187.293 166.308 185.58C164.563 177.775 166.893 173.439 174.074 171.111Z" fill="white"/>
<path d="M177.863 177.023C183.881 177.141 183.575 184.525 177.648 186.082L177.46 186.046C174.583 185.479 174.47 184.443 172.888 182.054C174.202 180.571 176.269 178.104 177.863 177.023Z" fill="#2D2D26"/>
<path d="M112.243 29.3225C118.603 28.8067 124.139 29.23 130.856 31.196C137.377 33.2982 144.453 36.756 149.509 41.3445C150.529 42.2697 147.033 48.1762 146.447 49.4825C141.718 60.0565 136.518 70.414 130.865 80.524C129.712 82.6247 127.775 85.3282 126.847 87.3847C125.887 89.5157 124.795 93.1567 124.039 95.4562C121.805 99.286 122.559 99.714 119.195 103.587C115.028 101.119 109.755 101.613 105.28 100.478C105.212 100.461 104.752 100.258 104.748 100.247C103.525 96.7 103.524 93.7877 101.919 90.303L102.123 90.0107C103.956 87.361 102.4 88.2885 102.248 85.5517C102.204 84.747 103.135 83.417 103.022 82.7147C102.269 77.9295 101.772 73.0705 101.056 68.2842C100.486 64.473 99.2078 61.3207 99.7843 57.4417C100.491 52.691 98.4633 47.5007 97.6268 42.8417C96.7565 37.994 97.2553 36.503 101.488 33.7347C105.587 30.8095 107.378 30.2112 112.243 29.3225Z" fill="#2D2D26"/>
<path d="M119.017 39.7575C125.273 39.528 125.804 39.836 130.947 43.189C138.294 47.9792 134.071 60.5737 126.843 61.1227C123.714 61.4345 124.587 62.8885 120.511 61.3355C110.642 57.5745 108.207 44.655 119.017 39.7575Z" fill="white"/>
<path d="M122.164 45.6964C122.545 45.6374 125.956 46.2034 126.692 46.2934C126.806 46.4714 126.911 46.6552 127.006 46.8439C128.842 50.4404 128.1 51.9027 124.749 53.5207C122.98 54.9059 115.565 49.2504 122.164 45.6964Z" fill="#2D2D26"/>
<path d="M80.5773 138.353C83.2915 137.735 86.4398 137.819 88.3068 139.986C94.9505 147.697 86.6943 149.187 82.0798 153.681C79.3923 156.299 76.9753 158.913 73.9038 161.171C71.7443 162.81 69.9533 165.397 67.4255 166.799C66.3143 167.701 64.154 168.685 63.1708 169.625C58.042 174.531 53.7755 177.874 47.456 181.02C45.1133 182.186 42.5875 185.476 39.564 186.953C37.9963 187.709 36.254 188.029 34.52 187.879C31.2283 187.573 29.609 185.945 27.6815 183.607C26.2095 181.92 23.6812 179.01 22.5611 177.195C19.6589 172.491 16.1337 164.562 14.7597 159.377C13.8871 156.084 14.179 144.704 14.8687 141.421C21.0648 139.339 23.4051 140.181 29.8043 140.008C32.5958 140.037 35.6238 139.467 38.389 139.59C47.2723 139.984 56.1605 140.063 65.0515 140.094C70.1558 140.111 75.4685 138.953 80.5773 138.353Z" fill="#2D2D26"/>
<path d="M23.4104 147.013C27.0168 147.181 31.3318 146.631 34.741 147.952C40.609 150.225 44.5075 159.542 42.2813 165.413C41.1223 168.47 39.0898 168.975 36.3333 170.19C31.0155 172.736 24.0887 170.946 20.0214 166.893C19.7882 165.153 19.7405 163.016 19.2873 161.343C17.6037 155.126 19.2092 151.759 23.4104 147.013Z" fill="white"/>
<path d="M31.4303 155.111C32.4043 155.15 33.5858 155.106 34.5768 155.095C36.7108 159.526 37.1315 160.96 32.3173 162.881C29.9435 162.865 27.7653 160.87 27.6695 158.466C27.6283 157.58 27.9448 156.715 28.548 156.066C29.4555 155.106 30.1788 155.148 31.4303 155.111Z" fill="#2D2D26"/>
<path d="M161.512 48.7375C168.462 49.8238 174.853 54.674 179.869 59.3193C181.315 60.8463 184.255 62.665 185.505 64.2733C189.349 69.2148 194.962 73.971 198.709 78.7845C198.847 80.0728 198.875 81.8771 198.93 83.2103C194.291 89.4073 165.047 102.926 156.927 106.763C152.851 108.982 148.639 110.654 144.633 112.957C142.663 114.09 140.878 115.203 138.788 116.116C135.534 112.965 132.263 109.576 129.064 106.351C129.577 98.9158 135.535 93.9286 139.191 87.8203C144.123 79.5783 148.168 71.0668 153.7 63.155C155.901 60.0068 157.606 50.4175 161.512 48.7375Z" fill="#2D2D26"/>
<path d="M169.012 64.8611C174.317 64.6001 175.856 66.3593 180.043 69.4328C181.14 75.0313 180.369 80.2936 176.098 84.6548C174.093 86.7023 170.551 88.3961 167.638 88.3023C165.372 87.5731 165.134 87.2866 162.773 87.2281C159.54 85.0196 157.526 81.6366 155.571 78.2801C156.604 75.2273 158.667 71.1263 161.108 68.9751C162.625 67.6383 164.083 66.5286 165.406 64.9673L169.012 64.8611Z" fill="white"/>
<path d="M168.693 71.295C169.098 71.2468 169.505 71.2145 169.913 71.198C175.263 70.9348 175.995 75.1898 172.407 78.772C167.005 79.7963 163.881 75.3548 168.693 71.295Z" fill="#2D2D26"/>
<path d="M92.7353 152.655C96.5855 154.187 100.628 155.589 104.448 157.165C104.806 157.313 105.815 158.813 106.084 159.21C104.271 164.372 103.507 168.358 102.423 173.716C101.735 176.798 100.073 179.902 99.317 182.925C97.242 191.227 95.1708 199.544 92.4455 207.664C91.2198 211.317 89.2895 214.552 88.6448 218.435C88.0868 221.796 85.797 224.23 82.9825 225.938C82.2935 225.981 80.2935 226.099 79.6977 225.928C75.8347 224.815 71.0083 221.134 67.621 218.839C63.21 215.59 60.1562 214.524 55.9852 210.407C51.5617 206.04 50.1263 205.614 47.1445 199.898C51.664 191.958 55.8967 191.738 62.14 185.833C64.457 183.454 66.5682 180.644 69.017 178.418C75.314 172.694 81.6927 167.867 86.5307 160.725C88.1937 158.27 90.692 154.78 92.7353 152.655Z" fill="#2D2D26"/>
<path d="M72.546 188.812C74.786 188.367 75.8535 189.362 77.9793 189.772C78.5988 189.892 80.1753 189.888 80.8658 189.891C82.6268 192.923 84.1498 193.841 85.635 196.218C85.6578 197.202 85.6682 198.187 85.6665 199.171C85.6277 206.567 84.5295 208.366 79.5857 213.237L76.1158 213.261C74.0955 213.273 72.7617 213.35 70.84 212.524C67.651 211.151 64.8558 208.219 63.533 205.027C62.291 202.03 62.5838 198.063 63.8475 195.104C65.365 191.551 69.1723 190.089 72.546 188.812Z" fill="white"/>
<path d="M72.2975 196.715C74.4893 196.782 75.939 197.583 77.7908 198.598C77.8785 200.479 77.861 201.559 77.7235 203.437C76.6695 204.943 76.276 205.415 74.5958 206.136C74.2723 206.179 73.1153 206.313 72.8913 206.216C67.554 203.925 68.3775 199.448 72.2975 196.715Z" fill="#2D2D26"/>
<path d="M76.042 43.3397C77.2752 43.1159 83.3707 42.8344 83.9415 43.8644C89.5027 53.9044 91.3967 65.0574 94.0147 76.0924C95.7712 83.4957 99.3622 91.6012 99.3495 99.3704C98.456 99.7084 94.4107 100.884 93.9527 101.169C90.3995 103.381 89.99 104.082 86.0365 105.542C81.6732 102.134 78.252 99.4694 73.661 96.2272C67.1535 91.0724 61.2967 84.6269 54.5072 79.6622C50.7395 76.9072 46.8772 74.2734 43.1785 71.4192C41.9267 70.4534 41.496 69.306 40.9012 67.91C45.694 62.3102 48.405 58.7037 54.6745 54.3742C62.2887 49.1162 66.4255 44.5092 76.042 43.3397Z" fill="#2D2D26"/>
<path d="M67.1055 55.045C67.3128 55.0327 67.52 55.0242 67.7275 55.019C74.034 54.8787 76.4393 63.1417 79.1013 65.6817L79.1843 65.76C79.2628 68.009 79.2773 70.355 78.9213 72.576C76.6728 75.4732 73.016 78.2355 69.2193 78.2607C61.4543 78.248 53.8552 69.219 57.454 61.6495C59.2742 57.8205 63.437 56.2972 67.1055 55.045Z" fill="white"/>
<path d="M65.5667 62.0388C68.599 61.897 69.1712 61.9605 71.7032 63.5168C73.6795 66.8133 73.5917 69.3663 69.7745 70.8175C66.6175 72.307 64.686 70.535 63.6165 67.5703C62.7597 65.1948 64.4797 63.9195 65.5667 62.0388Z" fill="#2D2D26"/>
<path d="M110.237 113.353C114.197 112.704 118.309 113.6 121.475 116.047C129.142 121.971 129.424 130.312 123.978 137.958C120.96 142.195 116.369 143.949 111.562 144.723C108.759 144.952 106.087 145.029 103.289 144.737C99.209 140.885 96.7272 136.035 94.8822 130.78C94.3462 129.253 94.6075 129.128 95.2547 127.895C95.1377 126.502 94.7842 127.489 94.288 126.254C95.2065 123.703 95.4757 124.183 95.7397 121.233C96.2972 115.001 104.992 113.834 110.237 113.353Z" fill="#2D2D26"/>
<path d="M112.434 119.146L112.614 119.089C113.386 119.408 114.471 119.5 115.123 119.891C126.191 126.527 120.219 136.797 110.294 139.873C108.673 139.879 107.207 139.316 105.656 138.831C100.626 133.838 100.615 131.239 102.042 124.416C103.092 123.247 104.233 122.163 105.357 121.065C106.305 120.827 111.839 119.376 112.434 119.146Z" fill="white"/>
<path d="M109.408 124.096C109.824 124.097 111.36 124.09 111.659 124.242C115.65 126.266 113.904 130.376 110.903 131.985C108.698 130.999 106.515 129.807 105.991 127.24C105.574 125.195 107.767 124.216 109.408 124.096Z" fill="#2D2D26"/>
<path d="M238.531 173.988C240.447 174.47 243.919 178.013 244.315 179.932C243.071 178.817 238.944 175.287 238.531 173.988Z" fill="#2D2D26"/>
</g>
<defs>
<clipPath id="clip0_15_196">
<rect width="256" height="282" fill="white"/>
</clipPath>
</defs>
</svg>
