<svg width="922" height="728" viewBox="0 0 922 728" fill="none" xmlns="http://www.w3.org/2000/svg">
<g clip-path="url(#clip0_15_266)">
<path d="M0 0H922V728H0V0Z" fill="white"/>
<path d="M400.497 137.068C410.834 136.652 421.119 137.136 431.441 137.363C440.128 137.554 448.848 137.479 457.52 138.1C485.225 140.08 518.013 147.163 543.242 158.727C549.144 161.432 554.888 164.776 560.561 167.942C581.877 179.846 621.657 232.978 634.897 255.085C643.653 269.705 651.892 285.428 656.52 301.89C660.891 317.438 664.007 333.768 666.622 349.707C669.742 368.762 672.317 387.822 669.472 407.127C668.995 410.361 668.058 413.524 667.415 416.727C666.519 421.151 666.127 425.67 664.668 429.97C661.598 439.028 656.767 448.375 652.283 456.821C645.945 468.756 639.426 480.295 631.057 490.952C626.955 496.17 622.354 501.014 618.019 506.039C604.059 522.233 589.504 539.976 571.595 551.979C566.485 555.405 561.177 558.561 556.018 561.911C550.593 565.436 545.209 569.245 539.586 572.441C534.238 575.485 527.854 577.083 523.104 581.094C520.637 583.179 518.593 586.632 517.076 589.441C510.431 601.732 540.707 638.582 544.768 652.292C545.511 654.808 546.1 657.955 544.723 660.337C539.946 668.576 521.268 681.092 512.61 684.392C509.445 685.599 506.01 685.693 502.751 686.576L502.292 686.702C485.455 680.502 485.04 652.242 473.704 651.391C469.842 653.034 471.255 655.664 470.778 658.739C469.455 667.347 470.134 677.319 465.835 685.117C462.526 691.109 454.814 692.46 448.707 693.833C444.825 693.824 439.745 693.874 436.009 693.68C406.483 692.176 408.473 678.611 408.199 653.948C408.179 652.075 408.686 649.149 407.33 647.807C404.762 645.268 399.833 645.651 396.395 645.655C379.249 661.832 402.015 703.035 335.877 671.268C324.977 666.032 325.29 662.336 321.465 651.612C327.912 634.504 338.046 616.382 345.539 599.549C346.093 598.306 345.025 594.389 344.642 592.845C335.812 586.601 332.601 585.921 323.141 581.441C316.867 578.474 309.435 574.094 302.927 571.01C301.067 570.132 296.238 566.719 293.942 565.422C289.395 562.847 284.03 559.7 279.767 556.67C262.774 544.6 247.448 531.413 233.462 515.908C226.02 507.763 217.591 499.205 211.635 489.858C197.39 467.491 187.758 443.011 182.974 416.919C182.226 412.84 180.407 408.299 179.85 404.272C178.58 395.078 176.655 386.141 174.95 377.036C174.096 372.073 174.339 365.564 174.021 360.401C173.347 349.487 174.342 338.154 175.058 327.247C175.658 323.101 177.298 318.75 178.197 314.715C183.106 292.695 191.892 271.864 203.228 252.395C206.717 246.403 209.376 239.302 213.258 233.306C216.424 228.414 219.922 223.514 223.377 218.792C228.845 212.129 236.989 204.13 243.521 198.342C248.086 194.296 258.902 183.231 263.577 180.089C282.552 167.334 305.059 156.748 326.517 148.949C328.307 148.299 334.242 147.262 336.337 146.762C349.002 143.702 361.775 141.113 374.631 138.999C381.99 137.838 391.805 138.424 399.823 137.177L400.497 137.068Z" fill="#2C2921"/>
<path d="M421.897 151.947C425.501 151.302 430.498 152.081 434.196 152.24C466.33 153.627 504.502 162.105 534.31 174.3C545.799 178.91 556.468 185.356 565.891 193.386C572.158 198.804 577.132 205.265 582.593 211.433C599.975 231.079 614.404 251.864 625.983 275.43C628.905 281.372 633.101 286.979 635.532 293.246C646.449 326.371 655.944 361.464 651.108 396.636C650.235 402.997 651.536 408.481 648.205 414.26C646.863 416.588 647.025 417.284 648.034 419.607C647.745 423.21 644.945 430.754 643.644 434.364C642.001 438.63 640.889 443.375 639.039 447.543C637.832 450.257 636.347 453.922 634.789 456.407C626.186 470.148 616.443 483.168 606.886 496.256C603.518 500.164 599.606 503.684 596.113 507.475C590.809 513.229 585.844 519.316 579.933 524.475C577.907 526.245 575.647 527.96 573.715 529.783C559.89 542.803 544.453 555.112 526.143 561.06C523.055 562.055 517.472 562.5 513.961 563.095C494.256 557.521 491.586 529.761 496.899 513.683C498.114 510.001 498.542 504.715 499.645 500.591C501.923 498.255 508.563 493.973 511.647 491.843C516.243 488.696 520.664 485.306 524.892 481.687C531.789 475.753 537.443 469.103 543.44 462.552C564.333 439.726 575.314 419.673 582.751 389.634C584.16 383.935 586.947 364.818 586.55 359.306C584.984 337.512 572.027 313.619 561.209 294.926C552.61 280.117 537.308 260.322 522.182 252.002C511.926 246.364 491.915 238.279 480.583 235.477C472.462 233.467 461.504 232.577 452.86 230.667C443.031 228.496 429.567 229.429 419.862 226.784L419.24 226.608C417.162 226.01 414.903 226.813 412.752 226.804C402.164 226.76 391.996 227.649 381.48 228.895C371.52 230.076 362.847 233.526 353.623 237.325C349.198 239.148 344.65 240.317 340.296 242.292C298.072 264.062 265.359 308.343 270.208 357.492C270.326 367.664 271.197 378.774 272.647 388.723C278.393 428.169 301.178 467.568 338.16 485.018C340.36 486.058 354.595 492.636 355.285 493.46C369.032 509.771 356.116 558.399 335.71 565.08C331.396 566.399 313.108 557.521 307.92 556.062C306.268 555.211 304.412 553.104 302.86 552.308C289.463 545.424 278.178 536.235 266.48 526.96C218.782 489.151 194.475 432.146 190.168 372.481C188.998 356.273 188.809 344.18 192.196 328.025C195.111 314.16 197.015 296.341 203.57 283.559C225.281 241.222 254.298 199.68 298.481 178.599C301.976 176.809 305.382 174.37 308.937 172.764C339.488 158.967 374.173 154.98 407.302 152.836C412.195 152.519 417.037 152.235 421.897 151.947Z" fill="white"/>
<path d="M615.795 370.154C616.277 370.078 616.43 370.043 616.88 370.007C621.688 369.624 627.478 370.95 631.201 374.039C637.603 379.351 641.033 386.393 641.708 394.657C642.613 405.756 634.897 412.277 626.627 418.21C623.588 420.391 620.527 422.674 617.294 424.566C612.194 427.554 606.535 429.991 602.69 434.663C601.087 436.615 599.174 439.706 599.561 442.31C600.106 445.923 605.54 446.977 608.061 449.022C609.209 449.956 609.853 451.279 609.965 452.751C610.114 454.687 609.218 458.428 607.881 459.86C605.522 462.386 602.433 463.908 598.949 463.93C593.866 463.966 590.323 461.395 586.843 457.992C584.372 455.34 582.499 451 581.774 447.446C579.262 435.115 588.396 425.202 596.671 417.521C599.66 414.75 602.663 411.745 606.125 409.561C611.964 405.875 619.275 405.101 623.345 398.966L623.66 398.483C622.724 396.805 621.648 395.234 620.567 393.646C617.537 393.479 614.436 393.639 611.401 393.656C607.953 396.127 604.045 400.392 599.516 400.615C598.012 400.69 596.648 400.283 595.563 399.215C592.435 396.14 593.141 390.631 593.276 386.629C600.786 377.688 604.266 373.304 615.795 370.154Z" fill="#2C2921"/>
<path d="M498.731 176.163C525.369 174.649 531.032 222.657 548.356 234.551L556.077 234.558C559.75 231.042 559.926 229.901 560.034 225.135C566.287 216.884 566.832 219.144 574.404 224.481L574.395 239.463C567.183 251.927 560.178 259.142 545.101 253.491C528.565 246.625 522.839 220.118 514.893 205.531C513.43 202.84 510.598 199.397 508.716 196.723C500.968 195.811 497.421 198.113 499.046 206.369C499.762 209.976 503.904 218.165 497.839 219.374C478.999 223.128 474.713 198.655 482.74 186.591C486.621 180.752 492.536 177.442 498.731 176.163Z" fill="#2C2921"/>
<path d="M313.423 181.15C319.786 180.968 325.116 181.334 330.765 184.646C335.98 187.704 339.561 192.372 341.013 198.244C342.432 203.981 342.447 210.547 339.229 215.697C330.973 228.911 309.158 231.941 295.087 234.843C290.837 235.72 286.673 236.983 282.431 237.903C279.621 238.511 276.767 238.764 273.938 239.407C273.141 241.381 272.081 243.806 272.404 245.959C272.957 249.644 281.187 251.029 283.983 253.455C284.871 254.226 285.7 255.322 285.727 256.55C285.767 258.389 284.26 260.244 283.028 261.48C280.352 264.168 276.222 267.559 272.29 267.56C270.139 267.14 267.939 266.665 265.912 265.815C260.137 263.394 256.601 257.811 254.379 252.172C252.303 246.905 253.079 241.26 255.341 236.158C261.648 221.934 282.389 220.154 295.862 219.092C299.311 218.82 303.075 218.978 306.465 218.378C309.302 217.877 312.682 216.208 315.4 215.163C320.113 213.349 322.436 209.36 324.349 204.975C317.077 192.432 311.609 200.895 306.136 198.611C304.942 198.112 303.852 197.013 303.467 195.77C302.794 193.598 303.498 191.268 304.507 189.321C306.293 185.874 309.661 182.319 313.423 181.15Z" fill="#2C2921"/>
<path d="M591.678 254.558C593.623 254.498 595.568 254.454 597.513 254.427C602.523 254.371 606.859 256.003 610.424 259.577C613.279 262.436 615.147 266.336 616.137 270.219C620.117 285.837 609.312 296.261 604.473 309.829C602.393 315.671 601.835 322.084 601.835 328.248L604.806 331.231L611.716 331.301C615.876 327.711 618.384 321.567 623.633 319.429C624.921 318.903 626.411 318.738 627.707 319.333C630.778 320.739 631.926 324.844 632.916 327.776C631.309 335.802 627.766 341.301 621.333 346.327C619.914 347.422 618.505 348.353 616.835 349.018C611.496 351.141 603.437 350.252 598.341 347.821C593.236 345.385 589.612 340.364 587.771 335.117C586.078 330.298 585.718 319.585 586.587 314.462C587.401 309.656 589.805 303.337 592.092 299.043C594.091 295.289 596.923 291.977 598.742 288.126C600.399 284.606 601.195 280.883 599.782 277.133C598.998 275.063 597.594 274.628 595.703 273.762C591.233 275.1 587.478 277.941 582.998 279.354C580.702 277.964 578.483 276.437 577.119 274.045C576.047 272.168 575.782 270.07 576.363 267.988C578.118 261.712 586.334 257.43 591.678 254.558Z" fill="#2C2921"/>
<path d="M230.202 382.294C234.084 381.973 238.242 382.502 241.954 383.663C247.193 385.301 250.99 388.46 253.491 393.361C260.091 406.288 256.832 417.704 252.64 430.648C250.028 438.712 247.887 446.522 252.255 454.534C254.439 458.541 257.023 459.784 261.194 460.99C265.241 459.811 268.293 457.118 272.171 455.741C274.582 454.885 278.267 454.917 280.556 456.047C281.861 456.691 282.741 457.686 283.119 459.104C283.782 461.589 282.846 464.29 281.618 466.442C278.031 472.736 272.848 475.321 266.141 477.189C264.598 477.626 262.795 477.833 261.191 477.887C256.061 478.058 251.634 475.91 247.974 472.412C243.7 468.324 240.006 462.895 237.587 457.506C229.032 438.465 239.318 430.599 242.029 413.673C242.466 410.952 242.22 407.958 242.153 405.204C240.886 402.892 239.394 401.212 237.542 399.375L231.22 399.366C228.453 402.051 227.28 407.151 223.368 408.511C222.374 408.856 221.4 408.816 220.485 408.278C218.117 406.885 216.726 403.263 215.929 400.798C216.427 398.103 216.955 395.326 217.963 392.767C220.209 387.064 224.888 384.653 230.202 382.294Z" fill="#2C2921"/>
<path d="M378.237 166.3C398.592 169.72 415.896 187.629 436.653 189.795C439.474 190.09 441.352 188.267 443.194 186.448C443.45 179.233 439.621 177.818 439.134 173.094C438.209 164.13 448.19 166.295 452.352 170.911C457.425 176.543 459.604 179.766 459.523 187.219C459.361 202.782 446.275 203.297 434.579 203.105C429.299 202.755 420.9 199.971 415.128 197.525C406.475 193.859 394.641 183.506 385.649 181.612C384.065 181.279 380.765 184.728 379.555 186.018C381.51 194.125 383.546 194.3 388.749 200.648C386.244 210.299 378.365 207.058 371.828 203.603C363.187 199.034 361.821 191.785 359.542 183.124C362.288 172.056 367.448 169.04 378.237 166.3Z" fill="#2C2921"/>
<path d="M562.384 471.165C563.253 471.017 564.122 470.922 565 470.877C571.244 470.512 576.462 472.079 581.153 476.347C585.056 479.899 587.698 485.27 587.879 490.569C588.068 496.035 585.321 501.348 581.639 505.251C573.553 513.823 556.036 520.194 544.529 521.738C541.261 522.175 537.898 521.711 534.611 521.859C532.734 521.949 530.429 522.179 529.196 523.8C528.453 524.772 528.493 525.389 528.574 526.56C530.168 529.356 535.525 529.549 538.326 531.156L538.78 531.427C539.739 532.921 540.419 534.65 541.162 536.262C539.546 539.499 537.029 542.349 533.81 544.078C531.591 545.271 529.524 545.851 527.062 545.19C524.617 544.771 522.65 544.091 520.543 542.772C515.64 539.697 512.394 534.411 511.147 528.829C510.013 523.737 510.832 518.631 513.677 514.242C516.793 509.438 522.173 504.72 528.246 505.066C531.469 505.246 534.647 506.223 537.875 506.3C541.31 506.381 544.907 505.593 548.261 504.904C557.562 502.991 567.935 501.429 573.558 492.879C573.468 492.577 573.378 492.28 573.283 491.983C569.236 479.021 561.758 488.152 556.419 484.712C555.176 483.911 554.1 481.763 553.754 480.372C553.443 479.12 553.754 477.9 554.407 476.811C555.293 475.334 559.381 471.957 561.101 471.602C561.911 471.435 561.344 471.705 562.078 471.341C562.186 471.287 562.285 471.224 562.384 471.165Z" fill="#2C2921"/>
<path d="M239.069 273.918C239.529 273.855 239.649 273.819 240.176 273.857C246.398 274.295 252.58 278.485 256.607 283.016C260.883 287.827 262.764 293.629 262.34 300.049C261.703 309.717 253.398 319.922 245.449 324.861C240.056 328.211 234.059 330.501 229.244 334.731L228.746 335.172C227.421 339.836 226.749 343.717 226.903 348.58C227.821 350.089 228.967 351.383 230.106 352.725C230.219 352.767 230.332 352.811 230.446 352.85C230.636 352.915 230.829 352.971 231.018 353.039C234.486 354.272 239.516 352.733 242.215 354.987C243.962 357.96 243.467 361.894 243.424 365.243C241.325 366.747 239.544 367.933 236.93 368.39C232.062 369.242 227.398 367.731 223.417 364.997C219.49 361.663 215.75 358.342 214.036 353.34C212.896 350.014 212.38 346.197 212.245 342.693C211.306 318.27 240.684 319.779 247.958 303.456C249.094 300.906 249.5 297.292 248.302 294.684C247.406 292.736 244.738 290.974 242.772 290.294C237.002 288.298 234.642 295.188 230.414 297.232C229.382 297.732 228.136 297.974 227.038 297.545C224.378 296.507 223.168 293.375 222.155 290.941C222.939 287.795 224.005 285.033 225.69 282.253C229.332 276.247 232.588 275.535 239.069 273.918Z" fill="#2C2921"/>
<path d="M291.927 479.147C319.546 480.413 311.34 518.884 328.612 531.652C330.847 531.769 333.758 532.314 335.632 530.796C340.507 526.843 333.537 517.736 334.388 512.68C334.555 511.689 335.03 510.82 335.865 510.244C337.529 509.1 340.15 509.118 342.049 509.501C343.801 509.852 345.26 511.64 346.195 513.044C350.079 518.875 351.435 526.69 349.989 533.516C348.792 539.166 346.138 542.569 341.342 545.725C339.363 546.491 337.229 547.013 335.148 547.432C330.062 548.449 325.323 547.445 321.014 544.586C307.008 535.298 304.288 518.717 301.081 503.572C300.534 500.987 299.846 497.908 297.513 496.386C296.093 496.094 294.556 495.873 293.171 496.458C289.354 498.075 290.632 505.778 289.339 509.141C288.912 510.248 288.185 511.162 287.055 511.608C285.607 512.175 283.749 512.058 282.358 511.383C279.363 509.924 276.733 505.274 275.737 502.154C274.391 497.944 275.126 493.518 277.204 489.687C280.511 483.591 285.517 481.002 291.927 479.147Z" fill="#2C2921"/>
<path d="M399.237 278.399C412.79 277.722 431.537 278.197 444.643 281.078C450.339 282.33 455.836 284.413 461.459 285.951C470.792 288.504 480.543 291.315 489.277 295.562C504.484 302.956 514.177 323.341 519.462 338.737C521.56 344.842 523.329 351.687 523.843 358.12C525.103 373.933 520.381 393.823 512.908 407.665C510.215 412.65 506.447 416.978 503.273 421.653C500.023 426.442 497.142 432.025 493.333 436.349L479.778 451.5C476.5 455.088 472.273 458.55 470.17 462.989L469.945 463.475C472.196 468.117 475.658 472.25 478.188 476.775C484.617 488.291 487.661 500.654 485.275 513.747C484.527 517.857 483.109 521.841 482.438 525.965C480.66 536.888 481.817 545.419 486.729 555.437C488.061 558.151 489.52 561.132 491.366 563.518C493.603 566.395 496.714 568.448 498.843 571.455C498.933 571.581 499.014 571.703 499.095 571.829C496.264 580 494.341 588.109 496.187 596.775C498.164 606.063 505.776 614.248 510.675 622.195C515.496 630.006 519.224 638.173 523.217 646.398C523.888 647.78 525.027 649.014 525.558 650.441C526.26 652.31 525.153 654.894 524.329 656.596C520.894 663.7 516.604 662.881 509.855 665.249C506.452 662.822 503.3 660.292 500.568 657.109C494.458 649.996 485.77 633.121 476.757 630.744C473.682 629.934 463.309 631.433 460.532 633.311C455.611 636.642 455.805 659.567 455.017 665.523C454.94 666.419 454.882 667.383 454.517 668.216C453.617 670.291 451.438 671.75 449.366 672.461C442.508 674.82 435.371 673.515 428.999 670.57C426.726 664.623 425.024 658.842 425.057 652.404C425.08 647.789 426.078 642.418 424.796 637.975C417.324 633.963 409.514 633.576 401.408 631.924C397.675 631.163 393.893 629.862 390.116 629.421C388.213 629.2 385.83 629.16 384.085 630.028C376.977 633.572 376.043 650.306 372.124 656.929C371.052 658.739 369.425 660.076 367.81 661.382C360.491 660.278 352.416 659.117 346.9 653.624C345.149 651.882 344.305 649.797 344.308 647.33C344.324 637.002 356.857 617.512 360.705 607.45C362.532 602.664 363.439 597.352 363.522 592.242C363.664 583.58 360.057 576.835 354.14 570.798C356.849 565.188 360.751 560.366 363.701 554.905C374.395 535.109 375.477 519.518 373.087 497.669C372.662 493.784 375.826 491.182 378.042 488.377C381.99 483.384 384.867 475.289 383.981 468.882C383.29 463.894 377.112 461.72 373.47 459.036C368.543 455.412 364.981 451.054 360.693 446.783C357.253 443.358 353.471 440.321 350.222 436.7C338.251 423.356 326.785 402.392 324.216 384.499C323.248 377.758 323.328 370.866 323.378 364.071C323.562 339.393 328.801 327.559 343.709 308.23C353.482 295.559 368.91 285.094 384.376 280.866C389.203 279.547 394.281 279.031 399.237 278.399Z" fill="white"/>
<path d="M418.219 358.045C421.16 358.049 423.944 359.879 426.04 361.819C431.977 367.314 429.042 380.079 429.375 387.349C429.785 396.314 435.909 401.224 442.063 406.85C452.491 416.384 454.062 431.539 448.453 443.996C443.749 454.439 438.842 455.394 439.422 468.576C443.752 472.11 448.3 474.888 452.325 478.913C459.64 486.234 463.048 493.532 463.017 503.986C462.985 514.246 456.575 525.236 448.834 531.76C445.457 534.609 441.493 536.653 438.347 539.791C438.324 540.323 438.302 540.836 438.338 541.367C438.747 547.391 448.302 551.159 452.46 554.973C458.384 560.402 460.343 568.605 460.613 576.394C461.194 593.034 454.121 600.611 443.477 611.966C441.888 612.281 439.916 612.848 438.319 612.465C436.417 612.015 433.882 611.236 432.842 609.444C430.077 604.681 438.002 601.368 440.115 598.234C442.287 595.006 443.916 590.436 444.715 586.636C446.128 579.924 444.584 572.693 440.813 566.975C436.592 560.569 428.718 557.539 421.492 556.094C419.766 556.706 418.084 557.503 416.402 558.223C414.515 559.277 412.721 560.488 411.038 561.843C405.628 566.287 403.145 570.96 402.462 577.929C401.763 585.061 402.083 593.012 407.816 597.982C409.623 599.549 412.143 601.223 413.549 603.141C414.357 604.244 414.364 605.667 414.134 606.959C413.82 608.733 412.756 610.687 411.167 611.623C409.421 612.654 407.114 612.447 405.268 611.835C397.82 609.372 389.651 600.305 386.334 593.408C379.904 580.041 384.549 564.918 394.629 554.653C398.548 550.664 408.204 544.816 409.755 539.521C411.331 534.141 399.372 527.073 396.009 521.481C387.817 507.858 396.47 485.405 405.948 474.235C407.812 472.043 413.426 469.499 413.974 466.91C414.948 462.305 402.756 456.434 399.641 453.809C396.83 451.445 394.546 448.573 392.644 445.44C384.5 432.03 387.612 416.293 398.292 405.261C403.008 400.39 413.009 395.778 414.487 388.805C416.252 380.476 409.612 376.597 405.971 370.473C405.9 370.354 405.833 370.232 405.764 370.111C406.214 367.436 406.787 364.656 408.438 362.433C410.878 359.148 414.464 358.633 418.219 358.045Z" fill="#2C2921"/>
<path d="M425.756 480.403C429.809 480.165 434.022 481.547 437.453 483.667C444.786 488.206 446.548 494.72 448.382 502.635C447.177 506.683 446.2 511.212 443.931 514.818C440.987 519.491 435.761 522.359 430.473 523.525C426.333 524.277 422.572 524.295 418.588 522.742C414.492 521.179 411.207 518.019 409.488 513.985C406.982 508.236 407.423 501.167 409.709 495.423C412.876 487.463 418.108 483.649 425.756 480.403Z" fill="white"/>
<path d="M417.755 415.222C421.039 415.07 423.914 415.084 426.927 416.568C432.673 419.401 433.855 424.441 435.737 429.954C435.399 431.027 435.037 432.093 434.651 433.15C432.5 438.957 427.912 440.8 422.69 443.167C422.467 443.245 422.245 443.327 422.021 443.402C418.991 444.415 415.312 443.847 412.501 442.372C407.897 439.956 406.221 436.076 404.792 431.376C405.242 430.085 405.699 428.792 406.228 427.531C408.633 421.797 411.9 417.557 417.755 415.222Z" fill="white"/>
<path d="M463.282 307.154C467.537 307.049 473.043 309.1 476.739 311.12C483.235 314.75 488.012 320.825 490.006 327.996C491.793 334.32 490.952 341.097 487.67 346.791C482.798 355.434 476.77 358.362 467.613 360.851C462.468 361.433 456.957 359.37 452.644 356.669C446.399 352.754 442.42 347.329 440.814 340.115C439.057 332.221 439.343 325.519 443.827 318.677C448.557 311.462 455.102 308.871 463.282 307.154Z" fill="#2C2921"/>
<path d="M463.427 319.691C467.636 319.615 471.395 320.551 474.681 323.287C477.869 325.937 480.313 329.93 480.57 334.124C480.804 337.961 479.318 342.24 476.698 345.064C474.42 347.527 471.715 348.992 468.352 349.211L467.636 349.601C464.696 348.708 461.734 349.219 458.866 347.86C456.043 346.521 454.126 344.001 453.171 341.066C451.681 336.506 452.082 330.879 454.319 326.621C456.336 322.786 459.469 320.957 463.427 319.691Z" fill="white"/>
<path d="M398.324 298.721C400.599 298.817 402.879 299.018 405.096 299.57C411.466 301.157 416.649 305.916 419.92 311.458C423.008 316.692 425.095 322.782 423.496 328.844C421.874 334.994 417.897 341.311 412.301 344.53C408.965 346.449 402.547 348.991 398.764 347.98C391.96 347.204 383.646 345.108 378.395 340.462C373.843 336.435 371.469 329.635 371.16 323.689C370.862 317.929 372.414 312.602 376.333 308.293C382.296 301.735 389.712 299.129 398.324 298.721Z" fill="#2C2921"/>
<path d="M394.901 309.947C397.892 309.876 400.112 310.035 402.873 311.207C407.965 313.368 410.58 317.18 412.56 322.185C412.147 323.581 411.594 324.908 410.965 326.219C409.445 329.381 406.025 333.818 402.435 334.718C401.712 334.899 400.907 334.997 400.168 335.14C398.766 335.419 397.235 335.812 395.806 335.848C392.799 335.922 389.198 334.127 387.133 332.077C383.606 328.577 383.414 324.792 383.52 320.108C384.214 318.998 384.923 317.899 385.649 316.81C388.003 313.311 390.597 310.802 394.901 309.947Z" fill="white"/>
<path d="M368.904 349.949C368.972 349.937 369.038 349.919 369.106 349.911C374.008 349.373 379.03 350.507 383.064 353.393C388.808 357.502 393.427 365.352 394.571 372.286C395.409 377.358 393.742 382.357 390.796 386.474C385.918 393.291 378.841 397.956 370.605 399.293C365.337 399.555 359.186 399.232 354.628 396.271C349.029 392.635 345.941 386.388 344.628 380.022C343.296 373.571 344.138 366.315 347.892 360.769C351.768 355.042 362.382 351.139 368.904 349.949Z" fill="#2C2921"/>
<path d="M364.546 363.014C367.924 362.39 372.396 362.48 375.584 363.752C378.736 365.011 381.382 367.525 382.611 370.712C383.614 373.311 383.499 376.062 382.284 378.57C380.304 382.657 376.28 384.845 372.188 386.284C368.461 386.662 364.058 387.472 360.477 385.972C356.489 384.302 355.299 379.943 353.938 376.257C354.674 372.983 355.526 370.098 357.578 367.374C359.415 364.936 361.506 363.45 364.546 363.014Z" fill="white"/>
<path d="M472.8 369.339C475.874 369.263 481.232 371.707 483.811 373.472C489.304 377.232 493.603 384.223 494.756 390.755C495.634 395.724 494.441 400.609 491.505 404.701C486.99 411.001 479.854 414.709 472.358 415.964C468.271 416.233 463.256 414.751 459.825 412.511C454.868 409.276 451.537 403.228 450.407 397.517C449.308 391.964 449.878 386.148 453.077 381.38C458.249 373.67 464.025 371.117 472.8 369.339Z" fill="#2C2921"/>
<path d="M473.115 381.01C474.51 381.27 475.996 381.562 477.302 382.125C481.178 383.8 483.024 387.626 484.325 391.356C481.394 399.214 478.742 400.407 472.268 404.928C471.989 404.935 471.71 404.939 471.431 404.941C468.266 404.949 464.8 404.202 462.558 401.774C459.613 398.595 460.005 394.705 460.095 390.741C463.863 385.263 466.591 382.869 473.115 381.01Z" fill="white"/>
<path d="M396.419 243.311C425.001 242.19 453.018 246.418 480.507 253.99C486.963 255.769 493.081 258.713 499.199 261.401C512.709 267.341 519.107 270.205 530.227 280.609C537.209 287.143 542.08 293.622 546.753 301.915C550.913 309.299 554.087 317.181 557.648 324.858C559.795 329.482 562.195 334.091 563.933 338.887C566.598 346.237 569.168 358.323 568.997 366.178C568.777 376.502 565.256 386.923 562.605 396.809C561.7 400.19 561.029 403.637 560.061 407.002C558.818 411.31 557.04 415.987 555.023 419.989C553.619 422.787 551.606 425.322 549.936 427.97C544.07 437.272 538.213 447.388 530.96 455.696C523.104 464.691 511.201 475.352 500.793 481.196C500.676 481.133 500.559 481.079 500.446 481.016C500.253 480.912 500.068 480.795 499.874 480.696C498.564 480.025 497.988 479.485 497.101 478.283C494.53 474.807 490.758 469.36 492.032 464.803C492.752 462.219 511.615 440.794 515.109 436.149C521.749 427.317 533.504 403.867 537.322 393.267C538.659 389.553 539.564 385.819 540.122 381.91C543.525 357.88 537.115 332.64 526.134 311.342C524.041 307.282 522.042 303.021 519.264 299.382C511.188 288.814 499.316 283.651 487.584 278.304C483.483 276.436 479.449 274.329 475.159 272.917C466.713 270.136 458.344 268.352 449.54 267.143C440.552 265.778 431.803 264.038 422.673 263.647C416.676 263.39 410.639 264.056 404.641 264.123C398.463 264.193 392.565 263.807 386.426 265.019C382.742 265.746 379.026 267.43 375.466 268.676C349.042 277.925 326.632 296.79 314.546 322.259C309.712 332.447 308.93 344.339 308.87 355.468C308.834 361.984 308.659 368.62 309.322 375.108C311.874 400.09 322.779 423.66 338.645 442.909C344.615 450.152 351.98 456.826 358.78 463.322C361.06 465.501 363.671 467.419 365.822 469.724C366.653 470.611 367.618 471.764 367.941 472.966C368.226 474.028 368.039 474.992 367.34 475.852C366.647 476.703 365.505 477.076 364.448 477.162C353.33 478.058 340.596 466.843 332.649 460.09C326.529 454.885 319.872 449.718 314.627 443.632C300.647 427.413 288.582 398.313 286.965 376.812C286.488 370.473 286.715 363.999 286.753 357.645C286.928 328.195 292.501 306.375 312.098 283.829C322.391 271.988 345.411 255.436 360.225 250.03C370.178 246.398 385.757 244.073 396.419 243.311Z" fill="white"/>
<path d="M397.112 27.6569C399.034 27.3619 406.398 27.3482 408.684 27.4019C419.008 27.6441 429.764 26.1017 438.934 31.7552C443.15 34.0433 446.065 38.8912 446.699 43.875C449.198 63.5467 447.448 84.4966 445.779 104.235C445.619 106.128 444.143 109.922 443.098 111.312C440.876 114.268 435.138 116.96 432 113.69C430.011 111.697 428.263 108.519 427.835 105.73C425.833 92.6825 428.615 78.9284 427.702 65.7753C427.437 61.9755 427.182 54.8211 423.719 52.7861C415.627 48.0318 401.829 48.9872 392.528 49.0795C388.966 49.2213 383.641 50.327 379.71 50.5989C374.103 50.9042 367.514 52.1013 362.111 53.6311C358.776 54.5753 353.966 56.6728 352.523 60.0625C348.79 68.8336 364.004 99.971 358.595 108.704C357.652 110.226 356.136 111.097 354.389 111.378C351.621 111.822 348.904 111.381 346.696 109.582C345.046 108.237 344.129 106.046 343.406 104.09C339.347 93.1043 336.888 79.0436 334.225 67.4604C332.706 60.8513 330.475 54.4276 329.838 47.6374C329.538 44.4326 330.063 41.2609 332.246 38.7631C333.488 37.3422 335.255 36.2111 337.035 35.5955C340.192 34.5032 343.928 34.1936 347.22 33.6053C363.694 30.6612 380.463 29.2354 397.112 27.6569Z" fill="#2C2921"/>
<path d="M481.047 50.7799C482.794 39.1147 485.599 30.6326 499.739 32.8632C520.043 35.431 542.674 46.7932 561.15 55.3433C575.872 62.1582 591.057 70.57 601.42 83.3557C604.567 87.242 605.553 90.1738 606.719 94.9416C605.472 98.7621 604 104.056 602.042 107.535C595.572 119.022 587.158 129.19 578.055 138.661C573.792 143.099 572.671 150.41 564.423 147.537C562.105 146.712 560.349 145.571 558.314 144.205C557.711 129.093 561.281 130.91 569.254 121.432C572.572 117.489 583.242 94.7534 583.12 90.0275C577.303 77.6317 540.806 63.3179 527.548 57.8231C522.654 55.7962 509.441 53.2025 504.016 55.6215C499.793 57.5034 497.034 69.9253 494.657 75.3874C490.677 84.5425 487.665 106.175 480.129 112.354C479.021 113.262 474.335 113.073 472.827 113.046C469.729 111.341 468.932 110.747 467.244 107.452C469.194 100.9 470.013 94.563 471.544 87.9502C472.246 84.9085 473.898 81.1708 474.609 78.144C476.851 68.626 479.449 60.4357 481.047 50.7799Z" fill="#2C2921"/>
<path d="M481.047 50.7799C482.794 39.1147 485.599 30.6326 499.739 32.8632C494.166 32.9514 492.379 35.4604 487.332 38.4039L487.075 38.9518C484.451 44.6718 485.905 48.4549 481.047 50.7799Z" fill="#444241"/>
<path d="M168.945 129.259C173.421 129.028 176.907 130.088 180.724 132.338C196.881 141.865 210.753 153.554 223.974 166.82C227.02 169.876 233.403 173.815 234.881 177.999C236.035 181.264 232.279 185.054 230.513 187.836C205.527 181.021 195.138 150.714 167.417 151.705C149.555 165.07 135.263 191.609 124.946 210.924L124.942 211.359C124.931 218.176 125.841 221.08 132.629 224.203C135.629 225.583 138.746 226.924 141.763 228.275C147.348 230.907 152.984 233.567 158.641 236.032C169.355 240.7 179.973 241.768 186.865 251.956C186.837 258.065 187.065 260.358 180.536 262.33C173.169 261.491 166.345 255.948 159.431 253.453C147.226 249.049 135.239 243.952 123.248 239.071C118.033 237.717 105.479 231.016 103.989 225.193C99.4162 207.314 120.223 184.553 128.011 168.964C129.567 167.915 134.571 159.088 135.167 158.466C146.4 146.771 153.638 136.164 168.945 129.259Z" fill="#2C2921"/>
<path d="M125.761 184.947C126.163 184.932 126.566 184.916 126.967 184.916C128.181 184.918 128.65 185.013 129.515 185.888C129.836 187.367 129.396 188.733 129.074 190.18C128.667 190.177 128.257 190.176 127.851 190.147C126.553 190.052 126.022 189.681 125.19 188.71C124.985 187.218 125.25 186.349 125.761 184.947Z" fill="white"/>
<path d="M106.614 260.385C113.295 260.69 120.163 263.015 126.742 264.266C137.848 266.377 150.55 267.461 161.218 270.88C163.893 271.737 166.538 273.027 168.565 275.012C170.287 276.698 171.644 278.796 171.594 281.292C171.524 284.783 169.11 287.282 166.845 289.637C159.181 291.56 149.558 287.683 142.058 285.864C132.043 283.435 113.865 279.839 104.489 284.973C99.8875 295.698 97.6685 308.608 95.6773 320.098C94.0012 329.77 90.9593 362.073 96.4445 369.425C97.0518 370.239 97.6681 370.782 98.6252 371.153C103.18 372.912 116.484 373.62 122.112 374.247C130.763 375.449 139.622 374.121 148.299 375.474C151.352 375.95 154.482 377.022 156.293 379.697C157.771 381.879 158.303 385.491 157.585 388.025C156.95 390.267 154.34 391.609 152.491 392.75C152.394 392.755 152.297 392.761 152.199 392.765L151.714 392.782C142.259 393.189 132.513 391.233 123.083 390.544C113.111 389.816 102.605 390.145 92.747 388.73C89.6924 388.292 85.0194 387.403 82.442 385.634C79.6999 383.753 78.1967 379.005 77.6484 375.856C76.4787 369.144 76.0731 360.966 76.2428 354.144C76.4225 346.946 77.7244 340.04 78.4128 332.916C79.1016 325.784 79.0232 318.655 79.871 311.505C80.4945 306.243 81.945 301.159 83.0133 295.981C84.562 288.473 86.7211 271.866 91.2573 265.969C94.8566 261.29 101.251 261.003 106.614 260.385Z" fill="#2C2921"/>
<path d="M697.42 408.342C705.623 407.29 717.544 414.049 724.959 417.697C729.888 420.122 753.042 430.679 754.239 434.815C757.332 445.5 746.6 467.874 742.269 478.197C739.518 484.757 736.992 491.398 733.836 497.777C731.617 502.262 729.028 506.543 726.566 510.892C721.663 519.559 716.693 531.08 707.378 535.794C704.992 537 702.264 537.631 699.698 538.342C696.659 536.392 693.31 534.952 690.231 533.047C683.856 529.108 677.769 524.727 671.295 520.936C665.988 518.388 658.294 513.841 654.314 509.533C652.905 508.002 651.896 506.232 652.068 504.085C652.392 500.019 656.178 496.292 659.059 493.725C669.287 497.489 677.499 505.881 687.912 509.361C691.554 510.582 695.237 510.401 698.676 508.601C702.795 506.449 705.663 502.518 708.067 498.655C711.381 493.334 713.618 486.954 716.207 481.232C721.204 470.197 726.899 458.834 730.582 447.299C730.253 445.565 730.014 443.208 728.916 441.791C727.34 439.756 724.067 438.481 721.807 437.385C717.364 435.234 712.88 432.976 708.261 431.238C704.169 429.699 699.419 428.594 695.588 426.543C694.129 425.761 692.698 424.779 691.739 423.402C690.717 421.935 690.361 420.107 690.748 418.363C691.779 413.643 693.418 410.994 697.42 408.342Z" fill="#2C2921"/>
<path d="M215.745 540.206C217.041 540.134 218.143 540.489 219.323 541.021C224.42 543.317 227.496 547.355 229.478 552.447C225.653 561.199 218.837 568.619 214.128 576.943C211.868 580.941 208.881 588.302 210.313 592.895C210.988 595.06 212.455 597.023 214.119 598.536C222.026 605.739 236.009 612.893 245.383 618.471C251.707 622.235 257.78 626.463 264.37 629.767C268.677 631.928 275.621 633.828 280.352 632.09C288.357 629.151 290.877 613.28 294.125 606.059C295.496 603.011 297.305 599.355 300.7 598.212C304.342 596.987 308.112 599.067 311.31 600.629C312.183 602.151 312.921 603.776 313.707 605.348C312.551 614.392 309.421 622.591 306.177 631.032C303.473 637.763 297.051 653.435 290.71 656.596C288.096 657.901 284.916 658.298 282.139 657.415C273.029 654.52 264.996 649.212 256.808 644.444C243.861 637.02 231.11 629.263 218.567 621.177C214.485 618.498 210.656 615.45 206.59 612.754C202.026 609.724 197.035 607.81 192.833 604.191C187.627 599.706 184.291 595.006 181.179 588.969L181.242 583.544C182.699 581.293 183.735 578.794 185.15 576.516C190.527 567.836 202.638 548.602 210.141 542.867C211.786 541.606 213.825 540.931 215.745 540.206Z" fill="#2C2921"/>
<path d="M733.161 258.14C735.993 258.157 738.82 259.35 740.873 261.278C746.577 266.645 757.008 306.547 759.11 315.985C759.993 319.945 760.285 324.024 761.145 327.991C763.338 338.098 766.413 348.176 766.75 358.59C766.948 364.753 766.732 370.168 762.347 374.801C760.533 376.719 758.394 378.391 755.968 379.466C745.73 384.006 725.134 384.648 713.542 385.014C708.463 385.175 696.763 386.518 692.968 382.601C690.343 379.893 690.645 375.718 690.681 372.249C692.373 371.307 694.066 370.315 695.943 369.784C699.685 368.724 703.844 369.034 707.703 368.956C713.195 368.845 718.732 368.467 724.045 366.993C729.524 365.881 734.714 364.906 739.846 362.515C742.944 361.071 745.528 359.065 746.626 355.693C749.958 345.459 736.168 295.341 730.5 284.393C729.578 282.606 728.475 280.833 726.458 280.192C722.284 278.866 703.367 283.361 698.577 284.746C694.053 286.055 681.933 291.357 677.652 289.725C676.108 289.138 675.347 286.884 674.757 285.489C673.596 282.763 671.642 278.836 672.821 275.9C675.613 273.079 680.484 272.118 684.148 270.776C703.07 263.845 713.042 260.813 733.161 258.14Z" fill="#2C2921"/>
<path d="M615.57 145.844C616.997 143.654 618.681 141.137 620.293 139.076C627.239 130.207 631.012 119.528 644.274 121.494C647.84 122.255 651.379 123.271 654.516 125.194C670.678 135.106 709.107 178.151 720.308 195.407C724.342 201.624 727.993 209.265 726.336 216.879C724.292 226.286 711.984 235.447 704.204 240.369C699.851 243.121 695.291 245.544 690.892 248.228C687.147 250.517 683.595 253.679 679.457 255.215C677.508 255.939 675.46 256.347 673.407 255.807C668.644 254.556 664.682 247.448 662.44 243.312C662.588 239.697 674.447 236.996 678.017 235.072C688.16 229.603 704.677 223.388 707.91 211.204C707.824 202.863 695.592 190.599 690.654 184.875C681.519 174.66 672.763 164.506 662.462 155.423C657.929 151.426 653.076 145.111 645.985 145.064C634.874 144.992 625.177 161.11 616.966 167.82C612.576 171.404 611.496 174.744 606.134 178.351C602.595 176.809 594.748 174.142 598.17 168.923C603.248 161.189 609.006 152.325 615.57 145.844Z" fill="#2C2921"/>
<path d="M615.57 145.844C616.997 143.654 618.681 141.137 620.293 139.076C627.239 130.207 631.012 119.528 644.275 121.494C641.312 121.374 635.041 124.914 632.975 127.052C630.796 129.39 628.756 130.72 626.177 132.558C625.398 135.428 624.538 139.32 623.093 141.812L622.057 142.599C621.283 140.699 623.39 141.971 621.936 140.387C618.667 141.764 619.599 143.778 615.57 145.844Z" fill="#444241"/>
<path d="M626.177 132.558C628.756 130.72 630.796 129.39 632.975 127.052C635.154 130.695 636.5 131.049 640.587 132.308C633.371 141.61 634.028 133.372 630.143 131.375C624.565 132.243 628.158 141.056 623.097 143.719L622.431 143.545C622.724 142.597 622.571 142.939 623.228 142.146L623.093 141.812C624.538 139.32 625.398 135.428 626.177 132.558Z" fill="#3E362E"/>
<path d="M148.513 412.505C149.07 412.418 149.626 412.334 150.189 412.293C152.205 412.149 154.567 413.312 156.052 414.611C158.089 416.393 159.071 419.047 159.167 421.715C159.21 422.931 159.031 424.473 158.256 425.467C154.275 430.571 135.965 434.298 129.215 436.944C121.954 439.792 112.939 444.337 107.553 449.992C107.519 451.437 107.425 453.035 107.809 454.439C110.53 464.367 136.236 515.196 143.238 523.345C144.299 524.583 145.762 526.271 147.383 526.681C152.936 528.081 167.683 518.856 172.681 515.61C177.827 512.27 183.935 505.872 190.617 506.606C195.191 507.11 198.753 513.031 201.544 516.344C198.279 521.198 194.212 524.466 189.396 527.73C183.989 531.814 177.828 535.168 172.092 538.778C165.021 543.231 158.295 548.922 150.269 551.52C148.243 550.732 146.188 549.944 144.302 548.854C131.063 541.192 116.984 510.131 109.713 496.31C106.454 490.115 102.685 484.046 99.7881 477.68C95.8556 469.035 92.1505 459.554 89.7505 450.356C88.7947 446.695 87.8831 440.955 90.0571 437.593C94.1885 431.202 124.415 419.168 132.643 416.443C137.767 414.745 143.25 413.717 148.513 412.505Z" fill="#2C2921"/>
<path d="M632.727 530.715C634.024 530.895 635.446 531.206 636.68 531.661C644.621 534.587 669.215 560.024 675.126 567.408C678.323 571.397 680.988 575.341 683.162 579.991C680.538 583.89 678.503 588.1 675.73 591.913C666.064 605.199 653.278 616.927 640.736 627.444C635.018 632.234 628.761 635.985 622.611 640.163C618.343 643.058 614.233 646.326 609.627 648.676C605.765 650.648 600.133 653.214 595.689 652.674C587.019 651.625 566.463 625.008 560.142 617.44C556.617 613.667 549.436 605.613 547.933 600.823C547.401 599.13 547.374 597.365 548.302 595.803C549.382 593.975 551.647 592.773 553.668 592.327C555.401 591.949 557.193 592.224 558.652 593.259C562.65 596.082 565.877 601.187 569.096 604.897C576.817 613.789 586.055 624.108 595.838 630.677C597.675 631.91 599.003 632.225 601.168 631.753C613.954 628.961 650.766 594.943 658.379 583.134C652.198 564.121 630.553 553.559 624.601 538.977C626.865 535.573 629.391 533.07 632.727 530.715Z" fill="#2C2921"/>
<path d="M276.189 54.1494C278.318 54.0629 280.43 53.9405 282.525 54.4168C291.137 56.3766 296.622 64.5543 300.977 71.5768C305.01 78.0793 323.323 111.083 321.658 116.81C320.846 119.602 318.246 121.18 315.867 122.504L310.798 120.086C305.423 110.737 301.47 101.12 295.432 91.8532C288.614 81.3893 287.414 75.1902 274.472 71.145C259.991 75.4199 249.682 83.2365 237.834 92.343C235.827 93.885 233.692 96.6624 232.098 97.9509C228.638 100.747 227.943 100.238 225.03 104.236L225.033 111.736L227.876 115.931C234.112 125.674 240.357 132.994 247.763 141.79C250.321 145.053 252.66 148.734 255.044 152.075C259.221 157.927 254.666 160.743 249.813 163.385C243.288 158.673 242.082 156.344 236.233 150.564C225.428 139.889 208.852 126.503 204.135 111.756C202.815 107.628 205.819 97.4751 207.952 95.2942C210.581 92.6055 221.085 85.8586 224.54 83.485C236.596 75.2051 262.094 56.8745 276.189 54.1494Z" fill="#2C2921"/>
<path d="M718.962 304.788C720.078 304.647 721.514 304.397 722.577 304.9C724.153 305.646 724.792 307.759 725.328 309.312C727.011 314.215 732.913 335.952 730.716 339.7C728.569 343.368 713.492 343.583 709.071 344.169C706.172 344.553 703.3 345.218 700.45 345.85C698.757 345.913 696.614 346.225 695.129 345.262C690.032 341.956 687.682 321.222 686.611 314.908C687.115 314.866 687.619 314.803 688.123 314.763C691.743 314.477 695.02 312.773 698.451 311.67C705.343 309.455 712.376 307.907 718.962 304.788Z" fill="#2C2921"/>
<path d="M120.836 307.16C125.541 307.65 130.409 309.11 135.078 310.046C141.222 311.278 147.782 312.12 153.791 313.823C155.199 314.223 156.399 314.714 157.603 315.567C158.324 317.377 154.97 337.944 153.978 340.331C153.418 341.678 152.825 342.119 151.509 342.673C150.18 343.06 148.827 343.398 147.433 343.388C145.016 343.372 118.22 341.368 116.486 340.584C115.37 340.079 114.802 339.017 114.436 337.882C113.088 333.699 114.529 313.213 116.512 309.119C117.733 307.844 119.191 307.604 120.836 307.16Z" fill="#2C2921"/>
<path d="M164.202 452.472L164.929 452.616C168.221 455.52 176.165 474.272 177.959 479.053C178.287 479.931 179.17 482.092 178.685 482.875C176.629 486.207 154.818 495.778 150.206 497.462C149.182 497.674 148.661 497.611 147.674 497.372C144.609 495.202 141.668 484.442 139.996 480.624C139.008 478.369 137.762 476.23 136.741 473.988C135.637 471.566 134.834 469.058 135.899 466.456C138.847 459.261 157.163 455.552 164.202 452.472Z" fill="#2C2921"/>
<path d="M515.149 81.9998C520.385 83.5814 550.449 96.408 551.426 100.449C550.872 100.723 550.337 101.024 549.783 101.305C546.258 103.107 539.271 114.845 536.039 118.671C534.287 120.679 530.136 126.323 527.944 126.567C523.05 127.111 511.174 120.993 507.379 118.228C506.474 111.237 511.935 87.4087 515.149 81.9998Z" fill="#2C2921"/>
<path d="M650.136 171.813C650.271 171.879 650.402 171.95 650.537 172.011C655.367 174.181 669.679 191.743 673.456 196.806C670.701 200.549 665.389 204.43 661.733 207.576C657.371 211.348 653.085 215.209 648.88 219.156C648.304 219.172 647.021 219.038 646.634 218.582C640.389 211.227 632.475 205.118 626.006 198.091C630.827 192.052 634.393 188.164 639.795 182.702C643.437 179.021 645.963 175.368 650.136 171.813Z" fill="#2C2921"/>
<path d="M601.123 555.878C601.303 555.869 601.479 555.855 601.659 555.86C605.481 555.995 624.385 577.542 628.297 582.008C623.552 587.235 613.153 598.531 607.57 602.151C606.796 602.264 607.039 602.331 606.427 602.124C604.194 601.359 582.562 577.196 581.351 574.422C582.746 571.698 597.738 559.016 601.123 555.878Z" fill="#2C2921"/>
<path d="M677.409 447.058C682.492 447.382 687.295 450.234 692.207 451.454C696.452 452.512 701.301 452.17 705.258 454.196C706.487 454.827 707.523 455.587 707.896 456.947C709.098 461.301 698.915 484.442 696.308 489.214C696.236 489.241 696.164 489.273 696.092 489.295C694.575 489.759 692.95 489.714 691.46 489.169C683.811 486.427 674.69 477.576 666.082 473.533C668.139 465.654 673.92 454.8 677.409 447.058Z" fill="#2C2921"/>
<path d="M391.913 66.7626C395.733 66.3772 402.42 66.1318 405.38 68.8521C407.029 72.9526 408.678 102.806 407.913 106.585C406.834 107.021 395.846 108.467 393.868 108.771C391.031 108.938 385.498 109.834 384.277 106.629C381.685 99.8188 376.334 74.8543 378.526 68.7314C382.989 68.3586 387.49 67.5086 391.913 66.7626Z" fill="#2C2921"/>
<path d="M252.589 567.16C254.925 568.587 256.91 570.433 259.341 571.766C264.058 574.355 270.191 575.845 274.235 579.402C274.451 581.13 274.25 582.724 273.882 584.412C273.409 586.582 265.675 610.327 265.259 610.786C265.019 611.047 264.659 611.169 264.359 611.362C262.261 611.507 260.364 610.791 258.377 610.192C251.373 607.5 240.438 602.453 235.009 597.365C236.361 590.045 247.391 572.941 252.589 567.16Z" fill="#2C2921"/>
<path d="M169.809 181.086C171.3 181.016 172.751 180.93 174.161 181.499C179.422 183.625 199.716 199.703 203.811 204.174C204.838 205.296 205.449 206.866 206.054 208.246C204.269 211.536 198.351 221.818 195.106 222.813C193.991 222.281 188.619 219.164 187.638 218.456C181.713 214.178 162.264 206.717 159.178 200.993C159.057 197.452 167.662 184.678 169.809 181.086Z" fill="#2C2921"/>
<path d="M268.552 100.043C276.067 100.044 282.877 115.998 285.672 121.943C286.749 124.233 292.529 133.016 291.003 134.683C288.487 137.43 280.177 142.645 276.636 143.498C272.602 140.947 270.107 135.603 267.042 131.961C263.358 127.517 259.451 123.305 256.004 118.666C248.298 108.296 259.682 101.935 268.552 100.043Z" fill="#2C2921"/>
</g>
<defs>
<clipPath id="clip0_15_266">
<rect width="922" height="728" fill="white"/>
</clipPath>
</defs>
</svg>
