<svg width="228" height="428" viewBox="0 0 228 428" fill="none" xmlns="http://www.w3.org/2000/svg">
<g clip-path="url(#clip0_15_319)">
<path d="M0 0H228V427.5H0V0Z" fill="white"/>
<path d="M108.345 37.9173C110.223 34.1245 111.686 32.1313 116.076 32.9251C120.343 34.7843 123.28 42.7896 125.611 46.4871C127.271 48.8439 129.375 50.8941 131.162 53.1583C132.991 55.4755 133.958 59.1164 135.576 61.3276C139.347 66.4812 142.959 70.8878 145.189 76.9992C145.619 78.1795 147.472 79.8659 148.069 81.0672C149.112 83.035 149.835 85.2473 150.87 87.2283C152.453 89.9543 154.262 92.5738 155.832 95.3067C157.515 98.2369 158.898 101.402 160.573 104.333C162.243 107.257 164.478 109.976 166.183 112.883C167.787 115.619 169.045 118.598 170.67 121.326C173.035 125.072 175.113 127.122 176.731 131.419C177.879 134.269 178.742 137.237 180.004 140.037C181.165 142.614 183.113 144.842 184.429 147.283C186.046 150.285 187.287 153.594 188.861 156.646C191.603 161.964 192.941 167.945 194.888 173.577C195.596 175.636 196.93 177.61 197.534 179.724C198.379 183.423 198.548 186.41 199.703 190.143C200.988 194.295 203.115 197.465 204.507 201.479C205.199 203.609 204.96 206.106 205.578 208.237C206.632 211.897 208.313 215.4 209.166 219.118C209.962 222.481 210.327 225.978 210.604 229.421C210.907 233.424 211.975 237.45 212.34 241.431C213.002 248.64 212.74 256.133 212.774 263.338C212.789 266.522 212.65 266.486 210.73 268.045C210.292 268.401 211.999 273.242 211.786 273.999C211.378 279.322 210.241 285.027 209.211 290.246C208.518 293.753 206.839 297.498 205.547 300.793C204.528 303.394 203.442 306.295 202.281 308.749C197.999 317.624 192.18 325.67 185.092 332.515C183.446 334.076 181.486 334.138 180.119 335.349C178.441 336.837 177.933 340.038 176.108 341.822C171.59 346.237 166.273 347.851 160.547 350.029C158.278 350.891 156.122 351.966 153.885 352.721C141.797 356.873 129.247 359.534 116.513 360.648C114.893 360.788 109.822 361.293 108.549 361.157C104.938 360.774 102.624 359.862 98.6547 359.646C86.629 358.993 74.9266 356.642 64.0031 351.41C59.4387 349.134 55.5787 346.202 51.2972 343.394C47.0621 340.617 42.1734 338.084 38.3538 334.566C30.926 327.723 23.0188 317.851 19.7151 308.185C18.9727 305.395 17.4598 302.545 16.76 299.782C14.749 291.836 13.0319 282.373 13.4931 274.168C13.8534 267.76 15.6278 259.092 17.0236 252.748C18.3149 246.881 21.001 240.963 22.0157 234.911C22.9921 230.952 23.687 226.905 24.7738 222.939C26.0237 218.379 28.0283 212.626 29.6682 208.169C30.7216 205.306 33.7297 202.432 33.1027 198.671C33.0944 198.57 32.5783 197.613 32.4924 197.46C34.327 193.174 36.3456 188.77 38.0209 184.359C39.3132 180.957 41.4781 178.239 42.0216 174.282C42.4039 172.8 44.4183 169.9 45.0998 168.111C47.2309 162.518 48.7937 154.963 51.2852 149.598C56.4377 138.714 62.6892 128.433 67.8165 117.54C70.8921 111.006 73.0514 103.106 76.2583 96.6217C80.1989 88.6535 85.5729 81.5846 89.0502 73.2749C91.051 68.4938 94.8459 63.4593 96.8169 58.4702C100.828 51.5668 104.86 45.1894 108.345 37.9173Z" fill="#25261D"/>
<path d="M108.345 37.9173C110.223 34.1245 111.686 32.1313 116.076 32.9251C115.359 32.9905 113.073 33.0783 112.667 33.4541L112.61 33.8856C112.945 33.8696 113.307 33.9411 113.642 33.9727C113.54 35.261 110.767 37.1326 109.33 37.2337C108.99 37.5114 108.748 37.746 108.345 37.9173Z" fill="#423F3F"/>
<path d="M112.046 61.7156L115.462 61.7228C118.746 65.9172 122.601 69.8381 125.567 74.2563C127.999 77.8814 129.658 81.9506 131.856 85.7133C135.295 91.599 139.234 97.2725 142.301 103.376C143.639 106.038 144.337 109.055 145.712 111.649C146.268 112.699 147.154 113.529 147.703 114.583C148.463 116.043 149.034 117.605 149.764 119.081L158.68 137.095C160.582 140.912 162.867 144.57 164.698 148.408C166.01 151.16 166.834 154.142 168.117 156.911C169.546 159.996 171.392 162.873 172.715 166.015C178.27 179.206 182.614 192.741 186.949 206.359C187.9 209.346 189.288 212.169 190.156 215.189C191.254 219.009 191.663 222.955 192.582 226.807C192.939 228.301 193.812 229.643 194.346 231.079C194.919 232.618 194.91 234.853 194.988 236.488C195.203 240.999 194.262 251.421 195.997 254.988C194.262 261.405 193.174 267.976 191.631 274.433C190.132 280.703 188.16 286.748 186.204 292.88C184.782 297.335 183.588 301.808 181.283 305.916C178.788 310.365 172.973 317.016 169.122 320.402C162.061 326.614 153.735 330.689 144.994 333.929C142.6 334.815 140.22 335.752 137.716 336.289C135.187 336.828 132.561 336.67 130.019 337.077C128.134 337.38 126.27 337.847 124.373 338.063C122.328 338.297 120.22 338.25 118.161 338.337C114.493 338.491 110.771 338.751 107.103 338.54C105.342 338.438 103.95 337.095 102.179 336.919C99.1156 336.616 95.9762 337.126 92.9026 336.725C89.4009 336.269 86.0448 335.064 82.6286 334.216C80.3386 333.648 77.7101 333.374 75.5561 332.421C74.2491 331.842 73.0684 330.881 71.8431 330.137C63.5785 325.125 55.8918 319.216 48.9215 312.52C47.9042 311.534 46.805 310.483 46.0584 309.27C44.7205 307.096 44.9184 305.845 42.8673 304.055C42.0145 303.311 41.6979 301.283 41.2651 300.23C40.7244 298.912 39.9151 297.656 39.3124 296.353C37.3692 292.154 35.5192 287.109 35.3219 282.455C35.142 278.211 35.2222 273.925 35.205 269.677C35.189 265.658 34.8739 261.249 35.6205 257.299C36.0858 254.837 36.9729 252.265 38.69 250.399C47.8396 248.333 56.3627 246.855 65.7733 246.596C72.9771 246.398 80.3219 245.098 87.6706 245.648C88.8302 245.565 90.4641 245.761 91.5705 245.59C98.5663 244.497 104.895 244.686 111.882 244.768C117.958 244.842 124.244 244.047 130.426 244.681C132.296 244.873 134.596 244.49 136.655 244.661C145.368 244.652 156.662 250.858 158.999 260.381C159.64 262.993 159.494 270.367 159.11 273.05C158.044 280.513 153.33 288.451 147.039 292.711C143.722 295.02 137.491 297.89 133.544 296.814C128.121 295.305 124.788 295.897 121.231 290.818C117.477 285.461 118.217 280.066 123.575 275.96C125.547 274.448 127.447 274.54 129.827 275.009C131.421 276.27 133.298 278.979 134.974 279.819C136.909 280.787 138.823 280.233 140.727 282.437C141.158 282.938 143.152 283.675 143.578 282.591C144.381 279.972 146.812 277.848 147.915 275.7C150.753 270.171 144.915 262.935 140.448 260.165C138.42 258.909 135.745 258.658 134.064 257.716C128.278 254.474 121.725 257.15 115.538 257.86C111.16 258.515 104.014 266.388 102.046 270.271C99.7368 274.822 98.1827 282.036 100.416 287.051C101.687 290.48 102.374 292.007 103.921 295.104C108.149 304.231 116.249 306.974 124.973 311.069C138.683 317.503 154.689 309.581 164.117 299.257C168.246 294.735 171.235 288.246 172.475 282.379C173.144 279.211 174.648 276.232 175.14 273.001C176.09 269.343 175.462 265.144 175.908 261.528C176.618 255.779 176.783 252.078 175.985 246.347C175.607 243.637 176.303 240.845 175.739 237.561C174.81 232.146 173.106 228.445 171.191 223.36C169.446 217.358 168.282 211.175 166.478 205.173C165.206 200.478 162.19 196.11 160.469 191.776C156.752 182.415 153.554 173.818 148.246 165.212C146.119 161.762 143.284 155.306 141.489 151.389C137.573 142.846 133.859 134.068 129.884 125.531C128.191 121.716 126.819 117.891 124.954 114.142C124.112 112.352 123.584 110.165 122.702 108.421C119.581 102.253 116.062 96.1675 112.857 90.0736C109.848 84.3921 107.337 78.4607 105.352 72.3459C106.209 69.4354 107.407 67.327 109.462 65.1078C110.441 64.0513 111.405 63.0079 112.046 61.7156Z" fill="white"/>
<path d="M99.1953 212.286C106.8 212.031 114.507 212.196 122.118 212.249C128.313 212.292 142.935 211.922 147.307 216.515C148.652 217.927 148.507 219.627 148.477 221.433C147.307 223.578 145.829 225.019 144.071 226.691C140.175 226.666 136.229 226.582 132.342 226.853C129.218 227.071 126.106 227.599 122.977 227.715C122.13 227.746 116.572 227.559 116.318 227.733C116.118 227.869 115.947 228.581 115.568 228.879L115.063 228.735L114.634 227.784C113.368 227.176 110.242 228.358 108.854 228.566C104.293 229.247 98.1983 229.503 93.6456 229.149C85.5837 229.035 77.4264 229.427 69.3807 229.024C66.7699 228.893 64.2915 227.822 61.6995 227.713C60.1069 227.644 58.4519 228.946 57.3435 228.739C57.1302 228.412 56.9962 228.122 56.8681 227.753L56.8249 227.624L56.4825 227.677L56.0514 228.753C54.5173 229.372 51.8365 228.739 50.2682 228.238C48.5196 227.684 46.0726 226.766 45.2245 225.028C44.164 222.857 45.3475 220.167 46.0971 218.088C47.0189 217.323 48.4809 216.205 49.6456 215.921C53.7111 214.929 58.1909 215.538 62.3406 215.22L99.1953 212.286Z" fill="white"/>
<path d="M99.8928 182.668C102.69 182.272 112.74 183.408 116.045 183.81C117.427 183.978 118.851 184.338 120.233 184.4C121.417 184.454 122.703 184.076 123.877 183.908C125.427 183.691 126.993 183.611 128.558 183.668C132.686 183.797 135.452 185.795 138.179 188.703C138.313 191.043 138.247 193.391 137.983 195.72C135.874 196.733 133.388 197.171 131.122 197.733C128.272 198.441 125.374 199.276 122.472 199.71C120.147 200.058 117.72 200.081 115.369 200.212C112.726 200.359 110.044 200.679 107.401 200.711C105.782 200.73 104.149 200.498 102.53 200.429C99.5813 200.304 96.6333 200.322 93.6831 200.169C90.533 200.064 87.4888 199.068 84.3494 198.859C76.248 198.318 61.4826 199.742 54.6385 196.408C54.3616 195.463 53.9661 194.552 53.5999 193.639C53.9223 192.634 54.4785 191.67 55.1322 190.847C58.8806 186.128 68.7336 185.578 74.3652 184.843C77.0333 184.495 79.7295 183.969 82.4156 183.812C85.4032 183.636 88.4044 183.76 91.3935 183.569C94.2288 183.388 97.0726 183.01 99.8928 182.668Z" fill="white"/>
<path d="M91.0196 152.838C91.193 152.829 91.3665 152.823 91.5399 152.817C95.2487 152.699 98.9851 152.811 102.698 152.777C107.389 152.733 112.729 152.148 117.305 153.137C119.055 153.515 120.793 154.346 122.087 155.598C123.394 156.863 123.956 158.329 123.967 160.136C123.973 161.048 123.812 162.035 123.14 162.701C120.294 165.52 106.136 167.787 102.032 167.844C95.4159 167.54 88.8092 167.966 82.1908 167.961C81.214 167.96 77.2091 168.635 76.9121 168.502C74.1928 167.291 71.3314 165.326 69.3032 163.148C69.6811 162.241 70.0574 161.227 70.7287 160.496C74.4971 156.395 85.5395 153.161 91.0196 152.838Z" fill="white"/>
<path d="M97.904 123.675C99.5601 123.541 101.302 123.841 102.895 124.283C107.551 125.573 110.387 126.709 112.857 131.06C111.465 132.946 110.259 134.372 108.102 135.395C107.267 135.791 106.422 136.112 105.668 136.659L105.529 136.762C102.702 136.888 99.8609 136.831 97.0314 136.83C92.6097 136.848 88.1318 137.052 83.7212 136.741C82.9635 135.248 82.644 133.593 81.9607 132.061C82.461 130.916 82.9591 129.387 83.7624 128.429C84.2496 127.848 85.2137 127.348 85.8797 126.971C89.7004 124.809 93.5618 123.943 97.904 123.675Z" fill="white"/>
<path d="M97.572 101.839C99.1245 102.155 99.9508 102.998 101.038 104.069C101.29 105.249 101.478 106.154 102.101 107.218C101.705 108.055 101.312 108.905 100.711 109.618C99.3737 111.205 97.6586 111.886 95.6253 112.046C94.7188 112.048 93.6973 112.157 92.926 111.613C91.7793 110.809 91.0085 109.573 90.7903 108.19C90.593 106.919 90.8041 105.592 91.5952 104.552C93.0131 102.688 95.387 102.169 97.572 101.839Z" fill="white"/>
</g>
<defs>
<clipPath id="clip0_15_319">
<rect width="228" height="427.5" fill="white"/>
</clipPath>
</defs>
</svg>
