<svg width="175" height="179" viewBox="0 0 175 179" fill="none" xmlns="http://www.w3.org/2000/svg">
<g clip-path="url(#clip0_15_418)">
<path d="M0 0H175V178.418H0V0Z" fill="white"/>
<path d="M83.4499 19.9678C85.041 19.7504 88.8429 23.2976 90.3571 23.882C95.9137 26.0266 100.627 27.0411 102.982 33.2924C105.053 32.2639 111.152 30.5708 113.351 29.5928C115.028 28.8471 123.114 28.8902 125.121 29.2072C129.332 29.8727 135.883 38.3747 137.281 42.3136C137.813 44.0376 136.322 50.9216 135.847 53.0773C139.621 54.3269 140.984 54.0981 144.097 57.3465C147.665 60.9931 148.484 65.7108 149.098 70.517C149.624 74.6402 148.363 75.696 147.559 79.1702C147.236 80.5668 152.017 82.8495 153.206 84.2562C154.727 86.0549 159.453 91.612 159.405 94.1702C158.065 95.084 158.575 95.4275 158.478 97.0631C158.41 98.1994 158.613 100.904 158.307 101.893C157.283 105.113 154.642 107.696 152.059 109.7C149.312 111.833 148.313 112.568 150.32 115.639C152.772 119.391 152.761 124.378 154.165 128.604C153.674 130.304 153.566 133.359 152.832 134.822C150.953 138.564 144.154 141.722 140.126 142.231C138.135 142.482 135.302 142.165 133.36 142.728C132.839 142.879 132.385 144.129 132.166 144.663C132.51 147.132 133.494 150.908 133.183 153.282C132.923 155.269 130.65 158.937 128.957 160.096C127.905 160.816 126.455 161.418 125.392 162.041C121.255 164.467 119.095 165.245 114.233 164.787C112.624 164.635 111.749 164.82 110.218 164.005C108.714 163.205 106.207 160.695 104.695 160.537C101.907 160.247 100.787 166.695 99.2305 168.746C98.1519 170.168 98.0041 170.507 96.478 171.726C93.073 174.441 86.7129 174.318 82.5964 173.829C75.7627 173.018 73.0083 171.273 68.9194 166.007L66.6894 163.047L66.5624 163.141C59.8281 168.177 58.3636 172.173 48.6177 169.321C41.8501 167.34 39.8887 164.109 36.405 158.187C33.3339 158.744 30.1991 161.416 27.0982 160.317C15.1991 156.097 14.499 146.14 17.265 135.714C13.072 135.731 6.60358 133.327 5.4899 129.121C4.56154 125.616 3.83991 118.873 3.69777 115.224C3.46831 109.333 7.19581 103.698 12.936 102.124C13.5932 101.944 15.7681 101.314 16.2554 101.069C16.3707 100.864 16.5259 100.698 16.3667 100.476C14.9682 98.7468 13.4394 97.6071 11.8016 95.9379C8.13235 92.1982 6.49716 84.8659 7.53984 79.9082C8.15043 77.0048 12.433 73.0509 15.0721 71.6669C17.6097 70.336 20.1954 69.7228 22.1028 67.2468C20.8736 66.0155 19.8203 65.3642 18.3084 64.5212C16.6277 61.3062 15.0173 55.9224 16.5851 52.3467C18.3499 48.7971 20.2635 43.8167 23.5589 41.3778C25.1351 40.2112 29.3248 39.1067 31.3002 39.3273C31.9372 39.3984 34.8729 39.8272 35.1542 39.7083C36.5945 37.583 35.9068 34.366 36.9729 31.7387C38.2016 28.7111 39.2108 25.3436 42.483 23.7733C47.0292 21.5918 53.456 21.5055 58.3072 22.7155C63.7289 24.392 66.2403 28.3992 68.6528 33.1051C70.7397 31.1808 71.2454 29.354 72.7286 27.0609C74.3641 24.5325 77.1552 22.6765 79.9157 21.5952C80.9503 21.1899 82.478 20.5919 83.3894 20.0073L83.4499 19.9678Z" fill="#302F27"/>
<path d="M100.166 41.6473C100.752 41.7749 100.766 42.4166 100.781 42.9427C100.925 47.7897 100.647 49.9249 103.72 54.0451C105.863 56.9182 108.323 61.1422 112.426 61.5137C114.354 61.6884 115.895 61.5349 117.885 61.8823C117.304 64.0517 116.157 66.0656 115.28 68.1502C111.633 76.8086 122.855 83.4618 129.876 85.8038C128.561 90.1787 128.15 94.144 126.513 98.8598C128.832 104.443 130.081 105.551 134.161 109.803C130.605 113.596 126.179 112.012 122.751 118.796C119.629 124.975 120.971 127.738 122.973 134.05C121.236 134.652 119.208 134.492 117.246 135.14C111.66 136.983 109.126 140.073 105.796 144.669C104.705 146.175 103.967 147.611 102.777 149.062C102.025 148.267 101.309 147.408 100.557 146.608C93.8236 139.447 80.655 137.438 72.7304 143.779C71.1852 145.015 69.6284 146.039 67.9297 146.996C65.9808 144.85 64.2058 142.855 62.033 140.928C56.527 137.302 52.9221 139.417 47.4995 141.615C43.9072 134.415 42.9953 133.076 35.5258 130.184C36.2075 125.639 38.7211 125.923 38.0105 119.225C37.6749 114.405 35.0878 109.681 31.5495 106.448C30.2558 105.266 26.6589 103.808 26.5427 101.946C27.2762 100.083 33.4843 98.4155 35.5615 96.371C38.225 93.7494 40.0242 91.1051 40.3407 87.3479C40.9942 79.5917 36.3573 75.815 31.691 70.4636C34.3019 68.6586 38.8865 68.0738 41.4377 65.4686C44.0596 62.7912 43.6445 59.0873 43.6637 55.6021C45.5531 55.5808 47.7054 55.718 49.5957 55.9108C50.0705 55.9593 49.6381 56.303 50.4858 56.3828C51.114 55.7664 51.1005 55.9328 51.8989 55.818C55.9316 55.2315 59.9833 54.5858 63.2416 52.0035C66.4576 49.4551 66.6256 44.7711 68.9732 42.1615L69.0271 42.2201C71.5162 44.9772 72.3139 48.0913 75.9339 49.0092C83.0378 50.8102 87.9987 50.7842 94.1392 46.2595C96.6236 44.4286 97.3323 43.2021 100.166 41.6473Z" fill="white"/>
<path d="M88.9904 56.0147C89.855 55.9139 91.4399 56.7468 92.0153 57.3797C94.1934 59.7751 93.3653 63.1704 93.6823 66.0939C93.8111 67.2911 94.6065 68.7646 94.4571 69.9674C94.2343 71.7623 93.6237 72.9562 93.5874 74.8486C94.9922 77.5609 94.6463 83.2879 94.2712 86.3726C93.6712 91.3057 92.4115 91.8042 97.0358 95.3049C97.3639 94.8804 98.216 93.7766 98.3066 93.2905C99.1796 88.6081 98.6481 83.8559 98.5848 79.223C98.5141 74.024 98.4051 68.5718 98.5602 63.4235C99.3223 62.9441 99.8734 62.395 100.529 61.7882C101.733 62.5929 102.33 63.2191 103.257 64.2874C103.567 65.8496 103.669 67.9764 103.605 69.5927C103.265 78.2288 104.322 86.6417 104.528 95.2386C104.598 98.1801 105.053 101.183 104.254 104.04C103.257 107.609 101.263 110.619 99.3342 113.733C98.5753 114.979 96.0227 118.026 96.6838 119.468C98.6446 120.349 104.229 115.97 107.37 118.607C109.753 120.608 111.337 122.728 112.358 125.82C112.523 126.342 111.796 126.294 111.81 126.856C112.082 137.092 99.5702 137.657 92.1302 137.429C89.8273 137.359 87.3602 137.478 85.0326 137.355C83.7411 137.286 82.221 136.639 80.9621 136.752L80.8452 136.764C78.8165 136.95 76.6087 138.18 74.5386 138.236C72.1233 138.273 69.8925 137.162 67.522 136.796C63.7568 136.214 59.9035 137.332 56.3504 135.577C50.3043 132.591 46.3602 128.676 43.8948 122.405C44.9699 118.3 45.5395 117.374 49.1851 114.818C53.3709 112 58.3225 116.278 61.4245 118.908C63.5161 120.681 66.4325 124.872 69.4614 124.839C71.9353 124.812 74.1612 124.075 76.7315 124.594C81.4772 125.551 81.7881 129.7 86.6686 126.484C88.0999 125.585 89.4736 124.82 90.6616 123.621C90.3171 123.049 89.7145 122.296 89.2999 121.744C85.4226 123.706 71.0411 121.474 66.2413 120.424C63.6361 117.934 58.826 112.833 57.2823 109.52C53.3998 101.187 51.019 89.8514 51.0315 80.5892C51.0694 78.8006 50.8842 76.8949 51.461 75.1751C52.4392 72.2591 55.4349 72.3418 56.5712 75.1769C58.8923 80.9684 59.127 87.4152 61.552 93.1658C62.1225 94.5185 63.6282 96.6111 65.3213 95.7547C66.2215 94.5097 65.5644 91.2312 65.9094 89.527C65.8214 88.7411 66.7118 88.6953 66.6311 88.0195C66.2587 84.8958 64.7856 81.8188 66.6714 78.89C66.824 78.6531 66.4865 78.3021 66.3218 77.9796C65.454 76.2798 65.9822 73.6617 65.7089 71.7587C65.8838 68.1119 64.5289 62.7708 67.0096 59.7471C68.6675 57.7264 71.1413 59.5761 71.6858 61.512C71.8905 61.7986 71.1572 63.0181 71.1898 63.1603C72.1472 67.3323 71.822 71.4379 72.1689 75.6243C72.6397 81.3058 73.3177 86.7672 73.376 92.4899C75.1237 92.4991 76.0958 92.8035 75.9258 90.5832C75.8089 89.0562 76.3041 88.4105 74.8976 87.4838L74.9291 87.1502L75.6634 86.8125C76.7022 85.3923 75.0567 61.679 76.6876 58.3422C76.829 58.0532 77.0245 57.2505 77.1167 56.9092C78.6702 56.8417 79.5794 56.8547 81.1301 56.9671C83.59 63.8697 82.0812 71.9785 82.3333 78.8604C82.3761 80.31 82.5115 81.7554 82.7385 83.1877C82.8434 83.8792 83.1944 85.6251 83.1768 86.24C83.105 87.8481 82.2242 89.5877 82.6786 91.181C82.9586 92.1623 84.6547 92.8317 85.553 92.4892C86.0899 91.761 87.0123 84.9364 86.9396 83.5488C86.9027 82.8416 86.4114 82.5491 85.8975 82.1604C85.7958 81.6802 85.8126 81.6245 86.0282 81.1815C86.2649 81.0219 86.8038 80.6699 86.8253 80.412C86.9123 79.3683 86.9155 77.9733 86.9268 76.958C86.9725 73.0133 86.9974 69.0684 87.002 65.1236C87.0053 63.3804 87.0036 61.6371 87.0516 59.8948C87.1064 57.8978 87.2657 57.0992 88.9904 56.0147Z" fill="#302F27"/>
<path d="M101.847 123.755C106.523 123.392 106.624 127.731 104.112 130.242C102.321 132.033 97.0673 133.505 94.5505 133.515C93.6512 133.518 92.6629 133.453 91.7578 133.412C89.1214 131.815 91.1833 130.02 92.7778 128.566C95.2684 126.294 98.6054 124.639 101.847 123.755Z" fill="white"/>
<path d="M53.9651 121.588C54.3635 121.656 55.8067 122.341 56.2649 122.542C60.2968 124.313 62.3193 125.815 65.0749 129.166C65.1106 130.182 64.9818 131.19 64.8818 132.202L63.3213 132.412C63.0443 132.415 61.1521 132.446 60.9169 132.346C57.8392 131.037 52.9821 128.675 51.7819 125.355C51.4704 124.493 53.3803 122.444 53.9651 121.588Z" fill="white"/>
<path d="M73.1506 128.418C77.1947 128.061 81.7078 131.128 76.541 133.293C74.8907 133.614 72.5191 133.485 70.8014 133.41C70.6115 131.614 70.6886 130.386 70.7864 128.601L73.1506 128.418Z" fill="white"/>
<path d="M52.5903 27.5835C56.3367 27.6922 61.2275 30.0563 62.3036 33.8856C63.2379 37.2096 63.5753 39.9853 61.9871 43.1717C60.0656 47.0272 55.7722 49.4905 51.8303 50.768C48.1729 51.3953 43.9233 45.8514 42.5748 42.9095C40.9195 39.2978 41.5918 34.6915 42.8631 30.9588C45.2601 28.9008 49.5331 27.9747 52.5903 27.5835Z" fill="white"/>
<path d="M50.9464 31.9971C53.065 31.7816 54.5806 32.1313 56.0995 33.8C57.837 35.7085 57.6841 37.6599 57.5585 40.0545C56.2268 41.6348 54.403 43.0662 52.6807 44.1918C51.092 44.9219 48.1871 43.7421 47.1771 42.5346C44.7505 39.6332 48.1045 33.4508 50.9464 31.9971Z" fill="#302F27"/>
<path d="M84.9678 147.557C87.6706 147.379 90.133 147.981 92.561 149.147C93.0964 152.915 95.0139 156.667 94.6885 160.449C94.3231 164.697 88.5823 166.773 84.9791 167.242C85.0659 167.231 84.2446 166.774 83.8248 166.704C81.7019 166.595 79.7311 166.695 77.9001 165.23C74.1602 162.237 70.7503 155.849 74.1675 151.454C76.0772 148.999 81.9356 147.807 84.9678 147.557Z" fill="white"/>
<path d="M84.668 150.264C88.9369 150.237 90.4671 153.789 90.2969 157.702C90.1802 160.385 87.6605 161.15 85.4907 161.91C84.8432 162.131 84.076 162.212 83.3916 162.31C79.2811 158.933 78.5346 151.411 84.668 150.264Z" fill="#302F27"/>
<path d="M136.923 115.526C137.821 115.427 142.176 116.089 142.928 116.568C145.366 118.34 147.253 122.192 148.205 124.927C150.617 131.861 144.784 134.703 139.146 136.317C136.696 136.946 135.501 136.912 132.957 136.854C127.953 131.531 125.338 127.971 130.058 121.048C131.91 118.333 133.746 116.573 136.923 115.526Z" fill="white"/>
<path d="M135.763 118.577C137.656 118.176 141.687 123.698 142.155 125.482C142.89 128.288 140.94 130.222 138.453 130.859C132.485 130.225 132.758 127.332 131.71 122.552C132.829 120.778 133.998 119.676 135.763 118.577Z" fill="#302F27"/>
<path d="M117.333 34.8918C119.621 34.6078 122.411 34.9956 124.354 36.2754C126.708 37.8267 130.107 41.8318 130.668 44.5917C131 46.1819 130.674 47.8384 129.766 49.1847C127.491 52.5477 123.47 52.9761 119.838 53.6893C117.965 54.022 116.753 55.352 114.686 54.5149C111.455 53.2063 109.058 49.2083 108.843 45.7857C108.844 45.7888 109.462 45.5593 109.68 45.0273C109.558 44.2429 109.452 44.3914 109.005 43.8746C108.275 43.0295 108.525 40.5002 108.538 39.4129C111.216 36.3046 113.426 35.7892 117.333 34.8918Z" fill="white"/>
<path d="M118.338 37.8752C119.189 38.33 120.054 38.7466 120.905 39.2026C123.678 40.6882 123.56 44.193 122.481 46.7568C120.76 48.077 119.678 48.4868 117.618 48.8375C115.668 48.9549 114.98 48.8204 113.554 47.451C110.664 38.5009 116.024 40.6687 118.338 37.8752Z" fill="#302F27"/>
<path d="M55.6505 143.434C57.4503 143.106 60.241 145.192 61.4137 146.472C63.2567 148.453 64.2286 151.09 64.1121 153.793C63.9514 156.83 61.5746 160.337 58.6876 161.253C56.3058 162.01 53.7681 162.888 51.2608 162.741C45.8664 161.182 39.4449 156.499 43.8437 150.279C46.8838 145.98 50.4985 144.238 55.6505 143.434Z" fill="white"/>
<path d="M53.6627 148.752C56.3954 148.617 57.9485 148.507 59.5739 150.858C59.739 152.36 59.703 154.969 59.6452 156.448C58.3756 157.738 55.4245 159.085 53.7525 159.263C51.2221 158.209 49.0059 155.607 47.2527 153.571C47.5786 152.783 48.018 152.047 48.5568 151.386C50.0418 149.568 51.4388 148.961 53.6627 148.752Z" fill="#302F27"/>
<path d="M133.421 58.0038C137.604 57.724 140.278 59.2573 142.673 62.6739C142.626 65.0236 141.779 69.1342 141.365 71.6133C139.249 74.2063 135.204 76.306 132.121 77.4537C130.422 76.6003 127.25 77.5291 126.102 76.2834C124.819 74.7998 122.548 71.4909 122.639 69.4229C122.905 63.3541 127.597 58.418 133.421 58.0038Z" fill="white"/>
<path d="M130.911 62.0647C132.846 61.9626 134.4 61.9999 136.329 62.0549C137.047 63.0144 137.634 63.8588 138.293 64.8602C137.119 67.8236 136.663 70.2157 133.314 71.6135C132.276 71.9494 131.111 72.2591 130.053 72.5542C127.81 71.3595 125.929 69.239 126.808 66.5144C127.33 64.8965 129.361 62.8277 130.911 62.0647Z" fill="#302F27"/>
<path d="M120.806 139.648C122.324 139.538 125.731 142.546 126.203 144.096C126.958 146.574 128.499 150.556 127.461 153.1C126.951 154.351 124.704 156.454 123.796 157.571C121.673 160.155 118.569 159.726 115.614 159.742L113.443 159.61C111.321 157.412 110.241 156.386 108.558 153.805C108.347 149.096 108.962 149.737 110.891 145.953C113.424 140.983 116.218 141.524 120.806 139.648Z" fill="white"/>
<path d="M118.755 145.839C119.532 145.763 120.559 145.914 121.356 145.998C123.2 148.139 123.512 150.106 124.536 152.689C122.568 153.733 122.593 155.185 119.861 155.819C119.259 155.852 118.238 155.927 117.678 155.829C115.822 155.505 114.441 152.558 114.278 150.94C114.158 149.634 114.566 148.334 115.41 147.33C116.478 146.066 117.258 145.974 118.755 145.839Z" fill="#302F27"/>
<path d="M21.9523 76.7845C23.8988 76.6908 25.7128 76.5787 27.4549 77.6718C30.4897 79.576 32.0666 84.4896 32.877 87.748C31.3674 91.4488 28.6079 93.4452 24.9123 94.7131C23.2164 94.9541 20.8247 94.931 19.1426 94.6234C14.796 90.8553 13.0485 87.633 14.0729 81.7171C16.0475 79.4363 18.9763 77.4811 21.9523 76.7845Z" fill="white"/>
<path d="M22.3742 81.8778C24.862 81.6879 28.1785 84.0361 27.8917 86.7151C27.7182 88.3359 24.3654 90.2139 22.9466 91.1266C21.9301 91.4877 19.4298 90.2002 18.7083 89.4804C15.463 86.2425 19.423 82.8931 22.3742 81.8778Z" fill="#302F27"/>
<path d="M29.7991 45.6555C31.5474 45.5531 32.7628 45.5593 34.5024 45.6113C37.5721 48.7202 40.6898 53.8072 39.4634 58.4201C38.5891 61.7092 34.8946 63.1473 31.917 63.9659C30.0708 64.1481 28.2812 64.1084 26.4293 64.1004C25.2582 62.6987 22.1608 60.8072 21.8506 59.3544C21.2907 56.733 23.4565 50.7989 24.755 48.4735C25.5709 47.0125 28.14 45.983 29.7991 45.6555Z" fill="white"/>
<path d="M30.5556 50.9679C30.757 50.9477 30.9597 50.9435 31.1619 50.9554C32.4202 51.0426 33.8505 52.6793 34.6785 53.5785C34.9969 57.4954 34.6424 58.3898 31.2525 60.3888C30.081 60.1592 28.2906 59.0345 27.1543 58.4562C27.0602 56.3591 27.1345 54.1917 27.1736 52.0883C28.3997 51.7286 29.1067 51.3018 30.5556 50.9679Z" fill="#302F27"/>
<path d="M142.534 87.852C143.214 87.7362 143.683 87.9356 144.306 88.1081C147.901 89.1025 151.731 92.6341 151.606 96.6243C151.561 98.0651 151.588 99.5757 151.567 101.046C149.188 103.791 146.264 104.55 143.216 106.639C142.264 107.184 142.032 107.259 140.983 107.537C137.788 106.217 136.648 104.477 134.573 101.857C134.311 98.665 133.979 92.3239 136.878 90.1583C138.209 89.1639 140.887 88.3947 142.534 87.852Z" fill="white"/>
<path d="M140.154 92.4615C142.26 92.3239 145.254 93.638 146.879 94.9486C148.326 96.1155 148.819 99.0524 147.415 100.445C146.517 101.335 145.892 101.19 144.728 101.206C143.33 101.337 140.892 101.498 139.554 101.358C137.477 100.083 136.99 97.8703 136.907 95.579C137.72 94.0314 138.715 93.316 140.154 92.4615Z" fill="#302F27"/>
<path d="M27.5596 135.429C28.0317 135.403 28.5044 135.388 28.9771 135.384C31.9705 135.35 33.8029 135.663 36.2324 137.811C38.6913 139.985 38.1061 144.578 38.0837 147.925C35.4213 150.625 33.8171 151.063 30.2149 151.89C29.156 152.386 27.904 152.552 26.754 152.669C24.8183 151.157 22.4942 149.415 21.2584 147.281C20.7919 146.475 19.8367 144.467 20.0569 143.619L20.5343 143.343C20.7615 142.929 20.7129 140.499 20.7464 139.76C22.3667 137.225 24.4961 135.581 27.5596 135.429Z" fill="white"/>
<path d="M27.6713 141.626C27.9603 141.627 28.0833 141.635 28.3546 141.729C32.0567 143.002 33.1636 143.51 34.9738 146.891C33.5535 148.331 32.9066 148.872 31.1199 149.805C29.2449 150.207 27.1203 149.886 25.6583 148.564C24.678 147.677 24.3699 146.7 23.8772 145.511C24.9588 144.016 26.2776 142.823 27.6713 141.626Z" fill="#302F27"/>
<path d="M85.9844 26.3541C89.3175 26.2237 93.1837 32.4418 94.577 35.093C94.8098 35.5359 95.0585 38.243 95.1318 38.9187C93.3684 41.8713 89.4629 43.5566 86.1408 43.8977C83.9918 43.6341 78.6416 42.6421 77.5983 40.5896C75.9838 37.4138 76.9482 33.231 77.7719 29.9635C79.7767 27.8418 83.2135 26.9531 85.9844 26.3541Z" fill="white"/>
<path d="M83.6649 30.9837C84.3625 30.9236 85.4096 30.9794 86.134 30.996C90.1158 33.2828 89.1851 37.2017 87.7135 40.702C86.9116 40.9117 86.1373 41.0072 85.3197 41.1247C84.0414 41.2728 82.8358 41.3631 81.7981 40.4722C79.5201 38.5162 79.153 34.6163 81.0472 32.273C81.9108 31.2047 82.3366 31.1203 83.6649 30.9837Z" fill="#302F27"/>
<path d="M12.841 109.265C13.6121 109.255 16.6447 109.123 17.1311 109.422C17.8201 109.847 18.9817 110.992 19.2738 111.949C19.1256 112.466 18.0823 113.166 17.5614 113.611L17.5171 113.731C16.633 116.169 17.0002 118.764 18.0912 121.065C19.7415 122.296 21.5631 123.278 23.4981 123.98C29.2093 122.572 27.8652 119.09 28.081 114.192C30.3883 115.956 30.9749 116.924 31.4845 119.73C31.4888 119.987 31.4829 120.244 31.467 120.5C31.1046 126.082 27.2852 128.367 22.1452 128.579C20.9298 128.629 15.2078 127.789 14.4069 127.307C9.83466 124.558 9.45646 115.679 9.8857 111.031C11.0181 109.922 11.2478 109.55 12.841 109.265Z" fill="white"/>
</g>
<defs>
<clipPath id="clip0_15_418">
<rect width="175" height="178.418" fill="white"/>
</clipPath>
</defs>
</svg>
