<svg width="306" height="392" viewBox="0 0 306 392" fill="none" xmlns="http://www.w3.org/2000/svg">
<g clip-path="url(#clip0_15_451)">
<path d="M154.18 11.3477L154.595 11.3095L155.191 12.0706C156.19 12.3754 158.255 12.2139 159.389 12.1816C160.831 13.9436 163.55 15.6966 164.906 17.7024C165.263 18.2324 166.773 20.41 166.657 21.0495C166.191 23.6082 168.712 25.4352 169.375 27.8512C169.62 28.7407 169.762 29.526 169.848 30.5095C170.044 32.7557 170.389 35.0445 170.615 37.2895C170.579 38.0005 169.844 38.6835 170.024 39.4225C171.017 43.503 170.801 46.4492 170.114 50.499C169.99 51.233 170.81 52.5992 170.704 53.473C170.335 56.516 169.531 59.5042 169.227 62.5587C168.966 67.7985 168.56 72.8307 167.913 78.0365C167.548 80.969 168.086 84.4767 167.619 87.4495C167.571 87.7555 167.031 88.8132 166.876 89.2835C167.016 90.0535 167.075 89.96 167.564 90.572C168.224 91.3985 167.105 92.241 167.007 93.4425C166.647 97.8527 166.809 102.313 166.468 106.722C166.385 107.799 165.618 108.65 165.555 109.624C165.351 112.797 165.659 116.024 165.723 119.202C165.746 120.364 164.913 122.207 164.936 123.232C164.948 123.793 165.452 124.676 165.485 125.799C165.603 129.857 165.365 133.764 165.081 137.8C165.015 138.747 165.541 140.738 165.532 141.84C165.521 143.135 164.84 143.103 164.82 144.16C164.813 144.495 165.459 145.461 165.43 145.904C165.195 149.35 164.585 152.948 164.571 156.41C164.559 159.576 164.836 162.847 164.877 166.025C164.942 171.062 166.044 175.971 167.109 180.88C169.174 183.094 172.18 184.946 175.087 185.888C176.102 186.218 177.665 186.219 178.563 185.558C182.047 182.995 182.372 176.312 182.941 172.329C183.099 171.226 182.283 168.205 182.307 167.113C182.361 164.653 183.121 162.592 182.964 160.091C182.859 158.431 181.856 155.686 181.735 154.247C181.281 148.85 180.287 142.736 180.22 137.367C180.112 128.734 180.013 120.191 180.627 111.584C180.815 108.944 180.514 105.888 180.733 103.032C181.007 99.4637 181.604 96.0262 181.88 92.5095C182.069 90.1122 181.94 87.3735 182.085 84.8947C182.268 81.7427 182.498 78.7467 182.867 75.6075C183.133 74.7605 181.87 70.373 182.126 70.0195C184.159 67.2032 181.888 66.427 181.977 63.728C182.333 53.0007 180.863 41.8792 183.535 31.3857C184.142 28.9992 184.906 27.012 187.146 25.8005C189.541 24.3959 195.227 23.3447 197.846 24.2445C203.772 26.2805 207.798 28.4905 210.897 33.9952L210.792 37.2182C215.759 42.1107 215.701 55.337 216.56 61.9845C217.355 68.133 218.451 73.8755 217.05 79.9302C217.246 80.9915 217.696 82.07 217.708 83.15C217.803 91.749 217.984 100.379 217.759 108.971C217.721 110.398 216.775 112.793 217.116 113.986C217.787 116.332 216.627 117.835 217.019 120.504C219.016 123.018 216.807 125.231 217.011 128.156C219.271 131.519 216.766 152.903 216.788 157.824C216.798 160.014 217.17 162.1 217.622 164.235C217.921 165.651 216.68 167.14 216.655 168.631C216.552 174.819 216.761 181.034 216.724 187.229C216.689 193.11 216.352 198.889 216.798 204.778C217.13 209.158 218.166 213.506 218.648 217.878C218.98 220.893 218.721 223.937 219.339 226.927C220.075 230.48 221.677 233.642 222.606 237.118C223.712 241.253 223.938 245.404 224.451 249.635C224.871 253.095 225.529 256.635 225.625 260.12C225.7 262.86 225.235 265.672 224.969 268.395C224.298 275.235 223.708 281.84 222.001 288.53C219.523 298.24 213.695 305.002 206.424 311.527C203.362 314.277 200.276 316.892 196.717 318.99C188.141 324.04 172.896 328.357 163.057 329.587C160.341 329.925 157.562 329.842 154.831 330.04C152.515 330.205 150.215 330.627 147.884 330.532C144.827 330.407 141.213 329.772 138.25 328.99C130.952 327.067 124.659 324.157 118.328 320.047C109.465 314.29 104.959 309.83 100.224 300.26C98.9293 297.645 97.5711 294.975 96.7776 292.157C96.3138 290.51 96.2893 288.798 95.9036 287.138C95.4303 285.103 94.7156 283.13 94.3578 281.065C93.9828 278.9 94.6568 272.87 93.7068 271.415C93.6998 271.402 93.4421 271.057 93.4273 271.03C93.2513 270.685 93.2906 270.41 93.4453 270.085C93.5093 269.952 93.5668 269.815 93.6363 269.685C94.4543 268.147 94.1133 265.432 94.2351 263.662C94.4531 260.497 95.0973 257.34 95.9076 254.277C96.7808 250.975 98.7848 248.767 100.391 245.871C102.185 242.634 103.48 239.257 105.531 236.129C109.224 230.496 120.014 220.02 125.894 216.639C136.9 210.313 155.927 208.586 168.057 211.856C172.472 213.047 176.162 215.096 180.166 217.219C188.768 221.781 196.349 225.931 201.363 234.682C202.917 237.395 203.666 240.156 204.719 243.067C205.5 245.223 206.556 247.228 207.122 249.468C208.983 256.825 207.408 266.702 205.389 273.96C204.328 277.77 202.442 282.465 200.418 285.862C197.798 290.262 190.373 298.622 185.983 301.045C180.702 303.96 173.855 304.085 167.975 304.55C164.921 304.792 161.938 305.557 158.876 305.775C152.766 306.21 141.451 304.985 135.574 303.31C133.466 302.71 131.346 301.947 129.434 300.865C125.664 298.727 118.21 292.515 116.114 288.66C115.201 286.977 114.648 285.052 114.102 283.225C111.814 275.57 111.922 268.307 114.152 260.597C116.074 253.952 121.841 244.499 127.968 241.14C128.21 241.164 129.09 241.252 129.207 241.151C130.264 240.232 131.762 238.685 132.748 237.731C135.824 234.718 140.275 233.94 144.331 233.174C154.393 231.273 165.214 231.087 173.717 237.579C179.745 242.181 182.705 247.374 184.005 254.627C184.381 255.04 184.525 255.135 184.662 255.685C183.286 257.782 183.968 257.827 183.731 259.997C181.544 280.01 152.831 289.292 138.874 275.21C136.154 272.465 136.2 269.62 136.416 266.167C141.833 265.875 143.724 267.825 148.918 269.05C152.668 269.935 156.822 269.86 160.627 269.535C169.48 268.78 170.18 261.322 169.393 254.19C168.602 247.025 162.983 245.684 158.145 241.928C153.977 241.861 146.082 241.225 142.686 242.631C134.074 246.195 127.11 253.115 124.276 262.067C123.79 263.602 122.845 265.49 122.153 267.015C123.216 272.297 122.75 279.157 125.801 284.057C132.346 294.57 144.656 296.052 155.987 296.207C168.013 296.372 180.57 293.93 188.902 284.422C191.015 281.947 194.665 273.452 195.686 270.172C199.253 258.705 197.907 245.173 190.218 235.626C189.357 234.557 188.279 233.848 187.607 232.608C187.79 232.162 187.988 231.722 188.201 231.29L187.974 230.954C187.416 230.98 185.671 231.073 185.306 230.824C176.623 224.883 168.151 218.185 156.912 220.442C155.768 220.671 153.154 219.942 151.778 220.214C142.162 222.115 132.498 225.574 124.514 231.369C122.852 232.502 120.717 233.386 119.172 234.64C104.646 246.426 100.71 263.5 103.49 281.383C103.859 283.755 104.417 284.385 103.98 286.78C103.325 290.365 107.303 294.472 108.977 297.482C112.307 303.915 118.632 313.145 126.342 314.277C133.825 321.035 141.428 320.022 150.861 320.805C154.038 321.067 157.379 320.14 161.004 320.807C162.411 321.067 168.356 318.76 170.148 319.445C172.89 320.515 174.477 318.942 176.996 318.215C184.281 315.907 190.535 313.125 196.489 308.263C205.38 301.003 210.004 292.002 213.058 281.05C214.384 276.63 215.838 273.995 216.06 268.972L214.843 267.07L217.094 264.325C217.392 256.337 217.249 251.38 215.691 243.595C214.161 235.364 211.734 226.629 207.381 219.349C205.807 216.821 203.507 214.352 201.689 212.068C194.817 203.433 186.811 198.173 176.299 195.053C170.619 193.367 166.724 190.68 160.172 192.675C159.546 192.866 156.085 191.966 155.211 191.973C152.456 192.026 149.594 192.789 146.849 193.122C130.721 195.148 114.094 202.949 101.84 213.675C96.5888 218.271 96.5821 219.975 92.9341 225.099C89.5256 229.886 85.0363 235.147 82.2751 240.647C81.4388 242.74 80.9166 244.981 80.1776 247.11C77.1221 255.912 77.6801 265.76 78.1721 274.925C78.3453 278.147 79.4126 281.995 80.0651 285.147C81.8551 293.147 83.3538 300.715 87.8041 307.897C90.6886 312.552 97.0218 319.73 101.133 323.587C101.753 324.17 103.688 324.95 104.469 325.655C110.324 330.94 117.09 334.732 124.755 336.657C134.536 339.94 141.143 340.992 151.52 341.47C153.544 342.91 153.634 341.537 155.369 341.467C157.135 341.397 159.502 341.277 161.243 341.347C175.256 341.9 187.755 339.642 200.057 332.522C201.793 332.317 203.394 328.76 203.952 328.487C205.9 327.657 207.502 326.922 209.15 325.55C214.236 321.312 218.255 318.135 221.715 312.4C224.624 307.58 225.686 303.987 227.62 298.747C232.465 285.63 236.812 272.015 237.057 257.902C237.093 248.521 235.628 241.486 232.241 232.958C230.092 227.547 231.272 219.373 231.851 213.821C232.108 211.363 232.285 208.475 233.118 206.036C232.666 204.686 232.183 203.569 232.237 202.132C232.396 197.893 233.63 193.436 233.951 189.226C234.295 184.711 233.931 179.753 234.289 175.259C234.457 175.062 235.251 174.111 235.134 173.903C232.973 170.064 234.771 168.559 235.05 164.974C235.3 161.76 234.229 157.799 234.158 154.377C234.014 147.465 234.046 140.52 234.047 133.585C233.418 132.518 232.175 130.768 232.375 129.671C233.177 125.286 234.981 120.054 238.609 117.27C240.359 115.927 243.309 114.52 245.37 115.011C256.48 118.305 256.878 135.145 257.46 144.5C257.635 147.315 256.153 151.338 257.573 153.473C258.408 154.121 256.428 155.332 256.815 155.922C258.963 159.202 256.775 159.627 256.53 162.49C256.008 168.627 255.9 174.793 255.285 180.959C254.253 191.333 253.09 201.723 252.05 212.099C251.683 214.749 252.105 218.181 251.688 220.744C250.845 225.89 250.88 230.521 250.693 235.666C250.458 242.149 248.607 248.904 247.815 255.342C247.154 260.717 247.009 266.175 246.018 271.525C245.422 275.025 244.424 278.262 243.867 281.362C241.505 294.517 237.223 304.947 230.69 316.527C230.171 317.447 227.423 322.447 226.861 323.1C224.777 325.125 221.739 329.13 219.515 330.775C214.535 334.46 205.023 341.757 199.583 344.117C184.982 350.452 167.295 351.515 151.574 350.938C145.533 350.718 139.003 349.853 133.084 348.573C131.332 348.173 127.574 346.795 125.737 346.17C122.581 345.097 118.321 344.068 115.442 342.693C105.102 337.753 94.7366 328.403 86.9811 320.138C79.7391 312.418 76.4223 305.497 74.3953 295.285C73.7598 292.707 72.8553 290.16 72.2463 287.58C71.5633 284.685 71.4061 281.575 70.9311 278.64C69.2341 268.16 70.8713 257.645 70.4531 247.125C70.2736 242.625 68.6318 238.179 67.8838 233.801C66.5481 225.984 65.0706 218.219 63.2001 210.509C62.6046 208.054 61.6571 205.568 61.0276 203.093C59.8576 198.494 58.2783 193.989 56.9628 189.433C55.6541 184.268 54.4851 179.061 53.0881 173.909C52.4191 171.442 52.2346 168.582 51.5323 166.096C50.3708 161.675 48.9523 157.311 47.8258 152.913C46.2918 146.923 45.2696 140.625 43.9081 134.599C42.1223 126.694 38.9771 116.218 38.9673 108.196C38.9593 101.761 40.6371 93.9745 45.5593 89.5542C48.9156 86.5405 51.8231 87.1137 56.0973 87.3657C58.6216 91.4472 61.7708 92.181 64.1926 98.6355C66.8301 105.29 66.6341 112.593 68.1478 119.415C72.1708 137.548 74.8123 156.03 80.1718 173.843C81.5501 178.423 82.8391 183.038 84.0938 187.656C85.1763 191.669 86.2386 195.688 87.2806 199.711C88.1478 203.064 88.5351 206.921 91.1321 209.25C92.6966 209.31 94.1731 209.241 95.7331 209.184C95.9313 209.061 96.1268 208.934 96.3198 208.803C100.041 206.257 97.0948 199.224 96.8508 195.044C95.3281 168.964 87.8486 143.529 86.5483 117.271C86.2773 111.796 84.7351 105.478 84.4076 99.9207C83.7808 92.1275 83.2758 84.287 82.8091 76.4845C82.7163 74.9322 82.4716 73.2475 82.3353 71.686C80.9193 55.4512 83.8391 27.9695 106.444 30.6777C109.246 31.2347 111.653 33.2442 113.143 35.5125C116.321 40.3535 115.716 44.6127 115.957 50.0817L116.755 65.077L119.079 111.029C119.207 113.613 119.585 116.259 119.762 118.892C120.116 122.642 119.797 126.718 120.154 130.424C120.945 138.187 120.624 145.897 121.725 153.633C121.89 154.793 120.063 153.921 122.343 157.319C122.067 164.534 123.146 170.189 124.405 177.239C125.211 181.756 123.546 188.351 129.47 189.979C131.061 190.416 134.093 187.598 135.255 186.668C135.174 181.39 136.643 175.858 136.292 170.375C136.176 168.56 135.391 167.299 135.322 165.89C135.086 161.07 135.404 156.053 135.063 151.249C134.864 148.447 134.319 145.336 133.995 142.509C133.856 141.29 133.445 139.808 133.289 138.522C133.142 137.303 134.374 136.429 134.233 135.679C133.876 133.772 133.079 133.783 133.126 131.47C133.17 129.28 134.063 127.46 134.097 125.446C134.11 124.691 133.366 124.181 133.316 122.469C133.198 118.414 133.125 114.355 132.986 110.301C132.928 108.612 132.662 106.924 132.496 105.251C132.429 104.577 133.067 102.938 133.006 102.156C132.87 100.434 132.162 98.34 132.071 96.6525C131.906 93.5997 132.197 90.591 132.024 87.5C131.875 84.8637 131.45 81.9472 131.628 79.2517C131.645 78.9992 131.134 79.0275 131.1 77.7227C131.56 77.1257 131.779 76.9705 131.814 76.2607C130.304 74.1855 132.126 73.0602 131.823 71.2327C130.783 64.958 131.202 59.6737 131.709 53.4357C132.902 38.7565 132.518 20.5488 148.223 13.3955C150.164 12.5115 152.168 12.253 153.977 11.4407L154.18 11.3477Z" fill="#2E2B25"/>
<path d="M196.52 41.2475C197.002 41.2062 197.106 41.286 197.561 41.4442C199.032 42.914 200.095 45.2185 201.21 46.8032C205.255 52.551 205.93 56.5337 206.744 63.324C206.937 64.9395 207.431 67.796 207.96 69.3532L208.004 69.4802C207.902 69.802 207.809 70.1267 207.725 70.4542C206.147 76.6595 207.768 84.027 207.868 90.1815L208.013 104.632C208.032 107.955 208.006 111.348 208.301 114.661C208.359 115.309 209.132 116.522 209.491 117.123L208.178 118.326C206.915 121.14 210.252 122.279 208.399 124.343C208.558 125.723 209.195 126.604 209.242 128.057C209.321 130.532 208.148 133.071 208.124 135.441C208.111 136.831 208.972 138.724 209.125 140.368C209.302 142.273 208.295 144.248 208.334 145.734C208.402 148.392 209.144 151.211 209.146 153.981C209.148 156.199 208.374 157.949 208.368 160.123C208.365 160.848 209.019 162.33 209.038 162.837C209.121 164.986 208.384 167.876 208.213 170.038C207.997 172.762 207.806 175.361 207.535 178.031C206.798 185.283 207.44 192.751 206.803 200.019C206.636 201.92 206.483 206.071 205.546 207.407C203.009 205.717 200.699 202.075 198.588 199.751C197.016 197.916 192.2 193.669 192.008 191.312C191.355 183.265 192.04 175.248 190.792 167.193C190.68 166.472 191.293 166.043 191.535 165.492C191.534 165.493 190.985 163.211 191.002 162.993C190.556 157.277 190.793 151.411 190.763 145.678C190.746 142.529 190.52 138.277 190.964 135.245C191.232 134.938 191.797 134.344 191.819 133.888C191.818 133.897 190.929 132.523 190.929 132.516C190.794 129.58 190.739 125.589 190.65 122.767C190.464 117.525 191.352 112.33 191.648 107.129C191.577 104.305 190.799 101.508 190.85 98.6695C190.917 94.9715 191.574 91.3242 191.703 87.6202C192.257 85.4535 190.631 79.4655 191.036 78.0092C192.305 73.4367 191.501 69.2602 191.802 64.53C191.887 63.1985 191.813 63.296 192.722 62.4835C193.036 61.3202 191.936 60.7917 191.862 59.7977C191.765 57.0902 192.445 54.3037 192.745 51.559C193.154 47.806 191.62 42.2377 196.52 41.2475Z" fill="white"/>
<path d="M153.458 34.751C159.944 35.3828 158.076 46.2655 157.487 50.5113C157.679 51.0195 157.857 51.1983 158.183 51.6188C158.084 52.8428 157.977 52.2445 157.4 53.4763C159.315 58.275 154.931 63.092 158.304 70.613C156.191 74.22 157.222 83.8545 157.266 88.3925C157.271 88.8818 158.061 89.816 157.993 90.1448C157.42 92.8895 156.975 95.564 157.151 98.3785C157.219 99.9415 157.894 100.352 157.977 101.559C157.934 102.595 157.093 104.355 157.077 105.312C156.968 111.717 156.551 117.958 155.835 124.322C155.767 124.933 156.651 127.805 156.724 128.88C155.894 130.199 155.802 130.127 156.759 131.339C156.878 132.677 155.831 134.743 155.729 136.66C155.574 139.579 156.717 144.004 156.643 146.607C156.527 150.659 155.831 155.226 155.678 159.442C155.243 163.101 156.166 168.156 155.489 171.684C154.765 175.451 156.92 180.754 155.865 183.437C155.304 184.107 154.835 184.097 153.986 184.24C153.431 184.247 152.876 184.241 152.321 184.223C142.832 183.842 144.036 167.838 143.985 161.458C143.959 158.185 143.886 154.647 144.032 151.386C145.627 149.981 143.813 149.848 143.834 148.207C143.848 147.059 144.81 147.145 144.89 145.751C144.431 145.243 144.325 145.116 143.996 144.517C143.836 140.258 144.926 137.445 144.797 133.334C144.755 131.989 144.454 129.796 144.345 128.383C144.545 128.038 144.714 127.744 144.852 127.504L144.816 111.22C144.809 108.79 144.844 106.341 144.724 103.917C144.669 102.792 143.797 102.568 143.935 101.489C144.376 101.07 144.448 101.032 144.715 100.498C144.573 100.043 144.455 99.5705 144.284 99.126C144.248 99.0308 144.21 98.936 144.176 98.8398C143.576 97.1238 143.895 75.291 144.037 72.111C144.175 69.0305 144.674 65.9755 144.793 62.8898C144.958 58.5923 144.741 54.277 145.097 49.9885C145.353 46.9043 145.442 42.424 146.853 39.6133C148.129 37.0723 150.872 35.6173 153.458 34.751Z" fill="white"/>
<path d="M100.653 49.2053C101.243 49.2368 102.055 49.2948 102.395 49.7323C105.694 53.9758 105.92 56.9725 105.092 61.9255C104.72 64.15 106.702 69.8858 105.835 72.6998C105.72 73.0745 105.868 74.555 105.853 74.9993C107.446 83.4548 107.555 92.1765 108.217 100.749C109.24 111.675 110.641 122.333 110.3 133.345C110.241 135.273 111.238 136.977 111.28 138.875C111.307 140.048 110.197 140.971 110.298 142.23C111.06 143.253 111.129 143.393 111.205 144.68C111.721 153.461 112.816 162.2 112.895 170.995C112.962 178.577 115.434 186.19 115.729 193.745C115.792 195.34 110.029 197.522 108.792 198.004C107.925 197.737 107.051 197.185 106.816 196.305C104.619 188.045 104.251 178.346 103.234 170.08C102.756 165.87 102.233 161.665 101.665 157.465C100.499 148.983 98.286 141.308 97.555 132.756C96.8565 124.584 96.2147 116.718 96.073 108.501C95.9955 104.005 94.3677 98.6388 94.0697 94.0758C93.6215 88.63 94.657 82.9783 93.158 77.6925C92.9775 77.0828 93.4485 76.7673 93.8567 76.273C94.0242 75.5085 93.735 74.8963 93.4287 74.212C92.4655 72.059 92.7667 57.7158 92.8625 54.4563C94.7595 52.8518 98.5112 50.3975 100.653 49.2053Z" fill="white"/>
<path d="M49.493 103.781C52.5752 103.728 55.1125 104.537 56.2472 107.626C57.9655 112.303 58.8767 117.099 59.8722 121.958L64.0572 143.131C65.4002 149.735 67.1425 154.678 68.9192 161.07C70.6087 167.149 71.6807 174.094 73.3337 180.242C74.4367 184.345 75.9587 188.464 77.1397 192.621C79.742 201.78 80.6995 213.216 84.3877 221.806C82.5655 224.752 81.1115 226.852 79.5202 229.977C78.9365 230.981 78.4447 231.823 77.2935 232.182C75.2445 231.896 74.8805 229.608 74.411 227.885C73.5127 224.587 73.2197 221.065 72.3952 217.762C71.7575 215.208 70.3405 212.668 69.7435 210.065C68.004 203.346 66.403 196.669 65.088 189.852C63.9522 184.439 62.0925 178.679 60.9007 173.222C60.2962 170.663 60.0792 167.9 59.4567 165.358C58.1795 160.137 56.134 154.993 55.3137 149.676C54.6335 145.268 53.2347 141.169 52.551 136.749C52.062 133.586 51.7722 130.384 51.2145 127.244C50.511 123.283 48.8385 119.488 48.0947 115.556C48.0192 115.158 48.184 112.607 48.207 112.001C48.3072 109.338 47.645 105.983 49.493 103.781Z" fill="white"/>
<path d="M244.475 134.878C247.598 135.648 247.473 143.931 247.908 146.475C248.157 147.933 249.1 149.411 249.107 150.875C249.12 153.449 248.617 156.007 248.423 158.588C248.634 158.793 249.097 159.274 249.114 159.534C249.195 160.858 249.042 162.574 249.026 163.869C248.951 169.948 248.227 175.78 247.541 181.807C247.246 184.405 246.706 187.023 246.449 189.644C246.268 191.479 246.687 193.369 246.497 195.142C245.795 201.691 245.12 208.251 244.353 214.791C243.962 218.131 243.271 221.034 243.266 224.385C243.264 225.673 243.286 229.184 242.635 230.228C242.057 230.767 241.95 230.902 241.208 231.148C239.311 230.771 238.99 227.709 239.047 226.083C240.414 224.094 238.727 224.37 238.919 223.268C240.293 215.406 239.093 207.465 240.532 199.572C240.854 197.807 241.258 195.441 241.363 193.851C241.741 188.109 242.29 182.499 242.827 176.782C243.188 163.504 242.369 150.139 243.081 136.887C243.124 136.076 243.923 135.4 244.475 134.878Z" fill="white"/>
</g>
<defs>
<clipPath id="clip0_15_451">
<rect width="306" height="392" fill="white"/>
</clipPath>
</defs>
</svg>
