<svg width="272" height="323" viewBox="0 0 272 323" fill="none" xmlns="http://www.w3.org/2000/svg">
<g clip-path="url(#clip0_15_187)">
<path d="M0 0H272V323H0V0Z" fill="white"/>
<path d="M69.442 36.5742C69.9658 36.5279 70.4903 36.4924 71.0153 36.4677C75.7093 36.2634 80.2698 40.2194 84.1073 42.4552C88.5293 45.0312 93.111 45.2082 96.8455 49.1342C101.236 53.7502 106.447 57.8804 109.906 63.2929C111.16 65.2532 112.762 66.7077 114.485 68.2987C114.447 70.0309 114.388 71.9067 115.046 73.6844C116.947 78.0464 123.449 84.9957 127.586 87.2004C130.815 88.9214 137.026 90.5242 140.508 92.3004C142.512 93.3224 144.218 91.7259 145.802 91.0782C147.055 90.5657 149.057 90.5544 150.318 89.8362C155.695 87.1474 158.098 82.3639 161.695 78.0892C164.514 74.7382 167.379 72.0672 169.771 68.1912C170.691 66.7012 175.711 64.6922 177.223 62.4792C180.288 57.9899 183.603 53.4127 188.061 50.2454C190.572 48.5302 194.908 47.2962 197.854 46.5442C198.961 46.2614 200.935 46.5702 202.085 46.1242C202.56 45.9442 202.499 45.3719 202.686 44.7087C205.251 44.2617 209.584 45.2614 212.006 44.3464C215.28 39.7532 218.289 48.0114 222.562 43.3709C228.543 42.6014 232.057 42.8709 236.756 47.1082C240.37 50.3664 242.299 53.8624 243.723 58.5147C243.91 59.8734 245.967 62.7737 246.072 63.9162C246.749 71.2754 246.189 80.8139 246.533 88.0677C249.492 92.3479 247.325 92.3962 246.768 96.8302C246.38 99.9252 246.313 102.814 245.666 106C244.766 110.435 243.437 114.563 242.238 118.912C241.565 121.35 241.13 124.57 240.282 126.913C238.767 131.101 236.846 135.207 235.217 139.38C233.826 142.943 233.213 146.621 232.063 150.165C229.652 157.588 227.178 165.435 226.522 173.263C226.41 174.6 226.384 178.642 227.329 179.66C227.468 179.716 227.97 180.367 227.982 180.475C228.472 184.908 228.002 189.415 228.565 193.841C228.861 194.265 229.72 195.216 229.718 195.745C229.692 201.947 231.528 207.841 232.622 213.905C233.335 217.855 234.028 221.298 235.104 225.2C236.717 226.727 238.28 228.305 239.79 229.934L239.701 233.157C240.843 234.092 241.885 235.269 242.9 236.349C243.148 239.288 244.583 241.797 244.891 244.995C245.988 245.977 246.837 246.736 248.029 247.617C248.025 250.347 247.912 253.522 248.365 256.192C248.459 256.75 249.393 257.23 249.439 257.975C249.731 262.71 249.858 267.57 248.732 272.22C248.2 274.417 247.63 276.882 246.632 279.107C244.549 283.755 241.81 288.547 239.553 293.152C239.601 293.56 239.641 293.892 239.671 294.152L239.389 294.492C238.851 294.422 238.665 294.325 238.155 294.122C237.05 294.605 235.253 296.367 234.555 297.332L234.445 297.487C231.429 297.615 228.335 297.587 225.312 297.6C223.282 297.617 214.501 297.16 213.475 297.925L213.387 299.105C212.782 299.642 204.53 299.38 202.988 299.297C201.996 298.21 201.058 297.08 200.108 295.952C196.155 296.095 192.521 293.972 189.943 291.055C185.354 290.97 186.318 289.432 181.812 289.395C181.204 288.752 180.582 288.122 179.947 287.51C176.529 284.265 171.083 281.22 167.691 277.362C166.58 276.097 162.545 274.132 161.053 272.81C159.538 271.465 157.34 270.08 155.713 268.805C148.857 264.465 143.644 264.402 135.874 264.63C129.725 264.397 125.286 268.362 123.171 273.94C121.145 279.28 117.424 280.777 112.999 284.06C110.499 285.917 105.537 290.78 102.556 292.065C97.0383 294.445 89.9658 296.067 84.0823 297.36C82.8463 297.595 77.133 297.55 75.5088 297.59C74.743 298.357 75.6365 298.615 74.9285 299.362C73.1525 299.372 70.367 299.437 68.6958 299.242C64.5835 298.745 60.8513 296.397 57.0003 295.107C53.6853 293.995 50.1435 294.472 47.8373 291.157C46.165 288.912 42.5128 282.112 42.7208 279.27C43.2158 272.507 41.3373 269.267 39.756 263.11C38.2785 257.355 40.6085 248.951 41.3028 242.826C43.921 240.319 55.4628 221.297 56.464 217.654C59.911 204.919 63.3218 192.121 63.9563 178.903C64.1733 174.381 58.8768 161.599 59.03 161.14C61.806 152.814 61.1508 151.891 58.8873 143.813C56.5773 135.465 53.7313 127.274 50.3673 119.292C46.1148 108.922 42.8728 102.487 41.3393 91.2694C40.6803 86.4479 37.024 71.4612 34.4153 67.6002C37.268 61.7467 39.6535 55.5447 44.8455 51.5032C46.218 50.4349 47.6583 49.5999 49.057 48.5714C50.6068 47.4322 52.463 45.4997 54.088 44.6442C58.4478 42.3487 61.3048 41.6044 64.911 38.0989C65.457 38.1094 66.0033 38.1079 66.5493 38.0944C68.0913 38.0472 68.404 37.6844 69.442 36.5742Z" fill="#35362F"/>
<path d="M129.53 118.083C131.979 118.17 141.166 117.675 142.842 118.366C143.009 118.941 143.026 119.069 143.338 119.57C144.487 119.83 145.931 119.733 147.171 119.815C152.785 120.183 157.94 122.986 163.687 123.162C164.786 123.196 164.385 124.502 165.145 124.486C170.18 124.355 173.525 126.655 177.648 129.057C183.076 132.22 186.497 133.994 190.765 138.634C191.268 150.137 196.814 159.15 198.569 170.409C199.502 176.394 199.252 183.819 198.869 189.896C198.703 192.515 197.667 195.598 197.432 198.471C194.002 201.336 192.078 209.136 186.709 212.578C180.994 216.242 175.679 219.481 169.538 222.45C166.977 223.688 158.737 227.54 156.997 229.1C156.478 229.596 155.806 230.512 155.338 231.11C154.021 230.954 151.105 230.527 149.936 230.686C149.669 231.318 149.671 231.493 149.579 232.183C148.675 232.729 139.878 232.431 138.689 232.03C133.631 230.327 125.995 227.376 121.882 223.862C113.622 216.805 107.162 207.008 102.127 197.477C100.747 194.763 99.8627 190.033 97.9687 186.198C95.9485 182.107 92.385 174.17 91.4012 169.756C91.2632 167.561 91.3812 164.986 91.3427 162.825C91.2227 156.053 91.5245 146.092 93.9407 139.779C96.7445 132.453 103.923 125.068 111.641 123.304C113.377 122.908 115.78 122.91 117.55 122.395C121.927 120.68 124.347 119.982 128.995 119.607C129.532 119.177 129.396 118.947 129.53 118.083Z" fill="white"/>
<path d="M146.705 151.343C147.069 151.44 147.144 151.538 147.441 151.769C147.453 152.396 147.458 152.505 147.604 153.111C148.504 153.779 153.812 153.361 155.244 153.308C155.881 154.398 158.283 156.575 159.356 157.642C162.501 160.688 165.561 167.627 165.504 172.016C165.412 179.088 162.315 188.301 157.239 193.436C152.743 197.985 146.347 200.429 140.245 200.545C138.036 200.472 136.497 199.87 134.633 198.711C132.702 197.324 129.439 195.699 127.747 194.107C117.332 184.304 120.851 163.528 132.932 156.52C133.163 156.386 134.664 156.96 135.382 156.58C137.284 155.575 139.255 153.912 141.368 153.357C142.597 153.052 144.204 153.729 145.596 153.371C146.449 152.633 146.27 152.558 146.705 151.343Z" fill="#35362F"/>
<path d="M208.086 228.352C211.363 228.514 221.249 235.546 223.926 238.04C227.524 241.392 229.865 250.623 230.423 255.393C230.608 256.975 230.528 260.473 230.505 262.248C229.844 263.235 227.939 266.473 227.555 267.538C226.676 269.97 228.096 271.55 229.124 273.525C228.354 274.645 227.332 275.865 226.49 277.063C223.792 276.993 220.523 276.795 217.868 277.1C217.562 277.135 217.191 277.848 216.949 278.198C215.668 278.825 213.726 278.455 213.168 278.685C211.451 279.388 210.831 280.883 208.104 280.193C206.82 279.87 207.477 278.845 205.624 278.615C201.111 278.33 200.7 277.828 196.695 276.6C187.836 273.883 186.644 272.453 180.436 266.008C180.374 262.548 178.914 261.18 178.706 258.113C178.366 253.07 184.376 244.151 187.524 240.504C193.182 233.946 199.043 228.941 208.086 228.352Z" fill="white"/>
<path d="M79.7592 225.284C83.3492 225.185 89.7022 224.727 93.0975 225.7C93.687 225.869 96.5057 227.439 97.4117 227.826C107.742 232.242 110.976 238.935 115.329 248.905C113.759 253.393 113.533 254.663 113.506 259.405C109.452 263.788 108.227 264.438 103.011 267.42C100.873 268.643 99.1685 269.93 96.7242 271.125C93.314 272.27 90.0682 273.84 86.878 274.913C85.3485 275.428 79.2697 275.26 77.3352 275.248C74.8372 271.863 70.601 269.585 68.9005 264.5C67.6802 259.915 64.4502 249.818 65.1175 245.226C66.259 237.368 72.4597 228.177 79.7592 225.284Z" fill="white"/>
<path d="M212.054 63.533C213.464 63.7775 213.413 64.042 214.353 65.1837C215.058 65.6447 216.192 65.3757 217.067 65.2657C218.765 66.09 222.316 67.7235 223.41 69.0995C232.079 80.0185 230.063 97.876 220.569 107.743C216.666 111.798 209.117 110.604 203.787 110.504C200.295 110.421 197.202 108.306 194.203 106.565C190.001 98.7005 189.32 94.3257 187.432 85.452C186.544 81.2742 188.17 76.8462 190.556 73.2417C192.665 70.0557 200.762 66.683 204.406 65.5225C204.906 65.3635 209.589 65.6415 211.237 65.3945C211.921 64.918 211.802 64.5495 212.054 63.533Z" fill="white"/>
<path d="M68.557 58.7872C70.301 58.8742 72.7765 58.8512 74.4567 59.0595C77.9565 59.4935 87.4802 62.9595 89.6905 65.804C93.0642 70.4262 99.1328 77.2952 101.276 82.3995C102.769 85.955 102.246 96.9482 98.8047 99.4282C97.433 100.417 94.7405 102.483 93.0395 102.464L90.7473 102.494C88.3893 102.52 85.7525 102.736 83.4502 102.165C81.2762 101.626 66.177 94.0777 64.62 92.513C61.9005 89.7797 61.9372 86.0377 61.4162 82.4937C61.23 81.2277 60.4755 80.1887 60.298 79.0095C59.6175 74.492 60.0725 69.2585 60.068 64.6635C61.426 63.5762 63.213 61.5685 64.3453 60.2492C65.3068 60.4385 66.7177 60.816 67.63 60.628C68.458 60.0542 68.2313 60.0385 68.557 58.7872Z" fill="white"/>
</g>
<defs>
<clipPath id="clip0_15_187">
<rect width="272" height="323" fill="white"/>
</clipPath>
</defs>
</svg>
