<svg width="464" height="678" viewBox="0 0 464 678" fill="none" xmlns="http://www.w3.org/2000/svg">
<g clip-path="url(#clip0_15_329)">
<path d="M0 0H464V678H0V0Z" fill="white"/>
<path d="M248.967 323.509C250.206 323.299 251.253 323.275 252.488 323.521C268.086 326.619 259.772 351.994 264.585 358.678C270.006 366.206 281.27 351.792 287.967 353.096C289.067 353.308 289.938 353.99 290.52 354.937C291.027 355.765 290.994 356.791 290.849 357.715C290.066 362.727 288.134 367.6 286.951 372.536C285.927 376.8 285.606 381.213 284.655 385.497C284.312 387.043 283.833 389.496 282.944 390.81C281.534 392.899 270.528 395.584 267.114 397.802C261.537 401.42 261.563 406.747 260.361 412.64C254.395 416.103 244.326 414.504 241.068 421.86C239.705 424.939 242.374 431.235 243.546 434.251C245.573 439.459 252.993 440.551 257.544 438.419C266.433 431.867 258.053 411.544 269.075 406.111C274.063 403.652 283.561 402.864 288.865 404.655C295.951 407.071 296.396 414.851 295.854 421.347C295.016 431.394 295.508 442.441 293.333 452.3C292.615 455.554 286.637 458.683 283.563 457.167C276.654 453.757 280.007 444.15 279.564 438.114C279.354 435.102 279.244 434.225 278.055 431.467C272.568 442.246 279.135 453.502 268.265 462.421C262.13 460.918 256.264 456.726 249.199 458.358C245.21 459.276 241.742 460.613 237.61 460.798L237.154 460.818C227.102 456.127 225.76 445.222 223.669 435.496C222.955 432.175 222.292 427.051 223.191 423.757C226.323 412.286 239.315 406.783 247.093 398.947C250.64 395.786 250.862 390.846 253.975 387.331C256.574 384.398 265.27 383.024 262.683 377.339C251.809 372.589 228.538 388.913 219.971 395.253C210.696 402.549 206.239 407.535 195.508 412.958C184.434 418.552 175.43 421.611 163.211 415.219C146.881 406.678 143.062 380.402 136.981 364.756C134.225 357.665 129.427 350.892 127.084 344.022C127.639 340.751 128.584 335.872 133.149 336.941C143.17 339.281 149.438 347.028 155.204 354.911C157.158 357.582 159.437 360.274 161.064 363.193C164.724 370.314 169.559 381.425 174.173 387.745L174.433 388.095L178.466 387.536C177.108 375.32 165.428 366.991 161.599 355.331C160.443 351.809 157.973 344.426 159.86 341.026C160.546 339.788 161.799 338.768 163.183 338.434C164.997 338 166.991 338.841 168.603 339.612C182.318 346.184 188.291 370.122 193.78 372.728C194.509 373.072 195.257 373.122 195.989 372.754C197.741 371.87 198.414 369.212 198.889 367.504C197.744 364.597 195.738 362.227 194.223 359.641C190.471 353.063 183.592 346.816 188.031 338.911C191.595 332.561 200.497 335.474 204.951 339.036C209.734 343.936 210.583 353.02 213.467 358.982C215.187 362.538 220.06 368.927 222.099 361.926C224.831 352.543 214.902 344.522 216.581 335.051C217.253 331.263 222.885 332.038 225.502 332.885C233.446 335.772 233.226 346.386 236.639 352.994C239.695 358.913 244.081 356.195 243.555 350.59C243.257 347.422 242.387 344.237 242.101 341.046C241.893 338.762 242.035 336.461 242.522 334.22C243.478 329.7 245.043 326.056 248.967 323.509Z" fill="#2A2A26"/>
<path d="M264.098 445.497L265.415 445.626C266.829 447.242 266.471 448.774 265.419 450.45C264.507 450.791 264.811 450.691 263.648 450.294C262.21 449.668 260.852 449.446 260.728 447.761C261.552 446.626 262.812 446.159 264.098 445.497Z" fill="#201F1F"/>
<path d="M183.375 381.779C186.433 382.782 186.719 385.175 184.824 387.542C183.48 387.619 183.441 387.605 182.641 386.698C182.073 385.007 182.746 383.361 183.375 381.779Z" fill="#40403C"/>
<path d="M172.889 392.445C174.524 392.796 176.363 392.803 177.027 394.402L176.343 395.528C175.907 395.759 175.333 396.001 174.873 396.213C173.686 396.084 174.136 396.276 173.24 395.451C172.754 394.124 172.799 393.872 172.889 392.445Z" fill="#40403C"/>
<path d="M228.369 350.067C228.565 350.223 228.933 350.67 229.117 350.878C229.509 352.577 229.779 355.073 228.915 356.652C226.899 355.046 227.92 352.322 228.369 350.067Z" fill="#40403C"/>
<path d="M209.324 360.995C210.704 361.316 210.767 361.439 211.413 362.637C211.486 363.968 211.427 364.13 210.913 365.365C208.927 364.547 208.365 362.902 209.324 360.995Z" fill="#2A2A26"/>
<path d="M222.972 338.752C223.804 338.841 223.748 338.825 224.467 339.255C225.063 340.433 224.743 341.529 224.57 342.9C222.537 342.023 222.712 340.592 222.972 338.752Z" fill="#40403C"/>
<path d="M228.026 115.691C231.899 115.284 235.484 116.96 239.147 117.701C256.356 121.23 273.851 123.821 290.637 129.162C299.714 132.05 308.793 135.689 317.606 139.308C323.164 141.59 329.047 143.366 334.52 145.971C357.548 156.927 380.384 168.178 400.639 183.846C401.261 184.326 401.939 185.939 402.773 186.77C404.097 187.176 406.626 186.241 408.088 185.83L405.831 189.476L402.641 191.071C406.215 193.136 410.412 194.193 414.353 195.869C416.634 199.262 419.397 202.827 421.409 206.351C423.488 209.985 425.169 214.791 426.681 218.788C410.269 222.193 390.081 210.31 376.892 201.799C366.802 194.921 355.648 188.287 345.951 180.935C332.998 171.116 317.685 165.067 305.062 155.179C300.872 153.382 296.425 151.952 292.301 149.972C283.995 145.984 275.083 143.713 266.578 140.273C258.012 136.814 249.139 135.513 240.293 133.501C226.221 130.302 215.955 128.636 201.512 131.836C183.481 135.83 163.365 141.135 159.911 162.764C159.522 166.528 160.351 170.305 160.671 174.027C161.731 186.357 164.856 198.172 167.481 210.212C167.964 212.43 168.864 214.388 169.383 216.505C174.479 237.466 157 227.239 154.138 215.551C148.743 193.524 141.613 168.529 153.455 147.317C155.504 143.646 156.64 140.994 159.376 137.568C169.859 124.44 185.292 117.341 201.914 116.377C210.592 115.874 219.469 116.657 228.026 115.691Z" fill="#2A2A26"/>
<path d="M176.461 229.819C192.554 228.901 214.337 262.9 227.602 271.844C232.437 275.104 237.559 276.308 242.945 278.205C249.969 280.678 256.808 284.859 262.353 289.828C268.346 295.198 268.342 304.918 274.769 309.716C276.985 311.369 279.62 312.019 282.348 311.601C285.506 311.116 288.445 309.224 290.267 306.611C291.802 304.409 292.38 301.54 291.868 298.908C291.682 297.95 291.476 297.439 290.679 296.914L290.035 297.298C289.19 298.382 289.235 299.659 289.127 301.032C286.544 304.593 282.93 307.479 278.265 304.978C273.978 302.679 273.365 299.368 272.058 295.059C273.532 290.56 275.511 284.622 279.886 282.605C284.415 280.424 289.449 281.165 294.024 282.701C310.15 288.112 314.18 305.08 303.885 318.256C301.008 321.938 298.258 323.323 294.09 325.323C293.511 329.354 292.644 331.886 291.121 335.613C288.678 339.116 283.679 342.499 279.232 340.774C271.046 337.593 269.125 330.057 266.128 322.757C265.716 321.755 264.229 318.878 263.201 318.015C252.693 314.576 234.356 316.783 224.384 313.692C208.223 308.682 203.394 294.467 190.462 285.583C184.731 281.645 179.201 281.058 173.151 278.624C161.686 274.014 158.272 270.381 153.461 259.979C154.218 259.035 155.957 255.726 156.488 255.227C165.925 246.37 180.905 261.028 188.22 266.563C190.853 268.555 198.202 274.19 200.735 270.463C200.322 266.629 187.721 259.296 184.787 256.388C180.08 251.537 174.166 246.435 171.412 240.177C168.967 234.619 171.569 231.901 176.461 229.819Z" fill="#2A2A26"/>
<path d="M216.12 281.112C219.396 280.955 234.864 283.984 231.893 289.044C228.601 291.282 223.408 286.372 219.729 286.954C216.766 287.423 218.197 291.518 218.896 293.259C221.116 295.424 225.226 297.025 225.413 299.836C222.981 302.54 211.704 293.059 212.169 288.734C212.634 284.403 213.381 284.142 216.12 281.112Z" fill="white"/>
<path d="M254.832 529.072C257.284 528.817 261.372 528.943 263.744 529.601C272.981 532.154 265.701 543.423 269.071 549.018C269.857 550.322 270.751 551.147 272.245 551.501C272.9 551.292 273.259 551.246 273.458 550.521C274.23 547.72 272.705 543.108 274.218 538.497C275.107 535.789 276.665 534.011 278.554 531.959C280.899 531.412 283.273 530.568 285.671 530.326C289.186 529.976 291.295 531.532 293.894 533.677L295.993 539.401C295.081 542.777 293.739 547.012 294.651 550.484C294.924 551.531 295.321 551.878 296.183 552.401C298.005 552.613 299.238 551.603 300.597 550.564C301.17 548.442 301.985 546.389 302.759 544.333C304.851 538.782 307.509 532.631 313.32 530.085C317.296 528.34 321.65 529.085 325.546 530.661C328.799 531.978 330.572 534.994 331.872 538.139C336.532 549.399 323.623 555.632 320.607 563.002C318.293 568.659 318.38 574.973 315.995 580.591C313.914 585.497 310.409 589.976 305.337 591.979C299.565 594.26 284.332 594.197 278.684 591.717C275.62 590.37 274.089 588.115 272.883 585.096C272.032 582.252 273.542 580.412 273.095 578.144C272.446 574.847 271.008 570.867 268.087 568.908C266.074 567.557 263.702 567.401 261.385 567.888C258.251 568.547 255.173 570.245 253.415 572.99C252.345 574.655 251.6 576.903 252.131 578.876C252.396 579.862 252.977 580.663 253.914 581.104C254.613 581.428 255.389 581.465 256.11 581.183C258.031 580.442 259.039 577.383 259.868 575.638L264.472 575.234C265.49 576.76 266.496 578.293 267.489 579.836C267.49 583.428 267.719 586.043 265.533 589.075C259.511 597.378 242.751 594.915 235.588 589.536C229.569 585.017 225.444 576.989 224.294 569.553C223.471 564.226 224.56 560.956 219.529 556.94C207.62 547.445 209.349 531.326 225.852 529.363C230.188 528.847 234.218 531.488 237.025 534.577C241.474 539.474 241.407 547.157 245.742 551.994C246.205 552.514 246.752 552.322 247.315 552.252C249.721 549.981 246.993 543.347 247.113 539.877C247.22 536.769 247.274 536.507 248.204 533.409C250.112 531.919 252.744 530.37 254.832 529.072Z" fill="#2A2A26"/>
<path d="M314.202 541.741C315.749 541.298 317.368 542.168 317.853 543.701C318.339 545.237 317.516 546.879 315.996 547.405C314.974 547.763 313.84 547.535 313.035 546.81C312.23 546.088 311.881 544.985 312.124 543.933C312.366 542.877 313.162 542.039 314.202 541.741Z" fill="white"/>
<path d="M256.536 537.209C257.126 537.212 257.757 537.202 258.34 537.298C259.104 537.424 259.496 537.98 259.873 538.596C260.225 540.265 259.452 541.44 258.591 542.781C257.484 542.986 257.049 542.983 256.113 542.43C255.766 541.923 255.527 541.473 255.473 540.854C255.358 539.536 255.72 538.239 256.536 537.209Z" fill="white"/>
<path d="M225.354 541.142C226.256 541.238 227.116 541.473 227.836 542.059C228.518 542.618 228.796 543.204 228.862 544.072C228.942 545.111 228 545.962 227.361 546.677C226.322 546.737 225.79 546.743 224.894 546.187C224.537 545.74 224.221 545.317 224.155 544.731C223.999 543.363 224.575 542.208 225.354 541.142Z" fill="white"/>
<path d="M283.769 537.772C284.622 537.944 285.387 538.295 285.995 538.944C286.555 539.546 286.656 540.288 286.556 541.076C286.435 542.029 285.457 542.632 284.75 543.161C284.677 543.178 284.605 543.195 284.532 543.208C283.443 543.387 283.113 543.228 282.236 542.635C281.899 542.029 281.756 541.582 281.833 540.88C282.003 539.331 282.637 538.722 283.769 537.772Z" fill="white"/>
<path d="M403.865 445.037C410.627 444.726 418.269 449.956 416.885 457.365C414.995 467.751 401.102 470.704 392.689 473.839C390.968 474.481 386.285 475.401 386.076 477.338C387.49 479.099 390.091 478.748 392.13 479.361C394.026 479.933 395.949 480.513 397.935 480.738C404.524 481.128 405.609 475.087 412.387 474.09C420.066 472.965 425.705 477.258 426.906 484.972C427.449 488.438 427.016 492.209 424.577 495.145C418.51 502.442 406.506 500.988 400.96 493.732C400.44 493.063 397.359 492.417 396.313 492.391C393.976 492.328 391.68 491.282 390.22 493.728C391.65 501.412 405.166 499.684 408.985 506.199C420.453 525.751 393.301 536.335 381.89 520.047C381.294 514.8 381.724 511.84 377.336 507.464C375.572 505.673 373.374 504.372 370.955 503.69C367.599 502.756 354.652 503.11 350.399 503.127C342.529 503.259 339.981 502.856 332.151 501.296C329.725 499.277 327.67 495.986 326.3 493.182C327.745 490.242 328.741 489.216 331.168 486.985C334.073 492.149 334.95 491.911 338.071 487.068C337.989 486.743 337.502 485.068 337.363 484.856C334.12 479.89 325.053 485.641 322.756 489.19C322.072 490.246 321.63 491.58 321.294 492.656C321.892 494.914 321.895 497.694 322.622 499.843C323.298 501.839 325.479 503.905 325.769 506.12C325.057 508.732 313.419 521.318 310.63 524.503C308.567 524.285 297.394 523.331 295.982 522.878C295.277 520.875 301.081 506.534 302.137 503.902C306.541 492.927 315.569 481.142 326.545 476.093C337.598 471.008 350.426 470.343 362.082 467.32C370.978 465.132 381.595 464.97 389.224 459.127C390.558 458.107 390.276 454.912 390.276 453.346C390.7 452.592 391.17 451.86 391.686 451.165C394.599 447.262 399.265 445.722 403.865 445.037Z" fill="#2A2A26"/>
<path d="M393.89 510.195C399.636 510.483 398.375 514.075 395.045 516.882C390.524 516.028 390.481 512.198 393.89 510.195Z" fill="white"/>
<path d="M411.16 485.326C413.311 485.283 415.111 485.154 415.876 487.491C415.69 488.703 415.485 488.905 414.76 489.915C410.481 490.716 407.304 488.312 411.16 485.326Z" fill="white"/>
<path d="M151.898 440.346C156.587 439.77 161.252 441.925 163.506 446.126C165.686 450.185 164.943 453.518 163.698 457.71C164.752 459.444 166.298 460.775 167.747 462.189C182.314 475.345 197.77 475.04 215.076 484.598C225.028 490.093 241.706 511.572 238.324 524.95C238.128 525.725 235.784 524.805 235.133 524.53C231.047 522.808 227.285 522.835 223.018 523.735C222.96 523.699 222.9 523.662 222.842 523.626C222.747 523.563 222.654 523.497 222.56 523.431C221.532 522.735 213.795 512.205 212.678 510.47C214.521 506.375 218.784 504.292 216.63 499.293C215.772 497.33 214.159 495.794 212.157 495.033C208.857 493.765 205.139 494.626 203.833 498.171C204.747 500.806 213.359 497.44 212.382 504.289C211.924 507.5 212.482 507.11 209.769 509.41C205.071 510.811 193.188 503.703 187.594 502.521C181.25 501.18 174.712 498.976 167.97 499.386C159.767 499.883 151.451 501.555 144.321 505.795C135.024 511.513 134.682 515.734 123.164 515.078C116.314 510.758 113.961 504.928 115.281 496.791C116.5 489.279 129.166 487.849 130.11 484.138C128.76 483.118 124.818 482.251 123.119 481.397C119.447 479.549 115.41 476.941 114.488 472.617C113.907 469.889 114.111 469.79 113.039 467.092C113.48 466.191 113.977 465.294 114.51 464.443C121.003 454.095 133.943 464.652 138.922 463.338C139.432 463.205 139.661 463.119 139.798 462.546C140.577 459.285 136.36 454.061 140.476 447.159C143.095 442.769 147.261 441.561 151.898 440.346Z" fill="#2A2A26"/>
<path d="M122.837 467.82C127.471 467.598 128.952 470.77 125.143 473.256C120.716 473.157 119.27 470.912 122.837 467.82Z" fill="white"/>
<path d="M151.307 449.235C153.478 449.245 155.257 449.413 156.022 451.727C155.665 453.211 155.716 452.823 154.569 454.051C154.397 454.118 154.223 454.177 154.048 454.234C152.696 454.661 152.11 454.631 150.899 453.985C149.509 452.224 149.906 450.966 151.307 449.235Z" fill="white"/>
<path d="M127.819 499.323C130.439 499.773 132.513 502.193 129.978 504.6C128.248 504.931 128.033 504.978 126.762 504.2C125.656 502.213 126.033 500.803 127.819 499.323Z" fill="white"/>
<path d="M82.8286 158.103C85.2158 157.703 93.0072 157.933 95.5148 158.513C110.861 162.062 128.728 168.994 137.759 182.691C145.481 194.403 147.178 208.85 152.67 221.727C154.9 226.955 162.172 233.996 161.233 240.469C158.244 249.728 148.128 245.145 143.687 240.687C136.002 232.972 133.679 227.971 130.956 217.695C130.069 214.233 128.19 210.392 127.38 206.979C123.246 189.57 115.191 175.418 96.0278 171.736C93.8677 171.38 91.9971 171.089 89.7317 171.26C77.0657 172.287 63.0242 183.078 63.761 196.818C64.039 202.001 68.1335 212.273 75.0618 211.278C78.4008 210.799 76.5958 207.277 77.3076 205.656C77.584 205.027 79.8689 202.696 80.553 201.773C85.8102 202.378 91.079 202.666 95.3159 206.149C101.68 211.379 98.5474 218.757 94.1407 223.991C85.1672 234.648 71.7578 234.47 61.759 225.536C38.0864 204.384 49.1039 159.76 82.8286 158.103Z" fill="#2A2A26"/>
<path d="M85.8552 77.1507C99.1358 75.7049 93.2739 92.3745 94.4442 99.2154C94.5726 99.9653 96.0417 100.959 96.7777 101.255C102.308 101.561 103.357 88.9127 110.329 86.0487C114.434 84.363 115.623 83.8145 120.834 85.2254C124.123 86.1159 127.373 88.4164 128.935 91.4062C130.027 93.4945 129.439 99.0152 128.585 101.218C127.159 104.893 123.38 108.414 119.612 109.617C117.725 110.22 115.946 110.321 114.05 111.151C111.744 114.024 111.131 125.288 110.236 129.639C108.511 138.02 104.489 143.841 97.4135 148.762C93.6207 151.4 90.7917 151.43 86.5277 150.524C72.0404 145.371 71.5728 132.452 66.4562 119.824C63.1563 111.679 64.2544 113.514 56.6394 114.191C52.6365 114.547 44.999 108.512 44.7617 104.176C43.8715 98.8569 46.7548 94.4012 49.5831 90.0227C52.3155 85.3889 54.9227 85.1473 59.8305 84.1084C75.5704 89.7602 70.9245 98.9725 76.004 101.715C76.6106 102.043 77.1494 102.083 77.7938 101.879C82.3173 100.447 78.8545 91.2026 78.6844 88.2781C78.5636 86.2083 79.013 83.9032 79.9205 82.0383C81.0504 79.717 83.0887 78.114 85.4941 77.2745L85.8552 77.1507Z" fill="#2A2A26"/>
<path d="M364.405 45.1578C366.97 44.7966 380.258 44.7169 382.317 45.7544C386.282 50.7996 363.714 65.426 358.604 67.45C320.533 82.5528 278.685 86.2758 240.905 102.314C235.917 104.432 234.755 107.564 230.759 110.703C230.366 111.011 228.084 110.708 227.462 110.642C221.692 109.285 211.22 111.331 208.754 109.06C208.674 108.438 208.627 107.758 209.279 107.224C214.292 103.121 221.995 100.819 227.714 97.1791C229.517 96.4716 231.171 94.4048 232.825 93.658C247.801 86.8935 262.194 77.6849 277.318 71.3846C290.745 65.7911 304.772 60.8518 318.507 56.2667C323.052 54.7568 327.577 53.1902 332.081 51.5667C335.751 50.2081 338.449 48.6925 342.433 48.3469C349.817 47.7073 356.995 45.7888 364.405 45.1578Z" fill="#2A2A26"/>
<path d="M334.239 363.902C339.117 363.604 340.269 364.501 343.247 368.265C341.99 373.708 339.319 377.859 336.959 382.822C336.655 383.457 336.853 385.54 336.979 386.328C337.204 387.771 337.406 388.185 338.518 389.006C343.426 389.602 347.335 379.971 350.403 377.73C353.679 375.337 360.083 374.466 362.181 378.78C365.021 384.619 361.841 389.767 360.13 395.319C361.304 398.143 362.354 399.811 365.971 398.305C371.806 395.875 379.821 389.148 385.848 394.948C388.909 397.898 390.058 403.162 387.51 406.813C375.112 422.158 388.406 417.215 397.309 412.689C398.623 412.021 402.373 411.763 404.173 411.67C404.885 411.978 405.59 412.309 406.281 412.66C409.171 414.156 411.269 415.778 412.265 418.933C414.138 427.65 411.203 431.328 404.104 436.482C400.361 439.2 397.382 439.25 393.103 439.694C379.047 441.16 371.567 430.268 362.876 421.472C358.544 417.202 352.693 412.256 347.719 408.753C338.621 402.341 330.8 399.292 319.734 397.6C317.944 397.325 315.704 396.541 314.621 394.945C314.548 394.094 316.538 382.58 316.954 381.402C320.377 371.708 324.537 366.706 334.239 363.902Z" fill="#2A2A26"/>
<path d="M312.571 13.9014C313.483 13.7567 313.631 13.7882 314.562 13.8802C315.6 14.8702 315.489 17.0404 315.867 18.5757C317.543 24.6203 314.853 27.4242 311.885 32.1056C304.013 44.5212 290.792 47.0806 278.161 52.7525C270.003 56.416 260.388 61.9204 251.383 63.2947L251.365 63.2963C247.966 66.4837 232.359 72.6496 227.507 75.8675C223.687 78.4004 221.173 80.7114 217.628 83.6191C215.296 85.5323 211.96 87.4554 209.61 89.5086C204.84 93.6775 199.976 100.17 197.286 105.906C196.762 107.024 195.965 110.537 195.659 111.841C186.805 112.467 182.235 115.154 172.842 115.961C172.596 115.77 172.077 115.24 171.825 114.999C169.788 109.688 176.97 100.686 180.298 96.7709C182.413 94.284 184.469 90.9811 186.664 88.6736C193.351 81.646 200.183 74.6141 207.99 68.8157C222.417 58.347 237.432 49.7277 254.865 45.4064C258.408 44.1868 261.993 42.8818 265.47 41.4897C267.072 40.8478 268.729 40.2748 270.273 39.606C272.508 38.6377 275.399 37.8336 277.478 36.7235C284.421 33.0176 291.255 28.9816 297.888 24.7455C299.428 23.7624 300.955 22.7096 302.561 21.8386C303.13 22.1438 303.201 23.2166 304.61 23.402C305.931 22.3246 306.316 20.3236 306.56 18.7126C308.575 16.9361 310.28 15.3255 312.571 13.9014Z" fill="#2A2A26"/>
<path d="M381.119 81.2326C389.326 80.5453 400.327 82.2883 408.373 83.9002C410.57 84.3405 413.585 85.5667 415.896 86.0776C418.358 86.6225 420.592 86.4775 422.74 87.8189C423.395 88.8429 423.273 88.3665 423.163 89.6235C421.717 92.2925 416.73 94.6522 413.976 95.7967C390.356 105.942 364.094 103.754 339.428 107.662C323.128 110.244 301.674 112.828 286.365 118.497C284.237 119.311 282.099 120.098 279.952 120.859C269.854 116.327 259.616 114.85 248.718 113.496C247.763 113.378 246.793 113.391 246.068 112.731L246.391 112.119C249.51 110.184 267.696 107.657 272.319 106.651C278.809 105.615 286.339 102.659 292.741 101.919C322.517 98.4746 351.69 84.2263 381.119 81.2326Z" fill="#2A2A26"/>
<path d="M262.659 609.601C264.374 609.266 266.376 609.343 268.13 609.366C275.05 609.465 286.574 610.862 292.521 614.123C295.138 615.56 297.454 617.689 299.517 619.837C303.913 624.412 304.116 627.329 304.003 633.39C303.281 634.513 302.505 635.608 301.632 636.622C294.769 644.577 283.059 645.686 273.279 646.388C264.269 646.54 242.424 646.086 235.731 640.991C233.209 639.071 231.639 636.089 231.236 632.967C230.683 628.683 231.803 623.25 234.507 619.821C240.353 612.402 253.834 610.607 262.659 609.601Z" fill="#2A2A26"/>
<path d="M266.348 625.779C267.379 626.061 268.694 626.412 269.543 627.071C270.155 627.547 270.532 628.18 270.589 628.951C270.637 629.613 270.326 630.305 269.875 630.788C268.566 632.189 266.898 632.053 265.134 632.083C263.769 631.798 262.313 631.04 261.47 629.918C261.279 629.054 261.172 628.679 261.674 627.872C262.593 626.389 264.785 626.097 266.348 625.779Z" fill="white"/>
<path d="M249.207 142.829C252.255 142.849 255.393 142.923 258.382 143.554C266.993 145.37 299.353 158.5 303.293 165.579C303.712 166.332 303.724 166.633 303.443 167.411C300.712 169.235 296.194 166.396 293.258 165.761C284.1 163.781 269.565 162.247 260.173 162.873C249.262 163.601 236.81 172.599 229.752 180.564C220.001 191.472 218.64 197.159 212.515 209.986C211.081 212.991 207.362 213.912 204.7 211.323C201.416 208.13 202.289 205.92 202.772 201.712C204.708 181.221 214.536 157.269 233.123 146.57C238.531 143.457 243.195 143.05 249.207 142.829Z" fill="#2A2A26"/>
<path d="M422.121 305.76C422.746 305.89 423.402 306.021 423.974 306.315C426.754 307.741 434.389 322.732 435.511 326.32C438.08 334.541 438.404 361.829 437.788 371.351C437.424 376.462 436.723 381.544 435.683 386.563C434.416 392.27 432.354 397.772 429.561 402.907C426.556 408.462 424.126 408.75 418.507 410.425C417.805 410.72 416.117 411.239 415.333 411.504C409.217 409.839 404.908 406.724 405.927 399.643C407.883 386.073 414.188 373.158 418.391 360.141C422.624 347.038 423.385 333.766 421.545 320.167C420.645 313.692 416.627 312.669 422.121 305.76Z" fill="#2A2A26"/>
<path d="M398.358 124.969C410.329 124.883 418.222 127.126 429.094 131.963C432.268 133.374 435.879 136.301 433.751 140.082C429.197 143.412 412.649 141.895 406.48 142.733C391.223 144.805 376.826 140.296 361.659 140.238C357.323 140.222 353.146 139.855 348.748 140.149C345.442 140.42 341.705 140.333 338.349 140.326C327.336 133.411 318.283 133.707 308.116 127.607C311.962 127.215 317.774 128.115 322.417 127.891C334.61 127.303 347.335 126.482 359.504 126.053L398.358 124.969Z" fill="#2A2A26"/>
<path d="M181.345 593.025C181.733 592.952 182.125 592.899 182.518 592.866C187.717 592.389 195.946 593.667 199.952 597.064C200.224 597.875 200.445 598.703 200.616 599.543C201.201 602.367 200.342 605.337 198.741 607.697C197.753 609.151 196.35 610.425 194.541 610.664C191.288 611.091 189.59 607.538 187.194 605.817L186.886 605.602L182.889 605.175C181.732 605.787 180.598 606.453 179.458 607.098C178.157 609.472 177.556 611.286 178.033 614.007C178.732 618.003 180.361 621.234 183.742 623.561C191.235 628.713 205.969 627.418 214.557 625.902C216.732 625.518 219.265 625.601 221.099 627.018C222.439 628.054 222.626 629.653 222.862 631.209L224.312 638.538C224.002 638.628 223.69 638.707 223.375 638.78C220.15 639.528 216.681 639.697 213.39 640.025C200.135 641.349 184.336 641.75 172.623 634.354C166.757 630.653 163.276 623.518 161.801 616.897C160.69 611.912 161.339 607.73 164.158 603.437C168.162 597.335 174.427 594.501 181.345 593.025Z" fill="#2A2A26"/>
<path d="M305.715 235.15C307.536 235.094 310.286 234.834 310.577 237.054C310.08 238.309 308.967 238.86 307.809 239.672C307.779 241.707 307.543 248.333 308.133 249.633C312.916 260.155 321.194 259.573 322.352 273.48C332.078 279.036 333.316 279.607 336.84 290.24C337.38 291.866 348.275 292.219 350.254 292.488C351.564 292.666 355.486 290.374 356.919 292.375C357.194 294.865 355.261 298.537 353.256 300.015C351.677 301.181 349.966 301.507 348.089 301.886C335.44 304.547 333.756 299.013 323.762 293.742C322.136 292.884 317.865 293.501 315.632 292.681C311.689 287.877 307.773 282.872 303.489 278.315C302.396 276.398 301.973 271.13 300.865 269.51C295.141 261.139 289.047 252.091 295.175 241.924C297.546 237.99 301.073 236.137 305.715 235.15Z" fill="#2A2A26"/>
<path d="M212.164 135.745C214.121 135.513 230.489 137.712 232.38 138.886L232.468 139.304C230.898 139.994 225.435 142.315 224.178 143.104C209.053 152.603 203.431 174.894 200.499 191.408C199.53 196.868 200.128 201.996 198.715 207.489C194.962 215.505 188.29 214.513 185.905 207.484C181.271 193.827 185.296 174.827 189.863 161.535C192.509 153.833 204.525 138.985 212.164 135.745Z" fill="#2A2A26"/>
<path d="M199.404 221.866C211.343 220.527 219.125 230.209 225.716 238.701C228.561 242.366 228.899 245.391 233.03 249.124C235.489 251.336 238.213 253.232 241.14 254.77C250.849 259.817 268.404 264.036 275.325 272.555C276.496 273.997 277.137 280.024 276.86 281.97C276.689 283.17 275.177 283.985 274.115 284.56C266.638 285.773 263.686 278.159 257.307 275.18C253.654 273.168 249.708 272.937 245.756 272.017C240.545 270.804 232.435 268.185 228.978 264.057C222.025 255.752 215.893 247.383 208.194 239.636C204.782 236.202 201.106 233.055 197.975 229.404C196.328 227.418 196.697 223.313 199.404 221.866Z" fill="#2A2A26"/>
<path d="M144.568 24.9039C147.995 24.8997 152.922 26.5648 155.865 28.2242C156.46 29.3715 157.15 31.0656 157.69 32.286C154.007 36.8371 149.068 37.578 143.731 39.6071C138.168 41.7225 135.059 42.9981 130.06 46.056C120.697 51.7843 110.496 67.4299 101.595 72.2861C99.9638 72.9824 97.8361 73.4826 96.0923 73.9504C91.8124 71.7545 90.9681 69.7397 89.2753 65.4572C90.247 63.3626 90.9572 60.8088 92.3085 58.9327C103.981 42.7256 125.493 29.3368 144.568 24.9039Z" fill="#2A2A26"/>
<path d="M400.768 312.007C401.486 312.184 402.353 312.251 402.743 312.816C404.21 314.929 405.871 320.566 406.132 323.102C406.814 329.787 407.096 337.017 407.175 343.714C407.221 347.667 407.688 353.123 407.552 356.778C407.175 366.954 403.061 380.921 395.357 387.917C393.92 389.221 392.838 390.231 390.776 390.168C388.536 389.463 386.232 388.857 384.22 387.655C377.852 375.843 391.511 347.746 395.092 335.577C396.7 330.114 398.444 315.678 400.768 312.007Z" fill="#2A2A26"/>
<path d="M369.837 305.789C370.783 305.988 372.362 306.327 373.014 306.958C376.244 310.097 382.704 330.856 383.105 334.451C384.121 343.585 381.926 358.35 376.336 365.547C374.47 367.951 371.458 370.689 369.386 373.234L369.112 373.572C368.41 373.946 365.279 373.479 364.23 373.39C362.539 371.523 360.338 370.149 358.617 368.325C354.305 363.746 357.81 355.738 359.256 350.461C361.175 343.453 363.499 336.408 365.398 329.368C366.98 323.501 365.541 309.703 369.837 305.789Z" fill="#2A2A26"/>
<path d="M312.859 326.573C317.441 326.013 320.03 328.318 319.717 332.932C318.133 356.337 313.193 380.16 301.753 400.864C301.279 401.722 301.123 402.178 300.209 402.42L299.036 401.732C295.234 399.239 294.144 398.58 289.65 398.107C293.719 388.089 296.764 379.263 299.143 368.656C300.314 364.312 300.237 359.31 301.21 355.01C302.947 347.614 304.333 340.089 305.073 332.521C305.679 326.323 307.392 327.166 312.859 326.573Z" fill="#2A2A26"/>
<path d="M192.013 139.167C193.426 139.096 195.762 138.813 196.95 139.412C196.941 140.176 191.107 147.671 190.171 149.174C185.9 156.039 182.137 164.578 180.894 172.618C180.55 174.841 180.808 177.522 179.508 179.353C179.051 183.404 179.188 196.071 180.222 199.838C181.178 203.317 182.896 208.382 183.917 212.399C182.162 216.917 183.952 220.975 177.239 218.743C172.271 216.213 171.134 208.161 170.077 203.156C168.687 196.573 167.884 189.65 167.596 182.928C167.491 180.472 166.936 178.074 166.827 175.624C167.27 167.23 169.647 158.79 174.401 151.787C178.41 145.884 184.878 140.527 192.013 139.167Z" fill="#2A2A26"/>
<path d="M106.114 24.2635C107.383 24.0755 108.489 23.9512 109.59 24.5784L109.744 25.1902C109.297 25.8955 101.909 31.1752 100.49 32.3888C97.7736 34.7005 95.2719 37.2539 93.0165 40.0179C84.5384 50.3223 83.9493 63.7585 72.438 71.8389C69.1588 74.1407 66.6016 73.8305 62.9581 73.072C62.4001 72.939 62.2376 72.8903 61.758 72.5337C59.8822 71.1221 58.6225 69.0411 58.2413 66.7241C56.9479 58.9522 66.4937 45.7157 72.1335 40.6058C82.1512 31.5291 92.8176 26.5046 106.114 24.2635Z" fill="#2A2A26"/>
<path d="M337.393 315.53C339.256 315.394 340.947 315.243 342.735 315.981C356.893 321.821 357.955 353.384 343.731 359.651C342.318 360.138 340.365 360.608 338.882 361.008C338.045 360.111 336.966 359.505 335.877 359.019C324.587 353.95 328.144 342.238 330.368 332.74C331.436 328.174 332.69 322.331 334.712 318.033C335.195 317.007 336.44 316.183 337.393 315.53Z" fill="#2A2A26"/>
<path d="M344.575 340.447C345.203 340.179 345.928 340.268 346.474 340.685C347.017 341.099 347.295 341.778 347.199 342.456C347.103 343.135 346.653 343.708 346.014 343.959C345.051 344.337 343.959 343.873 343.565 342.913C343.171 341.953 343.622 340.857 344.575 340.447Z" fill="#67685C"/>
<path d="M251.791 464.245C256.47 464.086 260.626 466.701 263.259 470.445C268.978 478.573 264.218 483.509 262.513 491.643C261.509 497.781 261.677 503.796 261.728 510.003C261.767 514.737 264.531 518.528 264.67 522.97C264.691 523.662 263.835 524.109 263.298 524.407C262.164 524.414 261.919 524.142 260.895 523.537C260.358 523.073 259.835 522.593 259.327 522.096C251.809 514.664 250.113 502.011 251.134 491.964C251.421 489.14 251.542 486.29 251.551 483.452C247.685 482.188 244.188 479.788 243.254 475.557C242.743 473.14 243.206 470.621 244.543 468.545C246.327 465.787 248.748 464.857 251.791 464.245Z" fill="#2A2A26"/>
<path d="M146.821 90.4266C151.232 89.7178 158.381 92.6334 161.432 95.8066C166.243 100.811 167.467 114.422 161.981 119.334C156.666 124.094 148.444 122.406 149.342 114.147L149.382 113.799C149.808 111.686 151.14 106.965 148.896 105.88C145.498 106.355 142.799 110.926 139.459 112.583C136.09 114.256 131.962 113.284 130.073 109.817C129.351 108.491 130.885 105.998 131.426 104.631C134.897 95.8622 138.413 93.6047 146.821 90.4266Z" fill="#2A2A26"/>
<path d="M180.861 17.6695C189.892 16.2067 196.826 18.8752 199.511 28.0364C195.045 36.3356 187.003 36.1528 178.576 37.3039C177.31 37.726 176.61 37.493 175.337 37.3917C167.849 36.7958 164.025 35.548 160.505 28.547C163.692 20.1344 173.013 18.5249 180.861 17.6695Z" fill="#2A2A26"/>
<path d="M281.304 462.556C283.138 462.48 288.561 462.368 288.778 464.377C289.721 473.792 287.042 483.909 286.272 493.374C285.367 504.484 284.491 514.333 280.662 524.92C280.502 525.477 280.171 525.741 279.773 526.172C278.376 526.523 278.902 526.569 277.675 526.172C274.628 523.103 277.187 502.415 276.652 497.297C276.476 495.612 277.177 489.878 277.145 487.389C277.059 480.768 276.417 474.521 275.939 467.949C277.526 465.066 278.223 463.808 281.304 462.556Z" fill="#2A2A26"/>
<path d="M23.7915 168.602C31.0805 168.154 33.4825 170.793 37.3848 176.516C37.5364 181.816 38.4429 186.235 34.62 190.186C32.8324 192.033 29.7781 194.936 27.293 196.325C26.4656 196.376 25.7917 196.417 25.2714 196.449C8.17737 196.333 6.99765 177.563 19.6883 169.755C20.6439 169.167 22.6452 168.832 23.7915 168.602Z" fill="#2A2A26"/>
<path d="M22.6202 179.103C27.4205 180.006 28.1387 184.496 23.3545 186.884C18.5388 187.386 17.8952 181.401 22.6202 179.103Z" fill="white"/>
<path d="M251.324 423.032C251.749 423.22 252.166 423.429 252.571 423.657C258.488 427.014 259.396 433.364 251.747 435.065C246.437 434.648 246.212 432.51 245.366 428.004C247.597 425.342 248.26 424.558 251.324 423.032Z" fill="#2A2A26"/>
<path d="M7.15345 97.1199C7.98356 97.2828 8.06921 97.2314 8.72457 97.7913C8.99631 100.629 10.5453 109.709 9.59855 111.616C8.41456 111.286 7.71456 110.897 7.47173 109.601C6.87125 106.396 5.64403 99.9948 7.15345 97.1199Z" fill="#40403C"/>
</g>
<defs>
<clipPath id="clip0_15_329">
<rect width="464" height="678" fill="white"/>
</clipPath>
</defs>
</svg>
