<svg width="146" height="374" viewBox="0 0 146 374" fill="none" xmlns="http://www.w3.org/2000/svg">
<g clip-path="url(#clip0_15_392)">
<path d="M0 0H146V373.555H0V0Z" fill="white"/>
<path d="M104.406 178.214C106.542 178.028 107.5 178.615 109.296 179.648C111.302 178.942 121.385 179.037 122.095 181.529C123.085 185.001 121.01 203.004 114.494 193.003C114.251 190.272 115.536 186.469 108.645 188.229C107.421 188.543 107.049 194.571 106.314 196.804C102.127 209.532 98.6285 212.862 86.4209 219.146C89.8295 223.715 93.0426 224.313 95.883 228.049C100.478 234.094 101.404 240.746 100.304 248.093C99.8257 251.288 99.3073 252.107 98.319 254.809C96.2553 261.196 91.81 264.095 86.9431 268.128C82.9657 271.424 79.6644 273.957 75.0163 276.261C73.5457 276.989 71.668 279.119 70.1456 279.996C68.0728 281.191 65.8536 282.058 63.9864 283.591C52.8902 291.345 43.7315 307.422 52.1168 320.316C53.3863 322.268 55.7797 324.726 57.3262 326.733C57.287 327.349 57.2633 327.61 57.3536 328.217C58.1637 329.376 60.4693 328.996 61.6665 329.478C70.2507 332.918 81.4409 333.801 89.4796 328.549C92.337 326.683 96.48 321.078 97.4972 317.684C97.9734 315.22 99.0926 312.786 99.4467 310.32C100.621 302.142 98.5638 293.053 93.91 286.459C95.3001 285.226 96.9468 284.316 98.7313 283.796C100.953 284.777 102.281 286.016 103.568 288.086C105.038 290.448 107.328 296.246 107.686 298.971C108.284 304.409 108.641 310.658 107.436 316.006C106.594 319.376 105.555 322.855 103.36 325.598C100.048 329.739 97.9046 333.217 93.1921 336.051C86.4925 340.081 79.4982 341.058 71.8319 340.044C67.7682 339.506 64.3673 339.2 60.5067 337.626C55.7631 335.942 52.7081 334.492 49.3227 330.536C48.0914 329.097 46.6199 327.893 45.6773 326.165C44.8033 324.642 44.1775 323.088 43.5219 321.459C40.6673 315.159 39.934 308.857 41.6011 302.045C41.7367 301.567 41.8931 301.096 42.0702 300.631C42.8454 298.618 44.6985 294.455 45.7464 292.655C47.2192 289.645 51.1723 286.439 52.9163 283.929C57.212 277.627 59.1678 276.168 66.2547 273.716C68.0156 273.109 75.9777 267.889 77.7693 266.473C82.4121 262.803 88.5211 257.72 91.3919 252.547C91.9253 251.584 92.133 248.87 92.3427 247.697C93.6206 241.313 92.173 239.276 90.1994 233.698C86.6334 223.618 77.122 222.655 67.7581 221.855C65.5475 222.041 62.8111 222.922 60.628 222.871C50.8628 222.639 42.1848 228.735 38.4258 237.568C35.1594 245.244 39.8402 257.094 44.5554 263.338C45.6869 264.837 47.9616 266.377 48.7909 268.16C48.708 269.536 46.3076 271.272 44.9976 271.309C41.5949 271.4 38.8791 267.338 36.9439 265.211C32.081 259.867 30.7858 254.699 30.0179 247.779C28.6637 235.577 34.3816 227.699 41.8995 219.035C39.066 215.644 36.007 214.694 34.248 212.547C30.8325 208.109 28.45 203.046 26.8862 197.714C25.3802 192.579 25.8707 187.593 19.1816 190.978C19.2327 192.888 19.2474 194.799 19.0217 196.698C18.7587 196.873 18.2345 197.251 17.9689 197.346C12.1826 199.396 12.6553 195.658 12.7424 191.589C12.805 188.663 12.8958 186.099 12.9827 183.454C13.7751 182.302 15.4095 181.192 16.6848 181.288C25.4163 181.951 32.1204 177.817 33.4823 189.794C34.3729 193.183 35.2335 199.359 37.012 202.236C39.8951 206.9 46.6312 211.405 51.86 212.472C63.377 214.827 78.0889 214.449 88.7115 208.999C93.1497 206.723 97.8484 200.107 99.5279 195.538C101.317 190.734 100.898 186.155 101.682 181.261C101.901 179.893 103.262 178.844 104.406 178.214Z" fill="#222220"/>
<path d="M53.9692 72.8521C57.1887 72.6316 60.9931 72.6874 64.2496 72.6887C70.7986 72.638 77.3474 72.8096 83.8848 73.203C85.7295 73.3083 87.6213 74.3673 89.4667 74.3974C90.7291 74.4178 92.9778 73.6481 94.2493 73.6663C97.6936 73.8203 101.76 75.1416 104.415 77.3563C105.495 78.2564 105.061 80.6092 104.754 81.7789C104.301 83.5088 103.021 94.927 101.944 95.4629C97.596 97.6273 89.6021 95.802 84.8524 95.3234C82.185 95.0573 79.7747 94.9772 77.3348 94.8296C67.3448 93.8926 57.934 94.1755 47.972 95.0153C44.562 95.3028 41.1146 95.095 37.7504 95.3551C35.2076 95.5516 32.2924 96.3457 29.7452 96.8612C28.5442 93.0408 26.3392 80.3854 26.5044 76.6511C26.9816 75.8794 27.645 74.9099 28.5935 74.7377C29.9808 74.4859 31.4952 75.0725 32.8714 74.8919C35.4025 74.5595 37.9075 73.9737 40.4476 73.6995C44.9533 73.2052 49.4695 73.236 53.9692 72.8521Z" fill="#222220"/>
<path d="M59.9701 78.9918C61.0525 78.9233 62.6067 79.2016 63.7051 79.1635C67.4827 79.0323 69.5086 78.9065 73.2534 79.6551C73.601 81.6157 74.5624 85.6026 72.5062 86.6643C70.0846 87.4787 64.5045 86.2607 61.7568 86.5768C61.1396 86.6477 59.4171 86.3037 58.978 85.8123C58.3935 84.7072 58.4333 81.0785 58.6712 79.8845C58.9295 79.347 59.4138 79.2224 59.9701 78.9918Z" fill="white"/>
<path d="M83.3648 79.9028C85.434 79.7678 94.3442 80.348 95.8553 82.5213C96.4634 83.3959 96.054 87.1575 95.642 88.3355C93.0985 88.6508 86.3259 87.5871 83.2555 87.246C82.838 84.9514 82.8024 82.1727 83.3648 79.9028Z" fill="white"/>
<path d="M38.249 79.7541C41.1168 79.564 45.1108 79.5702 47.9412 80.0574C47.9554 80.1275 47.9686 80.1977 47.9804 80.2681C48.4659 83.0347 48.0531 84.7758 46.4629 87.0353C45.995 87.2203 45.2021 87.3773 44.6901 87.4957C41.8375 87.9004 39.6022 88.195 36.7027 87.9342C35.2547 85.2609 35.3876 83.6759 35.6699 80.7143C36.7289 80.1319 37.0759 79.994 38.249 79.7541Z" fill="white"/>
<path d="M67.4639 164.603C77.6412 163.966 88.3952 169.284 89.2938 180.238C90.0016 186.305 88.7352 192.756 84.708 197.397C81.07 201.588 78.9917 203.693 73.47 204.171C72.4675 204.259 70.4788 205.353 68.656 205.543C66.2948 205.588 61.9949 205.353 59.7208 204.95C57.5299 202.849 55.282 201.422 52.9816 199.556C48.8109 196.176 46.6503 190.082 46.205 184.846C45.7648 177.626 50.6082 170.184 57.114 167.198C61.3655 165.247 62.8826 164.892 67.4639 164.603Z" fill="#222220"/>
<path d="M66.9415 170.799C67.0831 170.785 67.2247 170.774 67.3665 170.764C79.7807 169.903 84.1319 176.897 81.5592 188.585C80.1767 194.867 78.1794 197.55 71.1682 197.975C67.4762 197.955 64.9628 196.673 61.7105 194.659C54.3163 190.081 54.1488 182.464 58.2747 175.453C60.0107 172.504 63.5867 171.371 66.9415 170.799Z" fill="white"/>
<path d="M65.7275 180.078C69.237 179.815 70.6909 181.714 72.6083 184.426C72.2665 187.899 71.529 190.983 68.0874 192.499C62.4903 193.384 57.7703 182.991 65.7275 180.078Z" fill="#222220"/>
<path d="M65.75 228.067C73.2661 227.188 82.4501 230.852 84.4751 238.785C87.2562 249.678 80.2272 256.315 70.4157 259.137C69.9994 259.219 69.5802 259.287 69.159 259.338C64.5439 259.878 60.6017 258.172 56.8358 255.473C53.6036 253.156 52.1427 247.786 51.616 244.027C51.0183 239.761 52.7172 236.899 55.3419 233.594C58.3274 229.833 61.0527 228.571 65.75 228.067Z" fill="#222220"/>
<path d="M69.3021 234.59C77.7564 235.573 80.1269 244.47 74.6413 250.398C72.6495 252.551 70.6728 252.377 67.9893 252.494C67.1385 252.534 66.1924 252.529 65.3332 252.542C63.31 251.02 63.1465 250.453 60.5762 248.999C60.2891 245.816 59.3961 244.687 59.481 240.914C61.6473 237.712 65.7656 235.925 69.3021 234.59Z" fill="white"/>
<path d="M67.3396 240.244C73.5585 239.471 73.7978 245.056 70.1182 247.028C67.2159 247.403 64.3623 246.814 65.1027 242.781C65.3236 241.579 66.2956 240.815 67.3396 240.244Z" fill="#222220"/>
<path d="M95.8959 18.1152C102.823 17.4385 105.803 20.4136 109.28 26.0126C110.216 27.4783 111.33 29.0493 111.976 30.6592C115.202 38.7032 112.825 47.4444 113.705 55.7715C113.878 57.408 115.483 59.4895 116.881 60.4453C118.368 60.5994 120.118 60.2229 121.457 61.028C121.968 61.3352 122.431 61.773 122.554 62.378C122.718 63.1769 122.311 63.9824 121.865 64.6175C120.708 66.2631 118.756 67.2867 116.802 67.6207C114.864 67.9519 112.267 67.8336 110.626 66.6412C105.34 62.7991 107.222 46.1285 106.299 39.7197C105.643 34.1286 105.086 29.7321 99.309 27.4592C98.0857 27.7532 96.9243 28.1133 95.9479 28.9386C94.9758 29.729 94.5389 32.2658 94.608 33.478C95.1499 42.9593 95.6069 52.7143 95.2495 62.2109C94.9046 62.3127 94.5586 62.4114 94.2116 62.5069C92.2113 63.0605 89.6353 63.0614 89.0392 60.4398C88.7781 59.2301 88.9144 57.8297 88.6806 56.6238C87.2217 49.1009 87.3776 41.9129 87.3821 34.2964C87.386 27.6228 88.1085 19.9347 95.8959 18.1152Z" fill="#222220"/>
<path d="M23.7442 24.5087C30.2062 23.8181 33.6983 25.0681 36.0745 31.4992C39.0669 39.5984 39.909 48.0811 41.7033 56.4713C42.2714 59.128 43.4723 61.5696 44.1271 64.2096C42.6653 66.3897 40.8541 67.5251 38.1801 67.4191C36.7902 67.3641 35.7089 66.6549 35.2682 65.2871C34.4975 62.8958 34.9948 60.2304 34.8077 57.756C34.6949 54.6971 34.2133 51.6751 33.6397 48.6701C33.132 46.0113 32.8033 42.9909 31.9503 40.4306C31.0333 37.6778 29.0869 34.512 27.1342 32.3355C26.2797 31.7292 25.7771 31.5703 24.8045 31.1989C16.8623 35.8354 21.8741 47.8208 21.9723 55.0426C22.0712 62.3005 21.5571 64.7379 14.3213 66.8451C12.0856 65.9217 9.53727 64.7725 8.95075 62.0768C7.74388 57.2385 13.658 59.7494 13.682 56.5417C13.7508 47.3794 11.7417 37.4512 17.1542 29.3104C18.7684 26.8824 20.7404 25.0805 23.7442 24.5087Z" fill="#222220"/>
<path d="M60.8991 21.5724C67.1224 20.8581 70.5371 24.3524 73.1215 29.6861C74.0196 31.5588 74.6697 33.5402 75.0555 35.5805C75.8046 39.4228 75.7172 42.9513 76.2072 46.675C76.8664 51.032 77.4327 55.3941 77.8127 59.785C78.0642 62.6913 76.6056 64.1429 74.161 65.3195C72.9655 65.1158 70.7355 64.7171 69.9548 63.7323C68.0398 61.3171 69.0246 46.7536 68.7944 42.8422C68.6304 40.0541 68.2657 36.9485 67.1435 34.3791C66.6535 33.2573 65.9901 32.4124 65.1985 31.4846C64.2031 30.5239 63.3848 30.0303 61.9635 30.3632C54.6852 32.0679 58.4063 44.1749 58.6409 49.2219C58.8482 53.6832 59.8762 59.4206 57.7577 63.2646C56.312 65.6362 53.3739 66.3745 52.7625 62.9516C52.3813 61.2276 52.4019 59.437 52.241 57.6783C51.9311 54.2931 50.8008 50.4653 50.7463 47.0956C50.6112 38.7744 50.0431 23.2452 60.8991 21.5724Z" fill="#222220"/>
<path d="M74.2335 290.778C80.0083 290.233 88.0144 294.711 88.6993 301.033C89.0506 304.277 88.3894 310.771 86.2575 313.417C83.797 316.473 79.6765 318.244 75.7811 318.692C72.8446 318.738 70.3245 318.663 67.6016 317.177C62.4363 314.432 59.7778 306.707 61.3815 301.226C63.0924 295.378 68.7842 292.29 74.2335 290.778Z" fill="#222220"/>
<path d="M73.2927 298.287C78.7712 297.828 80.5832 300.783 82.7146 305.365C81.0084 308.205 80.3263 310.019 77.2064 311.283C72.7925 312.082 66.3973 307.838 68.705 302.884C69.7873 300.56 70.9377 299.322 73.2927 298.287Z" fill="white"/>
<path d="M63.4518 306.676C63.8634 306.776 64.103 306.789 64.3676 307.128C64.3475 307.816 64.0417 308.049 63.6239 308.688C63.1127 308.383 62.9956 308.341 62.7815 307.792C62.9299 307.061 62.8636 307.294 63.4518 306.676Z" fill="#717268"/>
<path d="M67.2146 149.112C71.9989 148.884 77.4063 149.153 82.2063 149.629C84.1473 149.822 86.3959 151.061 88.1549 151.536C92.4484 152.66 96.1863 154.277 99.81 156.902C101.689 158.264 100.363 160.585 99.3385 162.037C98.6645 162.992 96.0949 164.153 94.9579 163.93C92.577 163.463 90.3728 161.195 88.0864 160.297C86.5808 159.698 84.8682 159.317 83.3188 158.889C78.7966 157.639 74.6958 156.952 69.9928 157.104C67.482 157.185 64.8146 156.963 62.2285 157.085C56.8087 158.385 47.9643 162.444 43.1553 165.618C41.8181 166.501 40.0212 168.715 38.3446 169.826L38.2787 169.869C35.5737 169.229 34.7997 167.933 34.0527 165.458C38.8614 154.98 56.5512 149.618 67.2146 149.112Z" fill="#222220"/>
<path d="M60.6044 102.435C65.3836 101.971 90.3766 103.653 93.7156 106.178C94.4755 107.311 94.42 110.763 94.4425 112.271C89.7395 112.932 85.9686 111.752 81.3224 111.406C78.1409 111.17 74.8568 111.229 71.6597 111.234C69.2066 111.196 66.1302 110.853 63.6343 110.667C60.3186 110.408 56.9933 110.292 53.6676 110.319C48.9638 110.338 41.9987 111.611 38.1589 111.049C37.6797 109.124 37.6063 108.049 37.6459 106.074C44.376 102.802 53.0117 103.283 60.6044 102.435Z" fill="#222220"/>
<path d="M65.8079 116.263C67.1005 116.11 68.7253 116.463 69.9179 116.96C72.2342 117.926 74.1045 119.999 75.0387 122.307C75.4329 123.281 75.6391 124.299 75.7437 125.341C75.9122 127.02 76.2014 138.09 75.8247 138.924C75.253 140.19 73.6495 140.795 72.4507 141.275C71.1901 140.813 70.7315 140.621 69.582 139.939C69.362 136.881 70.3094 125.825 68.2534 123.31C67.3604 122.705 66.2145 122.998 65.1686 123.153L63.3998 123.617C63.2072 126.842 63.5534 138.596 62.2309 140.922C60.9942 142.114 56.6352 141.891 56.1011 139.434C55.0287 135.502 54.4843 132.613 54.9287 128.562C55.7412 121.156 57.2143 116.965 65.8079 116.263Z" fill="#222220"/>
<path d="M32.1472 122.283C32.2644 122.285 32.3814 122.292 32.4982 122.301C43.5874 123.25 42.4225 134.745 44.0669 142.783C44.8388 146.556 39.4542 146.337 38.6083 145.263C36.4203 142.484 37.9716 125.139 30.7878 131.226C30.3626 131.688 29.7883 132.563 29.8401 133.21C30.2545 137.204 31.2081 141.636 31.9293 145.575C32.8251 150.469 26.6385 151.033 26.1532 148.235C25.2336 142.933 24.4304 137.309 23.9614 131.929C23.8366 130.497 23.5606 128.822 23.6168 127.365C24.1607 123.481 29.3484 122.608 32.1472 122.283Z" fill="#222220"/>
<path d="M97.633 121.333C100.874 121.109 102.915 122.511 105.203 124.672C106.315 125.722 107.823 127.565 107.635 129.197C107.031 134.442 106.035 141.041 102.938 145.422C102.072 146.481 98.3438 146.916 97.4638 145.897C96.8294 145.042 97.3329 143.287 97.681 142.406C98.8645 139.408 99.664 137.255 99.8257 134.024C99.8505 133.203 99.9701 131.691 99.6317 130.963C99.0742 129.763 97.5136 129.623 96.5892 130.553C93.7278 133.433 93.3647 138.14 90.6312 141.088C89.9061 141.868 86.9069 141.517 85.957 141.431C85.3316 136.762 87.5876 130.781 89.795 126.649C91.1945 124.029 94.7248 122.004 97.633 121.333Z" fill="#222220"/>
</g>
<defs>
<clipPath id="clip0_15_392">
<rect width="146" height="373.555" fill="white"/>
</clipPath>
</defs>
</svg>
