<svg width="155" height="170" viewBox="0 0 155 170" fill="none" xmlns="http://www.w3.org/2000/svg">
<g clip-path="url(#clip0_15_82)">
<path d="M0 0H2.52644H155V169.531H0V3.16887V0Z" fill="white"/>
<path d="M0 0H2.52644C2.13458 1.17305 1.28293 2.79153 0 3.16887V0Z" fill="#30302B"/>
<path d="M82.4347 11.1155C85.7202 10.9418 90.213 10.8899 93.4306 11.4638C95.14 11.7687 97.4069 12.6284 99.113 13.1674C100.772 13.6916 102.565 14.3142 104.189 14.9451C105.418 15.4227 106.764 16.4063 107.934 16.8843C109.457 17.5067 111.247 18.0363 112.821 18.5616C115.824 19.5632 117.855 21.3722 120.409 23.1621C121.416 23.8671 122.861 24.5786 123.789 25.2655C124.901 26.0892 126.258 27.2715 127.349 28.185C128.357 29.0288 130.604 30.5011 131.416 31.3483C135.506 35.6132 139.426 40.7369 142.449 45.8042C143.533 47.6212 143.748 49.7794 144.508 51.711C145.192 53.4499 146.096 55.0886 146.869 56.7353C149.195 61.6867 149.876 66.2132 149.693 71.6354C149.651 72.9 149.774 75.4323 149.541 76.5749C149.07 78.8803 148.604 80.2661 148.334 82.6642C148.007 85.567 148.382 89.7518 148.17 92.3308C147.972 94.7367 145.961 101.846 145.207 104.082C143.337 109.632 138.795 116.151 134.862 120.514C134.062 121.4 132.514 122.346 131.462 123.487C129.035 126.119 125.654 129.542 122.792 131.631C121.305 132.717 117.258 134.23 115.336 135.25C112.981 136.382 110.631 137.973 108.265 139.037C104.096 140.913 96.0843 144.326 91.6852 142.759C88.482 143.648 83.9644 143.501 80.5329 143.537C75.8618 143.558 71.7036 143.498 67.0829 142.788C66.1101 142.638 63.1331 142.434 62.3422 142.125C60.3813 141.358 59.4233 140.537 57.1921 139.906C55.9591 139.558 53.3373 138.913 52.2588 138.499C49.7568 137.538 45.8612 135.657 43.644 134.199C42.0858 133.174 39.6957 130.829 38.2246 129.521C36.5031 127.99 34.8603 126.525 33.0899 125.039C31.1244 123.388 29.0693 120.886 27.5114 118.795C26.1276 116.938 24.0889 114.506 22.94 112.537C19.7171 106.962 16.7066 101.338 14.7337 95.1673C13.705 91.9503 13.4175 87.9003 12.44 84.5843C12.2966 84.0981 12.9878 83.8723 13.0491 83.6481C13.1192 83.3912 13.1116 82.3463 13.1245 82.0089C13.0592 78.1022 13.2317 74.2444 13.4295 70.3456C13.5192 68.5783 13.2896 66.0155 13.5921 64.325C13.9593 62.2732 15.2359 59.6466 15.9562 57.6378C16.6116 56.1642 17.1216 53.5416 17.9045 52.245C19.6251 49.3949 20.5364 47.8859 21.2418 44.5357C22.0536 41.3499 24.6886 36.757 27.1874 34.6543C29.8847 32.3846 30.3301 31.2474 32.2647 28.5688C33.4612 26.912 37.3137 25.0293 39.0199 23.7606C41.5241 21.8985 44.2577 20.0736 47.1686 18.9031C53.1494 16.0192 59.5029 13.5635 66.08 12.4515C68.2886 12.0781 70.7785 12.3511 73.0153 12.0585C76.2444 11.6212 79.1793 11.2904 82.4347 11.1155Z" fill="#30302B"/>
<path d="M78.9642 38.7993C80.231 38.9952 81.7457 39.7374 83.2586 39.8199C84.5673 40.0857 86.5574 39.8565 87.7724 40.1571C91.0808 40.9756 97.4609 41.5503 100.169 43.3108C105.906 47.041 110.542 51.8319 114.32 57.4764C115.308 58.9524 115.942 60.8814 116.747 62.4701C117.286 63.6946 118.631 65.2998 119.018 66.5283C119.976 69.5659 119.824 72.5229 121.369 75.4569C122.072 76.7924 120.358 79.8385 120.162 81.2834C119.659 85.2495 119.521 89.618 117.256 93.0621C114.368 97.4532 112.009 100.824 107.409 103.512C104.901 105.072 102.155 107.115 99.2852 107.943C95.5669 109.015 91.44 110.006 87.6402 110.855C84.5891 110.617 80.6356 109.545 77.5318 109.184C75.7472 108.977 73.4267 108.999 71.679 108.928C68.5972 108.804 62.9317 106.724 60.3374 105.427C55.1254 102.822 48.3627 92.2188 46.9166 86.7619C45.2076 79.5917 43.8261 71.9482 45.9094 64.6998C46.1829 63.9163 46.5637 62.9526 47.0227 62.2669C48.6187 59.8828 49.0584 57.0279 50.4018 54.5539C53.2433 49.3213 58.7271 46.1905 63.8679 43.593C65.9407 42.5458 67.9634 41.3901 70.2126 40.7452C73.0486 39.9364 76.1333 39.6338 78.9642 38.7993Z" fill="white"/>
<path d="M82.9556 46.2347C89.9975 45.9601 92.3774 47.4881 98.0687 51.0528C104.319 54.9676 106.128 59.1056 109.459 65.5945C110.413 68.4175 112.69 73.818 112.467 76.6952C111.265 92.1589 98.7068 105.704 82.7962 105.341C79.1275 104.851 72.4384 102.496 68.922 101.02C67.7845 100.542 63.6508 97.9096 62.7449 97.0447C60.2724 94.5627 55.7211 89.6792 55.0792 86.1815C54.3936 82.4467 54.4988 80.2289 53.2184 76.4364C54.0484 72.9714 54.3227 69.9813 54.9262 66.5721C55.4967 63.3502 58.6413 58.1884 60.8479 55.6723C62.4989 53.8141 64.3645 52.1583 66.4058 50.7398C72.4527 46.4616 75.8961 46.6957 82.9556 46.2347Z" fill="#30302B"/>
<path d="M76.6964 68.5857C81.2332 68.3404 84.6524 69.0837 88.6944 71.0274C89.3478 72.9611 90.1334 75.3849 90.9959 77.1895C89.7545 80.5617 89.2992 82.1878 86.2112 84.2358C84.1895 85.3028 81.7389 85.0173 79.5589 84.4738C74.6647 83.2535 71.6341 77.902 73.1623 73.1052C73.8316 71.0038 74.6716 69.6604 76.6964 68.5857Z" fill="white"/>
</g>
<defs>
<clipPath id="clip0_15_82">
<rect width="155" height="169.531" fill="white"/>
</clipPath>
</defs>
</svg>
