<svg width="1440" height="276" viewBox="0 0 1440 276" fill="none" xmlns="http://www.w3.org/2000/svg">
<g clip-path="url(#clip0_14_29)">
<path d="M0 0H1440V276H0V0Z" fill="transparent"/>
<path d="M519.637 67.7349C524.227 67.3067 528.683 65.6305 533.289 65.6424C539.217 71.2157 530.627 93.4804 536.865 101.412C539.604 102.756 543.552 102.153 546.54 102.076C548.689 90.2857 552.328 78.6495 553.22 66.6115C557.278 66.0344 562.321 64.8291 566.338 65.7015C568.266 68.5282 564.298 91.4466 563.916 96.3556C563.782 98.0811 563.683 98.584 564.823 99.9169L566.514 99.827C575.574 94.7656 573.063 76.5868 579.688 68.4844C581.084 66.7773 582.9 65.5901 585.131 65.3915C587.47 65.1832 590.901 66.1952 592.673 67.755C594.143 69.0485 594.584 71.2768 594.702 73.1358C595.104 79.4339 593.73 86.6633 593.255 93.0127C592.67 100.84 592.602 108.769 592.275 116.619L589.031 218.692C588.961 221.815 589.743 243.324 589.023 244.595C588.712 245.144 587.99 245.768 587.559 246.257C583.999 247.67 577.754 246.853 574.306 245.355C566.948 242.159 564.94 227.592 562.038 220.428C561.234 218.444 560.712 217.46 558.716 216.618C558.417 216.698 558.124 216.793 557.842 216.924C550.552 220.299 556.267 238.298 554.046 244.556C551.583 246.417 544.728 245.03 541.566 244.781C540.176 242.976 539.191 240.673 538.128 238.656C538.708 230.806 540.183 218.937 535.686 212.095C534.439 210.198 532.759 209.093 530.537 208.648C527.43 208.025 522.187 209.288 519.565 211.014C515.909 214.607 518.832 237.482 517.963 244.179C513.825 244.416 506.661 245.096 503.433 242.306C502.741 239.218 504.763 236.055 504.762 232.892C504.761 226.048 503.172 219.306 503.284 212.307L498.73 207.851L488.533 207.897C486.097 209.591 483.934 211.71 481.731 213.692C481.518 220.732 483.479 227.41 484.983 234.236C486.79 235.97 488.022 237.272 488.367 239.772C487.234 241.216 486.488 241.699 484.664 242.122C481.361 242.89 474.174 242.502 471.306 240.624C466.113 237.222 466.968 222.042 465.745 216.249C465.164 213.498 464.004 210.759 461.54 209.205C459.326 207.807 456.117 207.518 453.607 208.131C451.072 208.75 448.327 210.538 446.981 212.812C443.314 219.011 448.819 235.622 450.527 242.416C445.061 243.098 439.673 242.539 434.249 243.888C432.126 235.494 433.009 226.363 432.512 217.776C432.291 213.954 431.646 210.889 428.636 208.253C426.756 206.607 424.305 205.601 421.779 205.786C420.175 205.911 418.691 206.68 417.665 207.917C412.076 214.522 414.988 233.172 415.666 241.374L409.906 242.329C407.259 242.749 405.211 242.843 402.952 241.164C397.832 237.357 399.471 226.902 399.142 221.231C398.952 217.947 398.367 214.628 397.857 211.38C396.781 210.106 395.67 208.804 394.263 207.887C391.808 206.286 388.995 205.756 386.127 206.387C370.872 209.746 387.214 232.565 381.887 241.061C379.542 242.583 374.985 242.119 372.267 241.85C370.503 241.676 368.438 241.33 366.993 240.201C362.609 236.776 368.034 214.706 361.729 207.247C360.837 206.191 359.543 205.368 358.135 205.288C353.782 205.041 348.954 208.723 345.841 211.41C345.716 221.798 347.974 230.371 351.475 240.05C346.911 240.994 339.835 243.094 335.486 240.81C329.224 237.522 334.037 221.275 331.955 214.642C331.183 212.182 329.274 209.201 326.911 207.995C324.239 206.632 320.565 206.58 317.75 207.494C316.447 207.918 314.906 208.872 314.276 210.128C312.18 214.306 314.265 227.57 315.695 232.117C316.493 234.655 318.083 236.909 318.982 239.461C318.586 239.987 318.292 240.553 317.692 240.845C314.537 242.377 304.879 242.114 301.494 240.991C296.525 236.58 301.881 219.296 298.19 211.657C296.909 209.006 293.73 207.446 291.064 206.567C288.175 205.613 284.838 205.481 282.081 206.919C271.548 212.412 283.002 235.365 281.08 241.313C279.762 242.405 279.167 242.74 277.466 242.989C275.059 243.341 268.86 243.634 266.913 242.136C262.32 238.602 262.588 217.459 261.705 210.916C258.288 208.581 254.978 207.029 250.918 206.203C249.408 205.896 247.945 206.025 246.658 206.895C238.683 212.29 248.61 235.429 247.163 242.458C247.065 242.932 246.722 243.13 246.319 243.383C242.813 245.587 235.657 244.388 231.841 243.431C231.613 243.179 230.853 242.514 230.764 242.241C229.988 239.833 229.239 218.645 228.687 214.09C226.221 211.282 223.533 207.94 219.998 206.466C218.317 205.765 216.769 205.593 215.068 206.301C201.856 211.797 218.145 232.891 214.445 241.871C210.932 244.391 200.276 241.858 195.686 241.792C196.926 229.244 196.684 216.425 189.892 205.402C187.663 205.027 184.224 203.949 182.168 205.074C172.364 210.436 183.496 232.531 181.072 240.775C180.712 242.001 180.221 242.056 179.154 242.637C176.217 242.422 167.309 242.65 165.021 240.962C160.313 237.487 163.706 219.025 162.85 212.943C162.502 210.469 161.513 208.079 159.454 206.56C154.927 203.221 148.911 204.741 143.821 205.499C140.859 216.544 144.621 228.392 145.522 239.513C145.12 240.133 144.939 240.706 144.206 240.937C141.866 241.673 139.551 240.28 137.201 240.31C136.06 240.324 134.321 241.26 133.3 241.119C132.912 241.066 132.067 240.457 131.683 240.251C127.902 235.215 128.746 218.468 127.477 211.256C125.606 209.204 123.383 207.51 121.23 205.767C117.906 206.014 114.532 206.62 111.222 207.057L106.849 212.815C106.945 219.823 110.265 230.421 109.221 236.395C108.92 238.118 108.203 239.444 106.739 240.452C103.06 242.987 97.4102 241.36 93.3764 240.6C92.8884 232.677 93.0923 216.027 87.9462 210.051C86.7516 208.664 85.5612 208.192 83.764 208.072C83.224 208.037 81.9316 209.019 81.5147 209.414C78.8302 211.956 80.2041 238.036 80.0775 243.588C78.1348 242.94 76.2223 241.876 74.1811 241.572C71.306 241.143 68.6406 242.218 65.8844 240.886C65.1539 240.199 64.4759 239.407 64.1994 238.424C63.6443 236.451 63.3991 202.73 63.703 198.714C63.8613 196.622 64.218 194.04 65.2989 192.22C65.3967 192.056 65.5064 191.897 65.6192 191.743C66.6853 190.283 67.6808 189.77 69.4531 189.437C78.442 187.747 97.3681 190.988 107.477 190.988C114.029 190.988 120.788 190.159 127.371 189.875C139.413 189.427 151.464 189.289 163.513 189.458C178.876 189.69 195.732 191.436 211.092 190.994C243.726 190.055 275.908 193.737 308.449 192.374C314.154 192.135 320.084 192.989 325.856 192.666C346.026 191.536 365.961 189.96 386.184 191.005C392.362 190.961 398.708 189.986 404.849 189.868C442.434 189.149 479.639 194.578 517.17 190.698C525.761 190.051 534.673 190.569 543.201 189.465C545.781 189.13 551.343 190.05 552.514 189.61C571.12 183.061 578.378 155.167 573.173 137.871C567.101 117.688 541.931 119.655 526.577 119.824C470.71 120.439 415.501 115.52 359.633 117.995C353.995 118.244 347.76 116.162 342.076 116.183C334.432 116.468 326.7 117.872 319.011 118.196C292.493 119.229 265.958 119.762 239.42 119.794C231.852 119.771 224.293 119.207 216.728 119.121C208.357 119.026 199.982 119.468 191.606 119.396C176.439 119.266 161.148 118.58 145.981 118.08C138.676 117.839 131.564 116.314 124.189 116.191C117.799 116.084 75.5648 117.063 74.0623 116.198C72.0063 115.015 72.2869 110.062 71.7631 107.894C71.6815 107.556 70.8912 107.214 70.5741 107.021C68.9171 107.478 68.0034 108.349 66.6624 109.403C63.0698 108.951 57.9573 108.863 54.2306 108.694C54.1505 101.781 53.0444 99.6704 50.2374 93.328C46.7048 93.4832 43.1921 93.9418 39.7381 94.6982C34.4595 95.8942 27.1742 99.0489 29.5696 105.901C32.2995 112.904 38.482 121.892 43.7191 127.257C48.8144 132.478 60.1949 132.039 66.6987 132.269C82.6404 132.831 98.4502 133.609 114.363 133.999C122.451 134.198 131.099 133.335 139.312 133.362L412.326 133.907C425.526 133.946 440.466 132.127 453.758 132.329C468.744 132.521 484.148 133.506 499.057 133.949C521.582 134.619 530.819 130.329 550.792 142.313C554.219 149.603 555.841 155.75 553.375 163.482C549.756 174.828 543.487 176.514 533.231 176.941C489.249 178.771 445.444 178.919 401.456 178.518C387.034 178.387 373.125 179.444 358.686 179.323L220.654 178.486C213.442 178.387 206.293 177.235 199.09 177.026C179.467 176.46 159.775 177.015 140.149 176.921C130.261 176.874 120.376 175.969 110.479 175.882C98.6843 175.779 47.9496 176.873 39.9218 181.261C31.7861 185.708 29.9517 194.462 27.6098 202.63C29.1255 206.775 30.7705 212.715 34.3635 215.149C40.7233 214.463 38.6095 194.69 49.6956 197.822C54.6299 201.898 57.7167 212.982 59.4653 219.158C58.2253 221.367 57.1858 222.799 55.6154 224.752C39.0391 245.371 26.3902 232.824 11.475 220.118C10.1219 211.026 5.9844 188.828 11.0324 181.626C14.6594 176.452 42.4138 165.979 49.1321 165.079C60.2414 163.59 74.8505 164.017 86.0252 164.191C98.6133 164.37 111.204 164.343 123.791 164.111C166.115 163.003 208.461 162.983 250.786 164.049C257.737 164.228 264.995 166.327 271.958 166.208C292.61 165.856 312.8 165.36 333.424 166.927C340.519 167.408 348.216 166.613 355.245 167.055C384.405 168.887 412.984 166.961 442.067 166.119C464.871 165.458 487.773 166.696 510.658 164.604C519.154 163.828 527.477 165.007 536.14 163.334C538.094 159.027 539.921 156.204 538.828 151.563C537.166 148.85 534.286 147.643 531.182 147.606C513.317 147.39 495.406 145.71 477.547 145.491C469.7 145.395 461.618 146.029 453.705 146.065L327.132 147.602C318.542 147.72 308.837 146.436 300.382 147.053C264.881 149.645 229.899 145.47 194.434 146.043C182.838 146.231 170.97 145.374 159.365 145.394L93.903 146.11C76.4255 146.191 57.0189 147.303 39.5176 142.614C30.8908 140.304 19.4207 122.649 15.2554 114.211C16.5687 107.577 14.2689 97.5277 14.0821 89.7316C26.2033 75.9611 29.4013 75.2054 48.257 76.1606C57.0533 76.6058 60.815 87.1163 65.5333 93.3182C67.2972 95.6372 66.9701 99.8158 69.7567 102.433L70.5354 102.157C73.2473 95.7502 68.4612 88.2905 71.4248 77.865C72.1582 76.2209 72.3263 75.6823 73.9596 74.8164C77.3641 74.2342 83.8259 74.4013 86.6784 76.3769C86.715 81.5275 86.4302 105.647 96.3717 100.744C99.5252 95.2565 95.0892 78.2316 99.7924 76.1353C122.955 65.8088 99.3923 103.612 119.031 104.737C127.703 100.887 119.63 79.3033 123.653 76.1423C145.902 58.656 131.457 108.67 145.922 106.222C155.033 104.681 148.693 80.8062 153.646 74.8564C156.748 71.13 159.575 71.281 162.975 72.942C170.134 80.3553 160.58 98.1963 170.58 105.939C173.137 107.919 179.11 106.813 182.19 105.112C186.557 95.9581 181.287 81.453 186.751 72.3506C190.713 73.2278 200.036 75.3403 199.728 80.4508C198.836 84.9371 198.315 91.6215 199.109 96.1372C199.767 99.8818 201.507 103.558 204.692 105.775C206.265 106.87 208.098 107.567 210.032 107.205C211.7 106.893 213.249 105.78 214.18 104.379C218.22 98.2939 214.518 86.2209 213.18 79.4374C213.497 77.221 213.345 75.4871 215.324 74.0747C217.895 72.2397 221.548 71.4707 224.633 72.0613C225.69 72.2635 226.626 72.7257 227.539 73.2805C228.544 74.966 228.967 76.7722 228.323 78.7717C228.287 78.8833 228.191 79.0547 228.142 79.1488C227.566 83.2122 227.737 102.345 232.096 103.685C253.588 110.29 235.223 77.3741 248.806 73.4645C252.058 72.9356 258.405 71.3281 261.047 72.6063C263.524 76.7175 260.786 79.0779 260.653 84.1203C261.24 88.8608 260.404 101.364 263.467 104.763C267.661 106.145 278.857 106.34 282.772 104.318C284.401 103.476 285.474 102.017 286.009 100.287C288.08 93.5984 281.626 75.5713 288.448 71.9124C291.041 70.5212 295.571 69.2681 298.481 70.2536C299.913 70.7382 300.841 71.4622 301.484 72.8324C302.738 75.506 301.196 81.3828 301.165 84.4462C301.071 91.4347 301.843 98.4077 303.464 105.207C306.896 105.35 311.372 106.213 314.138 103.739C317.509 100.725 317.007 92.5309 317.308 88.3081C316.728 78.6755 313.993 71.0036 324.121 67.2233C326.365 67.235 328.203 67.0096 329.976 68.3752C332.099 71.0479 331.303 75.8094 331.156 79.3763C331.769 87.9864 332.98 96.6485 334.214 105.192C336.681 105.249 346.004 106.129 347.607 104.63C350.078 102.322 349.971 95.3169 350.004 92.1482C350.084 84.68 349.462 77.2533 349.382 69.7949C353.666 69.1405 360.009 67.4562 364.221 68.8447C366.209 74.7237 363.646 103.575 368.785 106.196C370.616 107.13 379.529 106.298 381.501 105.526C383.779 104.636 384.834 101.22 385.717 99.143L385.957 98.5756C385.635 97.9997 385.33 97.4154 385.073 96.8079C384.052 94.3941 383.425 75.6254 384.349 73.3163C387.331 70.9439 391.608 70.4853 395.263 69.6289C396.673 70.5331 398.136 71.4924 399.087 72.9033C400.548 75.0699 399.248 79.101 398.794 81.5239C399.569 88.1381 400.082 95.1435 400.044 101.8C403.986 104.135 408.389 106.943 413.224 105.674C414.2 105.417 415.14 104.962 416.026 104.487C417.186 93.3161 416.635 84.5803 416.37 73.4764C417.404 71.5121 419.406 71.116 421.514 70.4109C423.838 70.2529 426.687 69.7564 428.595 70.965C433.782 76.7863 426.447 96.8395 432.328 104.404C433.114 105.417 435.816 105.515 436.608 105.847C441.497 106.231 446.427 106.121 451.329 106.113C451.666 102.834 451.968 99.5503 452.232 96.2643C450.792 91.4712 450.55 79.1474 452.398 74.3543C452.974 72.857 454.179 71.9173 455.639 71.3169C457.564 70.524 461.178 69.7017 463.193 70.5654C468.768 72.9539 466.099 90.7345 466.711 96.2601C467.059 99.4056 468.281 102.282 469.493 105.176C474.716 105.359 479.865 105.302 485.082 105.12C486.713 98.4562 486.371 91.4571 486.598 84.633C487.595 79.0238 487.269 73.0136 487.326 67.3252C489.818 67.1717 492.315 67.0891 494.812 67.0773C497.499 67.0902 498.43 67.7739 500.234 69.5929C501.512 72.5515 500.618 77.3327 500.389 80.5534C501.114 88.1114 501.289 95.5887 501.336 103.178C506.107 104.086 513.651 105.395 518.028 102.893C520.824 97.9336 519.574 74.9379 519.637 67.7349Z" fill="#2D2B21"/>
<path d="M395.263 69.6289C396.673 70.5331 398.136 71.4924 399.087 72.9033C400.548 75.0699 399.248 79.101 398.794 81.5239C398.277 79.0112 397.918 76.6423 397.791 74.0748C396.679 73.3619 394.758 73.3451 393.488 73.6049C391.694 73.9729 390.499 75.0186 389.554 76.5328C388.933 77.5286 386.424 96.8627 386.532 97.9505L385.957 98.5756C385.635 97.9997 385.33 97.4154 385.073 96.8079C384.052 94.3941 383.425 75.6254 384.349 73.3163C387.331 70.9439 391.608 70.4853 395.263 69.6289Z" fill="#383021"/>
<path d="M487.326 67.3252C489.818 67.1717 492.315 67.0891 494.812 67.0773C497.499 67.0902 498.43 67.7739 500.234 69.5929C501.512 72.5515 500.618 77.3327 500.389 80.5534C500.337 80.4993 500.283 80.4466 500.233 80.3911C498.204 78.1347 500.896 74.6211 496.934 73.2446C494.809 73.5656 493.502 75.2272 492.279 76.8621C490.045 79.849 490.234 82.7326 486.598 84.633C487.595 79.0238 487.269 73.0136 487.326 67.3252Z" fill="#383021"/>
<path d="M416.026 104.487C417.186 93.3161 416.635 84.5803 416.369 73.4764C417.404 71.5121 419.406 71.116 421.514 70.4109C420.162 73.8823 421.334 74.8283 421.149 77.6908C420.341 90.2218 423.586 94.168 416.026 104.487Z" fill="#383021"/>
<path d="M324.121 67.2233C326.365 67.235 328.203 67.0096 329.976 68.3752C332.099 71.0479 331.303 75.8094 331.156 79.3763C330.738 76.8635 330.71 75.7048 329.029 73.7313C327.116 72.9967 326.152 72.9743 324.241 73.8065C321.083 75.1816 320.414 77.8046 317.878 79.337C317.945 81.1321 318.628 86.8691 317.438 88.1795C317.397 88.2245 317.352 88.2652 317.308 88.3081C316.728 78.6754 313.993 71.0036 324.121 67.2233Z" fill="#413725"/>
<path d="M186.751 72.3506C190.713 73.2278 200.036 75.3403 199.728 80.4508C198.529 81.6089 197.397 82.5739 196.869 84.206L196.08 84.4047C195.216 82.1637 195.515 82.7326 196.422 79.9635L195.949 79.2289C190.463 80.4508 190.818 81.413 190.178 86.7862L189.528 86.7623C188.669 84.5761 190.284 79.8911 189.551 79.0161C186.85 75.7904 186.835 76.5321 186.751 72.3506Z" fill="#383021"/>
<path d="M213.18 79.4374C213.497 77.221 213.345 75.4871 215.324 74.0747C217.895 72.2397 221.548 71.4707 224.633 72.0613C225.69 72.2635 226.626 72.7256 227.539 73.2805C228.544 74.966 228.967 76.7722 228.323 78.7717C228.287 78.8833 228.191 79.0547 228.142 79.1488L227.405 77.4991C226.849 77.1599 226.266 76.872 225.643 76.6774C221.468 75.374 216.788 77.5068 213.18 79.4374Z" fill="#413725"/>
<path d="M452.232 96.2643C453.328 97.6071 454.373 102.397 454.209 104.14C454.085 105.567 453.383 106.881 452.265 107.778C450.291 109.361 447.376 109.855 444.923 109.533C441.795 109.123 439.047 107.807 436.608 105.847C441.497 106.231 446.427 106.121 451.329 106.113C451.666 102.834 451.968 99.5503 452.232 96.2643Z" fill="#383021"/>
<path d="M71.4249 77.865C72.1582 76.221 72.3263 75.6823 73.9596 74.8164C77.3642 74.2342 83.8259 74.4013 86.6785 76.3769C78.3296 81.3273 80.2702 80.5112 71.4249 77.865Z" fill="#413725"/>
<path d="M248.806 73.4645C252.058 72.9356 258.405 71.3281 261.047 72.6063C263.523 76.7175 260.786 79.0779 260.653 84.1203C259.826 82.8464 260.508 80.8196 260.35 79.278C260.317 78.9508 260.056 77.2393 259.945 77.2161C255.377 76.2652 252.463 76.7069 248.806 73.4645Z" fill="#383021"/>
<path d="M873.752 209.101C866.813 215.838 860.941 225.399 857.756 234.488C856.842 237.111 857.616 243.995 855.949 245.523C853.298 247.955 847.744 248.092 844.305 248.035C842.745 248.009 839.862 247.978 838.772 246.836C836.817 244.795 838.526 215.968 838.786 211.13C839.264 202.351 840.312 193.607 840.727 184.821C841.605 166.154 841.739 147.274 842.28 128.577C842.822 110.087 842.323 91.7774 844.734 73.3605C847.554 70.9959 852.623 70.8962 856.167 71.227C857.573 71.3583 859.022 71.8155 859.936 72.9349C864.598 78.6129 865.266 125.626 876.944 127.019C878.077 127.155 879.089 127.064 880.024 126.331C882.148 124.664 884.109 122.329 885.98 120.365C884.447 113.032 881.613 105.828 880.594 98.4421C879.701 96.0965 879.328 93.3575 878.787 90.9002C877.788 85.9126 874.772 80.5267 876.298 75.6001C877.992 73.5831 877.57 74.1309 880.327 73.2798C883.554 73.423 889.523 73.5157 892.512 73.9322C899.198 83.2495 891.935 122.433 913.409 116.339C919.019 112.208 913.943 96.7805 914.871 90.6067C915.715 84.9567 918.014 81.243 918.555 75.3719C922.774 74.9224 929.06 73.8837 933.012 75.0966C940.162 81.2023 926.205 107.291 934.418 115.407C937.673 118.621 944.522 112.982 946.99 110.812C947.264 106.798 948.199 100.763 949.184 96.8023C950.477 91.5969 948.727 77.6894 954.745 76.0531C977.702 69.8115 966.445 95.0662 965.538 106.642C964.927 115.857 971.135 116.152 977.984 115.928L982.723 111.154C983.243 102.221 983.201 92.8456 983.384 83.6329C982.181 75.8874 992.025 69.8624 996.631 75.9379C1002.97 84.305 990.949 113.658 1008.46 115.303C1021.33 116.511 1013.53 88.4801 1015.66 77.4542L1026.98 75.5531C1027.79 81.5829 1029.16 86.1127 1030.81 91.922C1028.97 95.6955 1029.52 97.9147 1029.26 101.716C1028.79 108.524 1030.84 116.747 1039.54 113.605C1041.15 113.013 1042.78 112.441 1044.01 111.061C1047.35 103.612 1038.97 70.1062 1056.57 78.1333C1067.15 82.9538 1054.12 113.963 1073.2 113.264C1074.28 112.686 1075.68 112.157 1075.76 110.751C1076.28 101.732 1063.61 73.9062 1084.4 77.7597C1086.12 78.5533 1086.31 79.1003 1087.26 80.6707C1094.27 92.3624 1087.45 100.623 1093.71 113.178C1107.3 113.392 1106.75 110.678 1106.76 97.7869C1106.77 93.479 1104.8 85.343 1106.56 81.6426C1107.23 80.2205 1108.82 78.9831 1110.28 78.4584C1113.1 77.445 1117.49 78.4023 1120.07 79.7387C1121.69 80.5737 1122.31 83.5613 1122.81 85.2222C1123.78 91.5435 1120.22 107.047 1125.7 110.97C1127.07 111.956 1129.16 112.095 1130.77 111.81C1132.15 111.567 1133.49 110.771 1134.3 109.623C1137.81 104.562 1133.32 83.4995 1136.55 78.9922C1137.19 78.1122 1138.84 77.9465 1139.89 77.74C1142.66 77.1978 1145.76 78.0307 1148.08 79.6207C1150.52 81.2936 1151.73 84.0473 1152.23 86.8775C1153.47 93.8344 1150.85 107.902 1157.69 112.831C1158.75 113.596 1159.81 113.768 1161.07 113.532C1162.45 113.274 1164.22 112.059 1165 110.896C1169.37 104.379 1160.97 91.7198 1164.45 84.0241C1165.23 82.2929 1167.6 81.4972 1169.28 80.875C1171.39 80.0983 1173.72 79.5926 1175.85 80.5843C1177.61 81.4053 1178.56 83.1399 1179.17 84.9055C1181.61 92.0183 1178.81 109.142 1186.09 112.738C1187.92 113.64 1189.86 114.07 1191.84 113.41C1193.14 112.977 1194.47 112.199 1195.1 110.944C1195.64 109.866 1195.76 107.79 1196.62 107.04C1195.05 103.533 1193.06 84.8711 1193.44 80.6391C1193.79 80.1812 1194.22 79.7794 1194.72 79.4845C1197.4 77.9142 1203.1 77.4415 1206.11 78.1551C1210.32 82.5254 1211.29 89.0862 1211.32 94.9342C1211.29 100.033 1211.76 103.163 1215.57 106.995C1217.1 108.535 1219.01 109.731 1221.24 109.725C1223.62 109.719 1225.62 108.429 1227.21 106.776C1228.62 105.325 1228.63 103.246 1228.59 101.31C1228.49 96.4546 1225.15 82.5563 1226.18 79.1074C1227.91 77.9732 1235.45 78.0364 1237.56 78.4598C1238.97 78.7415 1240.26 79.488 1241.04 80.7079C1245.42 87.5707 1240.3 105.903 1250.25 108.229C1252.29 108.707 1254.37 108.654 1256.17 107.519C1257.22 106.861 1257.93 105.515 1258.19 104.317C1259.38 98.7862 1252.98 80.1446 1257.05 77.4324C1260.96 74.8248 1267.74 77.1452 1272.36 76.7392C1273.84 85.8578 1273.35 95.1547 1274.99 104.185C1277.34 107.066 1279.71 110.471 1283.6 111.169C1285.75 110.88 1287.59 110.455 1288.95 108.633C1294.16 101.62 1283.39 79.2738 1293.24 77.5764C1297.11 76.9113 1301.92 77.6459 1305.86 77.8474C1305.41 84.5494 1303.91 103.502 1308.44 108.745C1309.54 110.024 1310.32 110.276 1311.96 110.37C1314.7 110.524 1318.25 109.991 1320.33 108.056C1322.16 106.358 1322.74 103.711 1322.8 101.316C1322.96 95.1385 1318.81 86.5362 1322.02 81.1475C1324.15 79.101 1326.65 78.8882 1329.48 78.9465C1331.06 78.9795 1332.26 78.9571 1333.43 80.1671C1339.59 86.5804 1333.16 105.424 1341.71 111.582C1342.42 111.527 1342.79 111.639 1343.29 111.057C1347.22 106.377 1346.6 92.9488 1346.01 87.3136C1345.83 85.6351 1345.37 83.7116 1345.89 82.0717C1346.25 80.9481 1347.09 79.9901 1348.16 79.4459C1350.45 78.2744 1355.33 77.8102 1357.78 78.6565C1358.61 78.9381 1358.75 79.4508 1359.2 80.1531C1357.31 94.531 1356.56 108.461 1356.19 122.934C1345.57 124.159 1334.47 125.402 1323.77 125.526C1314.62 125.631 1305.44 124.834 1296.29 125.094C1279.5 125.57 1262.77 127.525 1245.99 128.1C1234.02 128.509 1222.11 127.585 1210.16 127.792C1184.42 128.236 1158.6 130.001 1132.87 130.026C1122 130.037 1111.14 128.201 1100.3 128.334C1091.17 128.445 1082.12 130.941 1073.03 130.853C1061.59 130.741 1050.24 128.745 1038.82 128.463C1021.89 128.044 1005 129.37 988.066 129.769C965.44 130.302 942.223 129.915 919.723 132.547C908.184 133.897 892.441 134.887 884.728 144.649C879.033 151.857 877.099 162.871 878.182 171.819C879.089 179.302 881.353 186.305 887.52 191.091C893.834 195.987 903.396 198.161 911.187 198.914C922.83 200.039 935.662 200.884 947.348 200.514C953.627 200.315 959.871 199.28 966.15 199.178C973.434 199.059 980.719 199.556 988.003 199.55C1001.36 199.539 1014.75 199.11 1028.12 199.073L1286.02 196.617C1293.83 196.467 1301.69 195.493 1309.52 195.184C1317.98 194.85 1326.41 195.169 1334.85 194.922C1341.73 194.721 1348.57 193.996 1355.45 194.488C1355.55 198.451 1356.61 220.573 1357.3 223.121C1358.71 228.34 1363.73 233.743 1362.43 239.282C1360.56 240.962 1357.73 241.305 1355.3 241.184C1353.33 241.085 1351.31 240.544 1349.95 239.02C1345.15 233.655 1350.6 217.585 1341.26 216.82C1339.06 216.64 1336.86 217.419 1334.78 218.081C1331.44 223.344 1338.08 240.219 1331.37 241.688C1328.08 242.408 1323.76 241.854 1320.4 241.711C1318.32 233.1 1316.4 218.007 1308.14 212.893C1305.55 211.285 1301.96 210.653 1298.97 211.358C1298.1 211.564 1297.33 212.764 1296.73 213.441C1295.41 219.976 1304.28 234.476 1298.05 238.689C1296.2 239.939 1293.65 240.168 1291.51 239.721C1289.02 239.201 1287.2 237.905 1285.83 235.77C1282.21 230.114 1283.15 214.304 1276.13 212.676C1274.15 212.218 1271.22 212.392 1269.49 213.503C1268.27 214.29 1267.66 215.668 1267.35 217.073C1266.11 222.964 1271.18 236.533 1265.68 240.161C1263.17 241.821 1259.49 241.266 1256.72 240.642C1254.69 240.187 1253.06 239.647 1251.91 237.829C1247.98 231.556 1255.56 214.752 1245.53 212.342C1242.98 211.729 1239.14 212.813 1236.52 213.251C1236.48 217.916 1238.57 233.417 1237.52 236.348C1237.3 236.946 1236.55 237.785 1236.18 238.338C1233.08 240.449 1223.59 239.732 1219.82 239.247C1218.45 238.232 1218.05 237.447 1217.83 235.705C1217.07 229.635 1219.91 217.043 1214.68 212.774C1212.84 211.277 1206.28 211.609 1203.98 211.862C1202.96 211.974 1201.98 212.134 1201.32 212.958C1199.79 214.89 1199.93 217.42 1200.23 219.739C1200.97 225.572 1204.74 233.835 1202.5 239.402C1200.4 241.512 1196.11 240.998 1193.13 241.01C1190.72 241.019 1187.92 241.051 1186.08 239.264C1184.7 237.925 1184.77 235.003 1184.78 233.218C1184.81 227.961 1186.09 220.056 1182.07 215.886C1180.04 213.776 1176.74 212.991 1173.89 212.993C1171.81 212.993 1171.22 213.007 1169.64 214.38C1166.49 221.155 1171.66 237.912 1163.19 241.048C1160.02 242.227 1156.09 241.244 1152.96 240.303C1149.45 235.462 1156.22 214.644 1150.22 213.691C1146.82 213.151 1142.9 213.528 1140.09 215.642C1137.23 217.789 1135.91 221.139 1135.46 224.583C1134.7 230.425 1136.19 236.947 1138.16 242.428C1132.9 243.213 1126.98 244.57 1121.79 243.093C1120.17 241.555 1120.32 240.516 1120.28 238.346C1120.16 232.839 1122.3 218.925 1118.72 215.192C1114.65 213.691 1109.52 214.382 1105.61 216.169C1104.24 216.794 1103.32 217.602 1102.39 218.771C1100.59 225.541 1101.47 235.721 1102.35 242.73C1096.38 243.083 1090.13 243.863 1084.16 243.556C1085.89 236.906 1089.04 223.887 1085.34 217.734C1084.22 215.857 1082.38 214.729 1080.28 214.23C1077.12 213.477 1072.67 213.714 1069.88 215.504C1068.02 216.689 1067.08 218.383 1066.65 220.503C1065.29 227.137 1067.75 238.811 1070.32 245.018C1067.74 245.053 1056.54 245.949 1055.26 244.705C1047.31 236.976 1058.6 213.503 1041.62 213.623C1039.33 213.639 1036.55 214.033 1034.86 215.733C1033.02 217.577 1032.75 220.301 1032.79 222.776C1032.89 228.139 1037.1 240.099 1034.02 244.278C1032.16 245.566 1027.36 245.186 1025.16 244.801C1023.53 244.516 1022.07 243.794 1021.1 242.418C1016.09 235.309 1025.87 217.885 1013.74 215.609C1011.59 215.206 1009.17 215.161 1007.29 216.456C1005.46 217.712 1004.71 219.935 1004.35 222.019C1003.37 227.723 1005.77 237.755 1002.21 242.282C999.014 244.43 993.403 242.874 989.691 242.756C988.77 236.859 988.495 218.377 984.171 215.287C982.687 214.222 980.712 214.063 978.954 214.395C976.739 214.815 974.201 216.244 972.253 217.346C971.613 220.349 970.917 223.4 970.882 226.482C970.84 231.082 973.779 239.377 969.068 242.348C965.489 244.607 959.59 243.736 955.47 243.593C954.921 235.336 953.248 227.153 953.374 218.872C950.548 217.462 947.7 215.892 944.789 214.663C942.23 215.971 939.635 217.227 937.027 218.43C936.527 222.93 936.689 239.582 935.409 242.218C935.198 242.645 934.341 243.367 933.996 243.744C931.359 244.952 927.809 244.922 925.102 243.893C923.505 243.284 922.233 242.16 921.537 240.586C918.823 234.485 924.075 220.366 916.791 217.357C914.548 216.428 909.682 215.912 907.32 216.477C904.085 218.855 902.679 221.15 902.067 225.153C901.167 231.124 902.102 237.443 901.927 243.475C897.321 243.698 890.079 245.162 885.691 243.85C884.173 242.206 883.702 241.184 883.786 238.843C884.039 232.121 888.553 214.835 883.927 209.885C883.013 208.904 881.529 208.219 880.186 208.181C878.112 208.122 875.784 208.719 873.752 209.101Z" fill="#2D2B21"/>
<path d="M1196.62 107.04C1195.05 103.533 1193.06 84.871 1193.44 80.639C1193.79 80.1812 1194.22 79.7794 1194.72 79.4845C1197.4 77.9142 1203.1 77.4415 1206.11 78.155C1210.32 82.5254 1211.29 89.0862 1211.32 94.9342C1210.24 92.7873 1209.65 90.8805 1209.23 88.5159L1208.72 88.5019L1207.75 91.4599C1207.11 91.3679 1206.39 91.3427 1205.82 91.0105C1205.25 93.2192 1206.72 93.3161 1205.09 95.5634L1203.98 95.8513C1202.76 94.4973 1202.93 92.5162 1203.02 90.8061C1203.12 88.8032 1203.68 86.3564 1202.49 84.6161C1201.07 83.9939 1200.75 83.9665 1199.2 84.1442C1195.09 89.3432 1201.79 101.383 1196.62 107.04Z" fill="#413725"/>
<path d="M878.787 90.9002C877.788 85.9126 874.772 80.5267 876.298 75.6001C877.992 73.5831 877.57 74.1309 880.327 73.2798C883.554 73.423 889.523 73.5157 892.512 73.9322C891.415 81.8119 891.316 81.6286 887.048 88.2933C886.078 85.5235 887.695 84.1842 889.348 81.9952L889.066 81.0864C886.915 80.611 886.493 80.5815 884.391 81.2339C879.377 85.3936 881.965 93.8295 880.594 98.4421C879.701 96.0965 879.328 93.3575 878.787 90.9002Z" fill="#383021"/>
<path d="M878.787 90.9002C877.788 85.9126 874.772 80.5267 876.298 75.6001C877.992 73.5831 877.57 74.1309 880.327 73.2798C881.037 78.1059 879.532 85.8486 878.787 90.9002Z" fill="#413725"/>
<path d="M1106.76 97.7869C1106.77 93.479 1104.8 85.343 1106.56 81.6426C1107.23 80.2205 1108.82 78.9831 1110.28 78.4585C1113.1 77.445 1117.49 78.4023 1120.07 79.7387C1121.69 80.5737 1122.31 83.5613 1122.81 85.2222C1120.23 83.727 1115.95 82.2178 1112.96 82.9601C1111.75 83.2614 1110.6 84.4827 1110 85.5193C1107.8 89.377 1108.46 93.8892 1106.76 97.7869Z" fill="#413725"/>
<path d="M709.84 78.4809C738.359 77.0447 767.517 95.6723 789.174 112.521C790.186 121.198 795.424 128.497 797.372 136.901C803.187 161.996 792.204 197.565 776.447 217.429C765.429 231.325 750.509 243.438 732.41 245.483C719.55 246.937 698.205 248.322 686.038 244.512C681.68 243.148 660.188 229.551 656.036 226.236C638.305 212.082 629.485 190.913 626.981 168.649C625.634 156.684 627.427 138.846 632.377 127.937C634.224 123.865 637.126 120.064 639.912 116.582C640.15 116.284 640.37 115.973 640.674 115.742C640.986 115.281 641.318 114.822 641.686 114.404C658.252 95.6175 684.549 80.4712 709.84 78.4809Z" fill="#2D2B21"/>
<path d="M640.674 115.742C640.986 115.281 641.317 114.822 641.686 114.404C658.251 95.6175 684.549 80.4712 709.84 78.4809C709.235 79.1284 708.602 79.7479 707.913 80.3034C704.651 82.918 698.035 83.2909 694.014 84.5775C685.504 87.3003 675.131 92.0042 667.312 96.3177C662.716 98.8523 658.045 101.88 653.853 105.035C649.842 108.054 645.232 114.242 640.674 115.742Z" fill="#413725"/>
<path d="M711.204 93.0225C713.82 92.4523 717.736 93.2051 720.464 93.347C735.033 94.1034 757.315 104.092 767.131 115.022C778.774 127.978 786.635 147.633 785.644 165.17C784.631 182.965 775.976 196.197 765.155 209.584C761.843 213.679 758.552 218.107 754.608 221.617C752.569 223.436 750.15 225.142 747.563 226.082C740.468 228.666 722.166 230.485 714.642 230.07L714.101 229.43C713.004 229.794 711.858 230.06 710.698 230.145C696.526 231.19 683.406 228.364 672.513 219.03C668.472 215.567 665.168 211.549 661.509 207.723C658.728 204.817 655.381 202.349 652.793 199.288C645.95 191.197 640.997 177.71 640.211 167.203C638.6 145.66 650.335 133.602 663.389 118.49C679.048 100.364 686.994 94.8049 711.204 93.0225Z" fill="white"/>
<path d="M714.481 128.664C721.294 128.86 727.91 130.942 733.605 134.677C740.166 138.931 745.404 145.082 747.042 152.861C749.229 163.286 747.907 175.222 742.015 184.238C735.258 194.58 725.752 198.273 714.115 200.733C708.75 200.053 703.842 198.461 699.171 195.731C689.778 190.243 683.12 180.575 680.387 170.133C678.383 162.478 679.598 154.973 683.621 148.18C691.007 135.709 701.211 132.087 714.481 128.664Z" fill="#2D2B21"/>
<path d="M707.745 144.841C711.253 144.553 715.17 144.385 718.65 144.909C726.391 146.076 731.426 150.421 735.905 156.519C736.537 162.307 737.114 168.203 734.984 173.754C732.417 180.436 727.073 183.806 720.893 186.597C719.529 187.272 717.089 187.306 715.528 187.283C709.84 187.199 705.023 185.263 701.057 181.145C695.873 175.764 694.628 169.677 694.781 162.445C698.79 155.905 700.266 148.319 707.745 144.841Z" fill="transparent"/>
<path d="M1383.71 81.743L1393.09 83.4243C1398.55 88.3572 1403.49 93.387 1406.87 100.015C1410.58 107.3 1411.41 115.289 1408.84 123.101C1405.1 134.434 1394.35 141.549 1383.3 144.734C1369.5 148.712 1353.93 148.435 1339.66 149.504C1327.71 150.398 1315.92 151.788 1303.93 152.365C1269.98 153.997 1235.85 153.697 1201.87 153.796C1193.02 153.822 1184.15 155.989 1175.27 155.988C1172.4 155.988 1169.89 154.556 1167.03 154.492L1110.08 153.67C1064.42 153.395 1018.75 154.06 973.118 155.665C961.418 156.043 926.248 155.154 917.093 159.89C915.096 160.921 913.036 162.997 912.382 165.197C912.002 166.458 912.031 167.498 912.684 168.663C915.174 173.108 927.851 173.421 932.351 173.657C940.873 174.103 949.233 172.874 957.72 172.964C980.367 173.296 1003.01 173.348 1025.67 173.121C1044.1 172.772 1062.56 171.686 1080.98 171.402C1087.66 171.298 1094.34 171.824 1101.02 171.711C1111.04 171.542 1121.03 170.728 1131.06 170.956C1138.83 171.133 1146.56 172.328 1154.32 172.383C1163 172.443 1171.67 171.414 1180.39 171.451C1192.36 171.501 1204.38 172.14 1216.35 171.806C1234.98 171.285 1253.83 170.145 1272.43 168.846C1280.26 168.3 1288.1 167.207 1295.93 166.924C1303.95 166.633 1311.88 167.77 1319.88 168.087C1326.94 168.366 1334.25 167.842 1341.33 167.759C1361.71 167.517 1382.55 165.121 1402.54 170.461C1405.31 174.461 1408.89 177.455 1411.25 181.834C1415.34 189.396 1416.06 197.545 1413.56 205.78C1409.65 218.736 1398.22 226.947 1386.81 233.051C1382.29 232.281 1378.01 231.933 1373.44 231.927C1366.14 224.178 1365.12 216.626 1361.86 206.869C1362.73 204.036 1363.45 201.33 1365.26 198.928C1366.71 198.325 1368.17 197.796 1369.65 197.296C1376.93 197.998 1379.2 206.966 1385.02 210.078C1386.62 210.936 1388.48 211.324 1390.24 210.757C1394.78 209.297 1397.02 204.415 1399.04 200.51C1398.5 196.632 1397.44 192.852 1396.47 189.065C1388.46 182.644 1369.71 179.666 1359.58 178.954C1344.13 177.869 1328.06 180.493 1312.57 181.026C1299.91 181.463 1287.24 180.595 1274.58 180.775C1265.22 180.908 1255.75 180.77 1246.41 181.225C1240.09 181.534 1233.82 182.485 1227.49 182.646L1092.23 185.261C1075.27 185.456 1058.32 184.482 1041.3 185.05C1034.62 185.273 1028 186.509 1021.32 186.751C997.481 187.616 973.659 187.453 949.816 187.278C941.506 187.217 933.026 188.188 924.743 187.386C917.824 186.716 908.332 184.494 902.848 180.036C897.441 175.648 896.702 169.699 896.034 163.268C897.666 160.291 899.269 157.016 901.603 154.519C905.618 150.207 911.067 147.954 916.777 146.877C935.03 143.429 953.937 143.592 972.422 143.104C998.501 142.415 1024.5 141.844 1050.6 141.846C1064.89 141.848 1079.34 142.151 1093.61 141.91C1105.09 141.717 1116.54 140.95 1128.03 141.029C1136.62 141.088 1145.19 141.792 1153.76 141.875C1200.19 142.568 1246.62 142.271 1293.03 140.985C1304.7 140.587 1316.38 139.145 1328.03 138.386C1346.9 137.159 1379.04 139.218 1392.82 124.267C1397.51 119.184 1396.44 112.658 1396.17 106.337C1394.87 104.65 1393.56 102.975 1392.22 101.315C1390.4 99.0847 1387.82 97.5024 1384.93 97.2075C1376.6 99.8713 1380.79 112.286 1376.79 118.16C1375.77 119.653 1374.93 119.828 1373.25 120.146C1368.43 119.029 1365.2 113.961 1362.23 110.303C1362.21 103.551 1362.15 96.3275 1366.27 90.5912C1370.5 84.7102 1376.94 82.8829 1383.71 81.743Z" fill="#2D2B21"/>
<path d="M615.348 63.1712C617.868 63.1773 618.894 63.2886 620.905 64.7325C623.85 73.5572 620.561 100.727 620.297 111.525L618.733 193.491C618.44 208.329 619.811 223.141 618.391 237.999C618.177 240.235 618.152 242.44 616.219 243.943C614.814 245.035 613.187 244.929 611.521 244.717C609.159 244.341 608.228 244.436 606.487 242.774C605.566 240.67 605.5 238.471 605.431 236.212C604.973 221.214 606.125 205.958 606.355 190.943C606.555 177.801 605.846 164.659 606.272 151.503C606.691 138.592 607.859 125.703 608.233 112.796C608.636 98.8838 607.025 83.161 609.661 69.4876C610.284 66.2517 612.816 64.8969 615.348 63.1712Z" fill="#2D2B21"/>
<path d="M814.106 102.28C813.459 96.1737 810.977 79.9101 814.992 75.0516C816.012 73.8184 817.812 72.9686 819.394 72.838C820.891 72.7151 822.551 73.1519 823.711 74.1379C824.892 75.1584 825.609 76.6114 825.708 78.1684C825.799 79.7036 825.328 81.2718 825.328 82.8232C825.321 85.3788 825.827 87.9302 825.729 90.4683C825.405 98.2181 824.091 105.93 823.929 113.693C823.809 119.709 824.506 125.739 824.52 131.76C824.576 154.165 824.534 176.839 823.57 199.217C823.24 206.842 821.581 214.507 820.997 222.159C820.61 227.263 821.813 238.185 818.445 241.843C816.666 243.775 814.38 244.59 811.814 244.708C810.323 244.051 809.487 243.852 808.847 242.209C806.836 237.036 809.03 170.604 811.006 162.776C810.295 157.19 812.96 108.388 814.106 102.28Z" fill="#2D2B21"/>
<path d="M811.006 162.776C810.295 157.19 812.96 108.388 814.106 102.28C815.491 117.117 814.676 130.204 814.95 144.88C815.048 150.129 816.553 156.337 815.498 161.438L814.753 161.96C813.438 157.722 814.641 152.747 814.078 148.347C813.614 148.675 813.34 148.723 813.241 149.299C812.51 153.644 812.798 158.035 812.166 162.375L811.006 162.776Z" fill="#383021"/>
</g>
<defs>
<clipPath id="clip0_14_29">
<rect width="1440" height="276" fill="white"/>
</clipPath>
</defs>
</svg>
