<svg width="978" height="191" viewBox="0 0 978 191" fill="none" xmlns="http://www.w3.org/2000/svg">
<g clip-path="url(#clip0_15_65)">
<path d="M0 0H977.383V191H0V0Z" fill="white"/>
<path d="M436.752 77.3841C438.528 77.0881 441.575 78.0283 443.553 78.1099C453.323 78.5129 463.124 78.6037 472.901 78.8816C488.811 79.3333 570.051 77.9089 578.88 82.8568C580.731 83.8929 582.869 85.695 583.456 87.8213C585.666 95.8228 576.384 104.865 571.616 110.178C566.128 116.288 561.174 122.739 555.147 128.37C546.843 136.122 522.165 154.066 517.497 162.603C516.963 163.578 516.805 164.009 517.111 165.067C517.493 165.225 517.884 165.362 518.285 165.478C526.78 167.927 553.443 167.075 563.489 167.054L613.274 167.148C627.549 167.155 641.756 168.012 656.02 168.052C672.385 168.099 688.611 167.386 704.952 167.074C714.983 166.883 725.101 167.462 735.175 167.287C745.336 167.111 755.491 166.179 765.642 165.754C775.788 165.33 786.154 166.121 796.266 165.223C806.522 164.312 838.273 158.155 846.462 153.665C853.043 150.054 855.468 146.341 857.558 139.159C853.249 114.346 829.802 108.245 809.954 99.4012C805.172 97.2691 799.779 95.034 795.803 91.5802C794.629 90.5612 793.866 89.5451 793.756 87.966C793.956 87.1223 794.214 86.3931 794.854 85.7776C801.726 79.1451 833.515 81.174 842.797 82.2795C845.804 82.6376 848.71 83.7702 851.731 84.0658C855.539 84.4382 859.41 84.0615 863.228 84.4912C877.435 86.0923 891.776 88.1164 905.945 90.1114C911.228 90.8558 916.459 91.9684 921.77 92.5242C925.622 92.9267 929.249 92.6183 933.081 92.6975C936.46 92.7673 944.134 92.7338 946.429 95.1844C947.961 96.8203 946.906 103.711 946.84 106.216C939.223 106.798 932.074 104.448 924.61 103.496C919.838 102.887 915.022 102.336 910.226 101.96C908.508 101.825 906.699 102.059 905.005 101.813C903.721 101.625 902.595 100.737 901.273 100.521C898.142 100.012 894.821 100.345 891.647 99.9933C886.875 99.4632 882.164 98.4056 877.387 97.8827C872.171 97.3112 866.683 97.3699 861.428 97.4219C859.453 97.4415 856.064 97.515 854.661 99.0621C853.807 100.006 853.53 101.393 853.649 102.627C855.048 117.406 904.389 152.867 917.575 161.514C921.899 164.348 926.543 166.758 931.053 169.273C935.415 171.703 943.451 172.035 946.849 174.899L946.72 175.964C946.229 176.531 945.952 177.029 945.198 177.241C942.921 177.885 937.844 176.469 935.276 176.274C929.587 175.842 923.422 175.233 917.738 175.459C913.352 175.635 905.544 177.148 901.736 176.634C901.297 176.576 900.433 175.966 900.023 175.73C897.259 174.139 834.956 177.404 826.752 177.545C821.393 177.637 815.943 177.844 810.593 177.641C806.775 177.496 802.943 176.936 799.125 176.969C795.398 177.001 791.661 177.519 787.929 177.629C778.27 177.911 768.539 177.932 758.875 177.948C755.281 177.955 752.17 176.986 748.71 176.783C745.178 176.576 741.503 177.048 737.957 177.135C730.708 177.311 723.741 176.537 716.654 178.474C715.336 177.911 713.9 177.036 712.468 176.912C707.214 176.456 701.573 176.993 696.271 177.021C690.2 177.053 684.163 176.643 678.102 176.547C674.647 176.492 671.197 176.788 667.746 176.725C655.023 176.494 642.343 176.166 629.601 176.216C621.764 176.247 613.923 176.661 606.092 176.617C594.495 176.552 582.841 175.972 571.249 176C567.774 176.009 564.31 176.442 560.835 176.434C554.751 176.42 548.695 175.514 542.576 175.519C539.594 175.088 536.129 175.442 533.094 175.462C523.129 175.528 513.212 176.153 503.261 176.242C490.686 176.356 478.249 173.932 465.663 173.934C461.551 173.935 457.442 174.568 453.341 174.801C445.109 175.269 436.86 175.402 428.626 175.731C424.732 175.887 420.824 176.396 416.932 176.429L251.023 176.499C246.081 176.485 241.179 175.264 236.199 175.262C187.261 175.245 138.305 177.493 89.3876 175.179C76.0693 174.55 62.2504 174.756 48.8801 174.746C42.6286 174.742 35.2003 175.653 29.1099 174.226C27.7943 173.917 27.2545 173.873 26.535 172.718C27.0075 169.047 40.6925 162.521 44.2364 160.294C50.6865 156.24 56.7827 151.705 63.3185 147.745C69.9965 143.699 77.0386 140.307 83.5486 135.977C92.4123 130.083 103.056 122.715 110.234 114.96C112.92 112.057 117.066 107.349 116.861 103.116C116.727 100.332 113.414 98.2523 111.435 96.4512C106.676 96.4612 101.837 95.9536 97.0921 96.2325C93.0623 96.4693 89.0444 97.271 85.0304 97.7084C77.879 98.4877 70.7486 99.0927 63.6206 100.114C49.7468 102.103 36.1331 104.599 22.1401 105.699C21.5114 103.07 20.2808 99.6657 21.0622 97.0266C21.4423 95.743 22.1981 94.8367 23.3828 94.2193C27.0188 92.3251 31.7973 93.1665 35.7445 92.4578C39.0463 91.8648 42.317 89.898 45.5728 89.5141C47.522 89.2839 49.417 90.5015 51.5627 90.2499C55.8215 89.7504 59.9788 88.4874 64.2276 87.998C67.5268 87.6179 70.8832 87.6141 74.1952 87.2961L102.98 84.3308C108.617 83.7731 114.207 82.7512 119.851 82.2584C124.644 81.8401 129.471 81.8889 134.26 81.4424C141.39 80.7782 148.294 79.1857 155.518 78.7479C159.909 78.4814 174.669 78.0913 178.289 79.2994C179.516 79.7091 180.236 80.2181 180.812 81.3908C181.06 83.1982 180.247 84.7476 178.955 85.9763C175.49 89.2715 170.612 91.4976 166.567 94.0388C153.932 101.975 141.276 109.027 129.334 117.921C126.738 119.854 123.863 121.711 121.509 123.933C117.977 127.268 115.725 132.657 113.219 136.838C118.064 147.303 127.989 151.348 138.178 155.355C154.454 161.755 185.33 163.513 203.372 164.537C217.491 165.338 231.727 166.782 245.862 167.102C274.143 167.742 302.555 166.594 330.83 166.094C343.248 165.873 355.711 166.361 368.12 165.94C374.874 165.71 381.517 164.37 388.306 164.178C399.93 163.85 434.047 165.503 442.711 161.69C444.514 160.897 446.777 159.891 447.512 157.922C447.987 156.649 448.02 154.908 447.586 153.619C443.654 141.934 419.099 119.165 409.554 110.065C403.722 104.505 392.734 95.8911 389.559 88.6426C388.852 87.0287 388.702 85.0747 389.378 83.4221C389.964 81.9915 391.231 80.7701 392.667 80.2133C397.191 78.459 419.053 78.246 425.369 78.193C429.344 78.1591 432.928 78.9432 436.752 77.3841Z" fill="#24251F"/>
<path d="M453.613 93.2667C456.496 94.4767 460.436 94.2103 463.583 94.4528C481.886 95.8643 501.811 95.2751 520.361 95.4107C529.133 95.4747 538.563 95.0086 547.191 96.4946C549.663 96.9206 553.481 97.8097 554.965 99.9909C555.681 101.041 555.791 102.516 555.538 103.73C555.023 106.192 553.271 108.4 551.663 110.264C545.459 117.439 537.88 123.297 530.879 129.658C523.162 136.673 515.889 144.631 507.122 150.368C499.563 156.156 493.23 164.057 484.363 167.811C476.101 164.301 462.555 151.058 456.289 144.233C452.625 140.243 449.316 135.934 445.618 131.972C437.794 123.591 425.008 111.056 419.659 101.352C419.115 100.366 418.532 99.3682 418.864 98.2174C421.965 95.0478 436.325 94.195 440.934 94.0961C444.965 94.0092 449.863 94.9213 453.613 93.2667Z" fill="white"/>
<path d="M441.288 104.964C463.479 105.818 485.647 107.233 507.833 108.21C514.992 108.525 522.193 108.063 529.347 108.506C530.44 108.573 531.323 108.615 532.22 109.322C532.75 110.025 532.884 110.661 532.822 111.519C532.392 117.333 517.178 128.517 512.759 132.328C505.485 137.275 499.243 143.932 492.094 149.148C487.255 152.68 484.124 153.595 478.159 152.654L477.882 152.393C471.717 146.544 466.321 139.69 460.454 133.509C454.165 126.884 446.877 120.799 441.383 113.48C440.359 112.117 439.276 110.077 439.262 108.354C439.249 106.768 440.276 106.013 441.288 104.964Z" fill="#24251F"/>
<path d="M823.822 32.8468C826.218 30.201 902.361 31.7225 911.844 30.5587C917.165 29.9051 941.013 27.6829 945.971 28.0621C947.408 30.0835 946.959 38.7637 946.94 41.6084C945.398 41.6468 943.814 41.7345 942.282 41.898C927.593 43.4689 912.836 42.9813 898.095 42.6499C893.265 42.5413 888.278 43.0019 883.372 42.921L827.101 42.0796C822.887 42.0085 818.296 40.857 814.11 41.066C797.851 41.8781 781.687 43.6177 765.413 44.2898C761.982 44.4314 758.13 45.5748 754.623 45.7682C750.685 45.9852 746.715 46.1497 742.773 46.3235C733.729 47.7648 722.261 47.5108 713.986 51.3957C711.027 52.7843 710.092 59.3275 709.528 62.3978C715.126 85.4916 746.681 105.427 766.959 114.731C770.558 116.381 785.352 118.249 785.452 123.516C784.326 124.8 783.266 125.206 781.534 125.386C776.48 125.908 770.763 124.961 765.594 125.069C756.951 125.251 748.337 126.895 739.666 127.206C734.703 127.383 729.849 126.267 724.948 126.39C719.178 126.537 713.299 127.514 707.543 128.055C700.828 128.686 694.071 128.913 687.327 129.133C682.817 129.28 661.571 129.036 659.414 130.121C654.474 132.602 607.982 129.184 597.397 131.037C596.886 130.512 596.385 129.981 595.884 129.445C592.281 125.553 591.994 122.952 596.557 119.67C606.436 112.563 616.429 106.692 626.298 99.4308C633.877 93.856 642.534 89.0666 649.501 82.299C654.336 77.6023 668.939 64.3068 662.64 57.1634C661.504 55.9969 656.498 51.6201 655.133 51.23C625.935 42.8769 595.149 47.3833 565.35 44.2665C564.157 44.2428 562.849 44.4315 561.671 44.4459C522.699 44.9241 483.189 48.4362 444.258 46.9167L417.929 46.0917C408.053 45.7521 396.317 46.6921 386.594 45.8898C376.76 45.0784 373.907 45.8987 364.692 46.629C354.129 47.4663 342.965 48.5613 332.544 47.6551C332.43 47.6452 328.844 50.2187 327.617 49.4819C322.71 48.409 308.798 52.9567 305.388 56.1521C303.715 61.4141 312.92 68.2147 315.841 71.8891C318.717 76.6387 330.616 85.6277 332.726 88.9473C338.83 98.5522 374.569 117.902 375.84 125.775C375.483 126.472 375.18 127.41 374.41 127.632C368.449 129.233 361.123 126.803 354.952 127.212C339.603 128.23 324.138 127.288 308.73 127.23C300.987 127.201 292.353 128.047 284.786 127.648C271.952 126.971 259.081 126.145 246.243 125.486C239.367 125.102 232.791 125.901 226.028 126.114C221.481 125.792 216.572 126.015 212.079 125.661C207.22 125.279 197.341 127.017 194.914 122.094C194.802 119.408 196.965 118.026 199.133 116.91C219.245 106.558 239.191 93.0332 252.079 74.0784C254.534 70.4671 256.55 65.97 255.481 61.5254C252.413 48.7714 239.561 48.5216 229.003 47.4464C223.227 46.8252 217.445 46.2662 211.658 45.7693C202.001 44.938 190.026 43.0247 180.361 43.3415C168.718 43.7232 157.237 42.6498 145.834 42.9517C128.779 43.4031 111.512 45.2395 94.5036 46.5928C83.5791 47.462 72.3134 47.0779 61.3771 48.3731C53.9579 49.0636 46.3289 49.2599 38.8921 49.1161C34.9576 49.0407 23.6854 51.4482 20.7772 49.5029C20.3419 47.3326 22.0579 45.5025 22.008 43.9709C21.922 41.3328 20.7067 39.7297 21.9352 36.7502C23.8997 35.1975 26.366 35.4667 28.812 35.5142C42.7989 35.7854 57.1168 32.9015 71.0927 33.9632C90.1874 35.9086 108.531 34.308 127.508 33.0023C136.518 32.3823 148.387 32.1839 157.477 32.0344C205.704 31.6055 253.934 31.7194 302.158 32.3761C308.907 32.4868 315.801 33.1707 322.661 33.2822C331.995 33.3665 341.329 33.358 350.661 33.2568C356.452 33.1469 362.044 32.7179 367.848 32.9729C377.371 32.8186 386.492 31.9656 396.021 31.9826C401.457 31.9923 406.267 32.387 411.655 32.6246C416.356 32.8319 420.36 32.249 425.12 33.1604C431.652 32.6131 435.663 33.7183 441.751 33.9746C450.083 34.3253 452.646 33.6154 460.777 35.5055C468.226 35.0674 473.961 35.308 481.409 35.5926C501.09 34.1587 521.649 35.8888 541.55 33.9323C552.298 32.8756 565.073 33.9332 576.021 32.8536C587.68 31.7039 599.544 32.0398 611.246 31.0687C620.161 31.209 629.434 32.3018 638.353 32.1278C650.704 31.8868 662.955 32.5008 675.277 31.6623C676.346 31.5894 676.962 30.1732 677.534 29.3278L678.307 29.2055L679.133 31.2146C680.98 32.0753 718.62 32.0634 722.762 32.093C731.5 32.3603 740.239 32.4081 748.977 32.2363C758.083 32.0255 767.608 31.5116 776.68 32.3958C781.391 32.2234 795.861 32.1886 800.118 32.9254C805.816 32.9139 819.479 31.1163 823.822 32.8468Z" fill="#24251F"/>
<path d="M722.762 32.093C731.5 32.3603 740.239 32.4081 748.977 32.2363C758.083 32.0255 767.608 31.5116 776.68 32.3958C779.573 33.8686 783.624 32.6349 787.442 33.9362C779.363 36.4865 773.679 33.6553 767.021 34.8616C759.648 36.1985 762.172 41.4836 752.924 35.4913C752.413 35.1617 736.278 34.6509 733.925 33.5531C732.278 32.7862 724.843 34.1112 722.762 32.093Z" fill="#24251F"/>
<path d="M367.848 32.9729C377.371 32.8186 386.492 31.9656 396.021 31.9826C401.457 31.9923 406.267 32.387 411.655 32.6246C416.356 32.8319 420.36 32.249 425.12 33.1604C418.729 36.7278 418.702 33.7672 411.791 33.5706C410.079 33.5219 408.087 35.4299 406.117 35.3963C397.461 35.2485 387.966 35.764 379.407 35.1341C376.022 34.885 372.032 33.4587 367.848 32.9729Z" fill="#24251F"/>
<path d="M800.118 32.9254C805.816 32.9139 819.479 31.1163 823.822 32.8468C817.57 38.4958 806.613 32.3837 800.442 33.567C795.131 36.6893 789.867 33.2329 787.442 33.9362C783.624 32.6349 779.573 33.8686 776.68 32.3958C781.391 32.2234 795.861 32.1886 800.118 32.9254Z" fill="#24251F"/>
<path d="M460.777 35.5055C468.226 35.0674 473.961 35.308 481.409 35.5926L480.989 35.9033C475.944 36.4727 464.922 37.8279 460.777 35.5055Z" fill="#24251F"/>
<path d="M690.014 63.2888C690.272 63.2893 690.396 63.3418 690.62 63.4679C700.876 69.2509 715.627 97.4057 718.753 108.617C718.076 110.61 717.155 112.505 716.272 114.413C711.9 114.482 707.462 115.563 703.038 115.799C696.681 116.14 690.186 116.362 683.834 116.549C682.999 116.573 682.264 116.282 681.376 116.351C674.012 117.683 665.207 116.796 657.691 116.768C655.472 115.2 652.269 114.676 651.1 111.948C651.778 107.742 658.932 100.123 661.547 96.1437C667.76 86.6935 673.177 75.3366 680.97 67.0553C683.672 64.1832 686.177 63.423 690.014 63.2888Z" fill="white"/>
<path d="M689.737 76.2725C690.138 76.2114 690.53 76.2138 690.935 76.2429C693.259 76.411 694.691 77.5035 696.175 79.2421C699.755 83.4312 705.228 93.6196 704.656 99.2388C704.551 100.256 704.255 100.938 703.448 101.567C699.583 104.576 691.217 103.009 686.597 102.452C683.233 102.487 679.887 103.048 676.513 102.612C674.843 102.396 672.69 101.815 671.626 100.394C671.001 99.5573 670.858 98.5579 671.015 97.5447C671.836 92.2554 685.213 79.5735 689.737 76.2725Z" fill="#24251F"/>
<path d="M277.481 63.9697C278.64 63.9306 279.818 64.0299 280.933 64.3637C290.891 67.3471 311.997 92.6488 317.055 102.256C318.381 104.774 319.413 107.378 318.527 110.224C318.28 110.493 318.012 110.723 317.68 110.882C313.985 112.66 299.514 114.24 296.006 113.056C280.934 112.652 268.446 118.277 254.336 108.119L254.326 107.855C253.986 97.802 262.247 78.6428 268.996 70.9918C271.438 68.2233 274.932 66.6977 277.481 63.9697Z" fill="white"/>
<path d="M280.027 72.3489C280.129 72.39 280.23 72.4329 280.329 72.4816C284.794 74.6715 289.553 83.8662 292.997 87.8137C295.829 91.0602 299.232 93.9305 301.921 97.272C302.485 97.9725 302.835 98.8024 303.113 99.6523C303.665 101.344 303.701 102.858 302.898 104.46C299.716 106.484 292.479 106.63 288.693 106.765C284.002 106.658 272.275 107.704 268.655 106.354C266.343 105.491 265.453 103.145 264.49 101.074C269.046 91.5305 270.516 78.4408 280.027 72.3489Z" fill="#24251F"/>
<path d="M771.145 54.1652C778.007 53.3176 789.91 54.2893 797.059 54.9851C799.516 55.2243 802.151 56.0064 804.604 55.9807C805.668 55.9692 806.57 55.2916 807.62 55.1928C810.03 54.9664 812.869 55.6574 815.299 55.8489C819.598 56.1874 823.946 56.2261 828.227 56.7265C833.634 57.3602 838.984 58.4374 844.41 59.0238C854.213 60.0833 863.924 59.9267 873.722 60.6119C880.251 61.0679 886.808 61.3196 893.317 61.8257C901.106 62.4307 908.307 63.2764 916.153 62.9794C920.372 62.8199 944.358 59.8011 946.062 61.1625C947.236 65.5813 946.458 71.445 946.391 76.0505C939.562 75.5424 933.319 76.3732 926.547 76.4363C918.201 76.5136 909.51 75.8461 901.173 75.2888C891.79 74.6614 882.317 73.0436 872.958 71.9841C861.214 70.7316 849.445 69.7389 837.657 69.0069C833.434 68.7056 829.239 68.0113 825.015 67.7477C812.674 67.0582 800.304 67.2869 787.996 68.4329C783.042 68.9266 777.625 69.1993 772.863 70.7235C768.897 71.9927 767.422 74.4819 765.632 77.9748C771.755 85.4892 780.432 90.3683 788.253 95.9866C792.272 98.8726 796.099 102.076 800.227 104.801C808.078 109.981 839.957 128.333 843.293 135.689C843.289 137.084 842.248 138.702 841.275 139.652C829.306 151.365 751.153 149.864 732.34 150.382C726.804 150.535 721.283 151.07 715.752 151.179C700.509 151.479 685.289 151.243 670.061 151.443C663.852 151.525 657.629 152.214 651.429 152.154C640.195 152.046 628.756 150.576 617.541 150.756C610.859 150.863 603.882 150.704 597.244 151.154C583.017 152.121 568.49 154.086 554.235 154.005C551.73 153.991 547.855 153.651 546.055 151.772C545.172 150.852 544.881 149.48 544.934 148.243C545.106 144.132 548.06 140.121 550.637 137.143C555.171 131.907 563.36 125.808 568.8 121.235C573.186 117.553 577.157 113.456 581.447 109.672C584.115 107.32 587.06 105.294 589.732 102.966C591.049 101.822 590.658 99.7201 591.994 98.4758C592.51 98.7556 593.245 99.2383 593.836 99.2546C595.006 99.287 597.759 95.511 598.719 94.5923C600.842 92.5629 603.29 90.8802 605.357 88.7854C607.586 86.5239 609.938 83.4078 609.872 80.0915C609.833 78.0517 608.812 76.3217 607.357 74.9484C597.836 65.9466 558.807 68.7299 545.297 68.94L506.55 69.4013C498.346 69.4261 490.705 67.4249 482.234 67.8909C472.798 68.41 463.284 67.1112 453.741 67.8422C443.187 68.6511 431.904 67.4545 421.327 68.2008C412.226 68.6917 402.531 69.9991 393.501 70.5062C378.869 71.3285 370.284 68.5117 359.142 80.2143C363.787 91.8419 384.842 103.97 394.806 111.156C396.651 112.487 398.874 115.533 400.69 117.334L402.864 117.239C403.337 118.086 404.513 121.013 404.993 121.486C408.576 125.016 412.84 128.469 416.529 131.836C421.244 136.139 427.573 140.202 426.706 147.366C422.77 152.602 396.328 150.194 389.529 150.197L324.661 150.4C320.295 150.418 316.096 150.875 311.766 150.995L265.238 152.493C257.704 152.719 250.316 152.212 243.665 152.386C214.626 153.28 185.674 154.49 156.876 149.7C151.001 149.799 130.049 145.159 128.97 138.448C125.425 116.397 206.364 87.1179 204.209 73.758C198.811 63.7949 166.947 63.4688 157.388 65.4352L157.236 65.4786C152.932 66.6862 147.859 66.4107 143.417 66.638C138.983 66.8648 134.601 67.6675 130.173 67.9134C126.503 68.1173 122.809 67.772 119.144 68.0795C115.417 68.3923 111.861 69.8678 108.132 70.2823C104.73 70.6604 101.22 70.4441 97.7927 70.6447C89.6038 71.1241 81.3127 71.7797 73.1319 72.3899C65.8497 72.9329 25.5248 78.7092 21.2267 76.2524C20.3249 73.8597 20.9379 66.8433 20.8845 64.0241C20.8524 62.3281 23.4492 61.9012 24.8047 61.8826C37.5177 61.7116 50.0933 60.4018 62.783 60.0709C64.806 60.0179 66.1986 60.8612 68.1577 60.9037C77.679 60.0418 87.2257 60.0112 96.7614 59.3289C100.2 58.8834 104.449 59.8952 107.757 59.5466C120.108 58.2445 132.504 57.1415 144.936 57.2202C146.543 57.2303 147.767 55.8455 149.03 55.8952C156.553 56.1912 164.071 57.0503 171.619 56.8865C182.73 56.2194 192.651 53.5459 203.77 55.9043C208.436 56.2509 213.15 56.8884 217.803 57.2384C227.581 57.9728 233.741 55.5361 239.595 65.6858C232.964 94.6491 158.175 121.063 157.854 132.351C163.061 134.975 182.656 138.571 189.43 139.087C193.806 139.419 200.028 139.24 204.491 139.627C222.308 141.233 240.194 140.695 258.062 140.674C261.04 140.542 264.119 140.286 267.08 139.938C280.681 138.342 294.454 139.455 308.118 139.471C314.164 139.477 320.456 138.581 326.423 138.642C340.044 138.782 353.635 138.938 367.228 137.782C373.417 137.233 395.603 137.935 398.838 132.832C399.011 125.62 391.354 122.698 386.992 118.459C377.227 108.97 367.592 100.674 355.86 93.6277C352.628 91.3266 349.569 88.7782 346.286 86.5598C341.054 83.0253 316.876 70.6724 317.665 64.0093C318.536 62.3648 320.241 61.2403 321.726 60.0981C329.726 59.8207 338.612 58.0186 345.733 57.9284C361.687 57.7264 377.629 57.0412 393.547 56.8273C403.449 56.694 413.765 57.8682 424.031 57.4284C435.693 57.3205 447.645 56.6143 459.279 56.7977C468.545 56.9442 477.381 58.6446 486.768 57.0851C487.112 57.0283 489.331 58.1791 489.426 58.1705C497.454 57.4609 505.676 57.0646 513.732 56.897L585.337 56.1C591.374 56.0418 651.725 52.6434 652.813 64.4582C653.233 69.0565 629.19 83.9316 624.303 88.2754C616.071 95.7192 606.898 102.203 599.42 110.404C595.736 114.448 574.89 131.914 574.666 135.294C574.9 135.875 575.195 136.931 575.907 136.981C599.425 138.643 624.361 138.823 647.893 138.465C655.968 138.342 662.248 139.59 668.968 139.724C691.298 139.782 714.067 139.578 736.383 139.047C747.951 138.771 807.081 141.992 811.39 132.825C811.166 124.605 796.18 119.572 791.274 115.816C779.84 107.056 766.778 101.823 755.004 94.2924C748.671 90.2408 733.887 79.9946 729.916 74.9331C730.971 61.2756 733.758 60.7232 746.772 57.3482C754.942 55.2291 762.779 54.8299 771.145 54.1652Z" fill="#24251F"/>
<path d="M87.0171 108.196C89.3909 108.101 91.7633 107.749 94.1208 107.467C95.1178 109.295 96.8678 111.833 96.4717 114.007C96.1037 116.026 92.5641 118.432 91.0121 119.632C86.9689 122.758 82.5669 125.298 78.3285 128.137C70.7199 133.233 63.2507 138.395 55.5657 143.401C50.5213 146.687 45.7668 150.498 40.7149 153.708C39.4658 154.502 37.8437 154.527 36.6741 155.333C33.8568 157.274 31.2543 160.094 28.4336 162.209C28.3634 162.234 28.2426 162.281 28.163 162.299C27.4402 162.458 26.5107 162.424 25.9148 162.009C24.7989 161.234 24.4696 160.138 24.245 158.842C23.4019 153.977 23.9871 148.714 23.611 143.765C23.0987 137.025 21.752 130.267 21.4901 123.514C21.4456 122.366 21.326 121.158 22.0152 120.172C23.9035 119.089 25.9631 118.52 28.0721 118.036C38.4774 115.65 49.407 114.432 59.9501 112.638C68.9556 111.106 77.8771 108.774 87.0171 108.196Z" fill="#24251F"/>
<path d="M873.526 108.574C885.562 107.63 897.317 111.157 909.2 112.251C912.798 112.582 945.613 113.946 946.782 114.817C948.343 117.573 947.785 152.967 947.331 157.55C945.341 157.524 943.733 156.921 941.924 156.166C938.077 154.59 934.322 152.8 930.676 150.804C919.737 144.7 909.472 137.723 898.882 131.085C891.303 126.338 882.818 121.822 875.836 116.272C874.762 115.416 873.765 114.436 873.245 113.133C872.591 111.486 872.858 110.152 873.526 108.574Z" fill="#24251F"/>
</g>
<defs>
<clipPath id="clip0_15_65">
<rect width="977.383" height="191" fill="white"/>
</clipPath>
</defs>
</svg>
